<svg width="680" height="228" viewBox="0 0 1180 228" fill="none" xmlns="http://www.w3.org/2000/svg">
<path d="M589.095 -883.819C664.816 -883.819 733.399 -825.481 783.059 -731.095C832.715 -636.715 863.432 -506.32 863.432 -362.285C863.432 -218.249 832.715 -87.8552 783.059 6.52502C733.399 100.911 664.816 159.249 589.095 159.249C513.374 159.249 444.792 100.911 395.132 6.52502C345.476 -87.8552 314.758 -218.249 314.758 -362.285C314.758 -506.321 345.476 -636.715 395.132 -731.095C444.792 -825.481 513.374 -883.819 589.095 -883.819Z" stroke="#3F83F8" stroke-width="0.25"/>
<path d="M220.515 -730.58C274.058 -784.122 363.804 -791.366 465.659 -759.74C567.509 -728.116 681.432 -657.634 783.281 -555.785C885.13 -453.936 955.612 -340.013 987.237 -238.164C1018.86 -136.308 1011.62 -46.5623 958.076 6.98051C904.533 60.5233 814.787 67.7674 712.932 36.141C611.082 4.51655 497.159 -65.9654 395.31 -167.814C293.461 -269.663 222.979 -383.586 191.354 -485.435C159.728 -587.291 166.972 -677.037 220.515 -730.58Z" stroke="#3F83F8" stroke-width="0.25"/>
<path d="M958.202 -731.426C1011.74 -677.883 1018.99 -588.137 987.362 -486.281C955.738 -384.432 885.256 -270.509 783.407 -168.66C681.558 -66.8114 567.635 3.67052 465.785 35.295C363.929 66.9214 274.183 59.6772 220.64 6.13448C167.098 -47.4083 159.853 -137.154 191.48 -239.01C223.104 -340.859 293.586 -454.782 395.435 -556.631C497.284 -658.48 611.207 -728.962 713.057 -760.586C814.913 -792.212 904.659 -784.968 958.202 -731.426Z" stroke="#3F83F8" stroke-width="0.25"/>
<path d="M107.708 -561.109C136.685 -631.066 216.827 -672.104 323.032 -681.863C429.231 -691.622 561.455 -670.102 694.527 -614.981C827.599 -559.861 936.313 -481.582 1004.51 -399.588C1072.7 -317.588 1100.36 -231.902 1071.38 -161.945C1042.4 -91.9878 962.259 -50.9507 856.054 -41.1911C749.855 -31.4323 617.63 -52.9529 484.558 -108.073C351.486 -163.193 242.773 -241.472 174.579 -323.466C106.382 -405.466 78.7305 -491.153 107.708 -561.109Z" stroke="#3F83F8" stroke-width="0.25"/>
<path d="M788.917 -844.191C858.874 -815.214 899.911 -735.072 909.671 -628.867C919.43 -522.668 897.909 -390.444 842.789 -257.372C787.668 -124.301 709.389 -15.5871 627.395 52.6062C545.395 120.803 459.709 148.455 389.752 119.478C319.795 90.501 278.758 10.3587 268.998 -95.8463C259.239 -202.045 280.76 -334.269 335.88 -467.34C391 -600.412 469.279 -709.126 551.274 -777.319C633.273 -845.517 718.96 -873.168 788.917 -844.191Z" stroke="#3F83F8" stroke-width="0.25"/>
<path d="M107.968 -162.14C78.9912 -232.097 106.643 -317.784 174.84 -399.783C243.033 -481.778 351.747 -560.056 484.819 -615.177C617.891 -670.297 750.115 -691.817 856.314 -682.059C962.519 -672.299 1042.66 -631.262 1071.64 -561.305C1100.62 -491.348 1072.96 -405.661 1004.77 -323.662C936.574 -241.667 827.86 -163.388 694.787 -108.268C561.715 -53.1481 429.492 -31.6278 323.293 -41.3866C217.088 -51.1462 136.945 -92.1832 107.968 -162.14Z" stroke="#3F83F8" stroke-width="0.25"/>
<path d="M389.488 -843.996C459.445 -872.973 545.131 -845.321 627.131 -777.124C709.125 -708.931 787.404 -600.217 842.525 -467.145C897.645 -334.074 919.165 -201.85 909.407 -95.6512C899.647 10.5539 858.61 90.6962 788.653 119.673C718.696 148.65 633.009 120.999 551.01 52.8013C469.015 -15.392 390.736 -124.105 335.616 -257.177C280.496 -390.249 258.975 -522.473 268.734 -628.671C278.494 -734.877 319.531 -815.019 389.488 -843.996Z" stroke="#3F83F8" stroke-width="0.25"/>
<path d="M566.345 -883.297C641.994 -886.6 713.057 -831.31 766.786 -739.179C820.513 -647.055 856.888 -518.125 863.17 -374.226C869.453 -230.327 844.453 -98.7178 798.961 -2.26138C753.466 94.2011 687.492 155.475 611.843 158.777C536.195 162.08 465.133 106.79 411.403 14.6597C357.677 -77.4647 321.301 -206.394 315.019 -350.293C308.736 -494.192 333.736 -625.802 379.229 -722.258C424.724 -818.721 490.697 -879.994 566.345 -883.297Z" stroke="#3F83F8" stroke-width="0.25"/>
<path d="M204.8 -714.127C255.957 -769.954 345.301 -781.106 448.44 -753.952C551.572 -726.801 668.461 -661.355 774.656 -564.046C880.85 -466.736 956.234 -355.996 992.271 -255.623C1028.31 -155.244 1024.99 -65.2678 973.832 -9.44042C922.675 46.3869 833.331 57.5388 730.192 30.3854C627.06 3.23363 510.171 -62.212 403.977 -159.521C297.782 -256.831 222.398 -367.571 186.361 -467.944C150.321 -568.323 153.644 -658.299 204.8 -714.127Z" stroke="#3F83F8" stroke-width="0.25"/>
<path d="M941.748 -747.149C997.575 -695.993 1008.73 -606.648 981.574 -503.51C954.422 -400.378 888.976 -283.489 791.667 -177.295C694.357 -71.1003 583.617 4.28382 483.244 40.3208C382.865 76.36 292.888 73.0373 237.061 21.8811C181.233 -29.2752 170.081 -118.62 197.235 -221.758C224.387 -324.89 289.832 -441.779 387.142 -547.973C484.451 -654.168 595.192 -729.552 695.565 -765.589C795.944 -801.628 885.921 -798.305 941.748 -747.149Z" stroke="#3F83F8" stroke-width="0.25"/>
<path d="M99.4926 -539.897C125.391 -611.051 203.667 -655.545 309.345 -669.928C415.017 -684.31 548.053 -668.576 683.403 -619.313C818.753 -570.05 930.778 -496.588 1002.48 -417.647C1074.19 -338.7 1105.56 -254.301 1079.66 -183.147C1053.76 -111.992 975.483 -67.4985 869.805 -53.1156C764.132 -38.7337 631.095 -54.4664 495.746 -103.73C360.396 -152.993 248.372 -226.455 176.667 -305.397C104.957 -384.344 73.5945 -468.742 99.4926 -539.897Z" stroke="#3F83F8" stroke-width="0.25"/>
<path d="M767.706 -852.423C838.86 -826.525 883.354 -748.249 897.737 -642.571C912.119 -536.899 896.386 -403.862 847.123 -268.513C797.86 -133.163 724.397 -21.1396 645.456 50.5653C566.509 122.275 482.11 153.638 410.955 127.739C339.801 101.841 295.307 23.5656 280.924 -82.1129C266.543 -187.785 282.275 -320.821 331.538 -456.17C380.801 -591.519 454.264 -703.544 533.206 -775.249C612.153 -846.958 696.551 -878.321 767.706 -852.423Z" stroke="#3F83F8" stroke-width="0.25"/>
<path d="M117.156 -141.319C85.1549 -209.945 109.042 -296.756 173.598 -381.652C238.15 -466.543 343.346 -549.489 473.887 -610.361C604.428 -671.233 735.587 -698.502 842.111 -693.385C948.641 -688.267 1030.5 -650.765 1062.5 -582.138C1094.5 -513.512 1070.61 -426.701 1006.06 -341.805C941.504 -256.914 836.307 -173.967 705.766 -113.095C575.225 -52.2226 444.066 -24.9552 337.543 -30.0724C231.013 -35.1901 149.157 -72.6923 117.156 -141.319Z" stroke="#3F83F8" stroke-width="0.25"/>
<path d="M368.665 -834.805C437.292 -866.806 524.103 -842.919 608.999 -778.363C693.89 -713.811 776.837 -608.616 837.709 -478.075C898.581 -347.534 925.849 -216.375 920.732 -109.852C915.614 -3.32188 878.112 78.5342 809.485 110.535C740.859 142.536 654.047 118.648 569.151 54.0927C484.26 -10.4591 401.314 -115.655 340.441 -246.196C279.569 -376.736 252.302 -507.895 257.419 -614.419C262.536 -720.949 300.039 -802.804 368.665 -834.805Z" stroke="#3F83F8" stroke-width="0.25"/>
<path d="M543.64 -881.783C619.073 -888.383 692.48 -836.245 750.177 -746.546C807.87 -656.853 849.835 -529.632 862.388 -386.144C874.942 -242.656 855.707 -110.082 814.465 -11.7327C773.22 86.6224 709.983 150.715 634.55 157.315C559.117 163.914 485.711 111.776 428.014 22.0773C370.321 -67.616 328.356 -194.836 315.802 -338.324C303.249 -481.812 322.484 -614.387 363.726 -712.736C404.971 -811.091 468.207 -875.184 543.64 -881.783Z" stroke="#3F83F8" stroke-width="0.25"/>
<path d="M189.819 -697.004C238.491 -755.009 327.264 -770.048 431.489 -747.419C535.707 -724.792 655.34 -664.507 765.678 -571.922C876.016 -479.338 956.159 -371.991 996.54 -273.286C1036.92 -174.574 1037.53 -84.5384 988.856 -26.5328C940.183 31.4728 851.41 46.5113 747.186 23.8825C642.967 1.25511 523.335 -59.0296 412.997 -151.614C302.658 -244.199 222.516 -351.545 182.135 -450.251C141.751 -548.962 141.146 -638.998 189.819 -697.004Z" stroke="#3F83F8" stroke-width="0.25"/>
<path d="M924.624 -762.14C982.63 -713.467 997.668 -624.695 975.039 -520.47C952.412 -416.252 892.127 -296.62 799.543 -186.282C706.958 -75.9438 599.611 4.19905 500.905 44.58C402.194 84.9633 312.158 85.5686 254.152 36.8961C196.146 -11.7763 181.108 -100.549 203.737 -204.774C226.364 -308.992 286.649 -428.624 379.234 -538.962C471.818 -649.3 579.165 -729.443 677.871 -769.824C776.583 -810.207 866.618 -810.812 924.624 -762.14Z" stroke="#3F83F8" stroke-width="0.25"/>
<path d="M92.2108 -518.347C114.981 -590.563 191.241 -638.429 296.192 -657.407C401.136 -676.385 534.732 -666.47 672.101 -623.157C809.471 -579.845 924.594 -511.34 999.675 -435.601C1074.76 -359.857 1109.77 -276.906 1087 -204.69C1064.23 -132.474 987.973 -84.6081 883.023 -65.6292C778.079 -46.6517 644.482 -56.5663 507.112 -99.8788C369.742 -143.191 254.62 -211.697 179.54 -287.436C104.455 -363.18 69.4411 -446.13 92.2108 -518.347Z" stroke="#3F83F8" stroke-width="0.25"/>
<path d="M746.156 -859.722C818.372 -836.953 866.238 -760.692 885.216 -655.741C904.194 -550.797 894.279 -417.201 850.967 -279.832C807.654 -142.462 739.149 -27.3409 663.41 47.7391C587.666 122.824 504.715 157.838 432.499 135.069C360.282 112.299 312.417 36.0384 293.438 -68.9122C274.461 -173.856 284.375 -307.452 327.687 -444.821C371 -582.19 439.506 -697.313 515.245 -772.393C590.989 -847.477 673.939 -882.492 746.156 -859.722Z" stroke="#3F83F8" stroke-width="0.25"/>
<path d="M127.243 -120.918C92.279 -188.084 112.357 -275.854 173.148 -363.485C233.936 -451.111 335.413 -538.567 463.175 -605.075C590.936 -671.584 720.781 -704.546 827.426 -704.08C934.078 -703.614 1017.49 -669.719 1052.46 -602.554C1087.42 -535.388 1067.34 -447.617 1006.55 -359.986C945.763 -272.36 844.286 -184.904 716.524 -118.396C588.763 -51.8877 458.918 -18.9251 352.273 -19.3911C245.621 -19.8571 162.207 -53.7531 127.243 -120.918Z" stroke="#3F83F8" stroke-width="0.25"/>
<path d="M348.263 -824.715C415.429 -859.679 503.199 -839.601 590.831 -778.81C678.457 -718.022 765.913 -616.545 832.421 -488.784C898.93 -361.022 931.892 -231.178 931.426 -124.532C930.96 -17.8809 897.065 65.533 829.899 100.497C762.734 135.461 674.963 115.383 587.332 54.5915C499.706 -6.196 412.25 -107.673 345.741 -235.435C279.233 -363.196 246.27 -493.041 246.736 -599.686C247.202 -706.338 281.098 -789.751 348.263 -824.715Z" stroke="#3F83F8" stroke-width="0.25"/>
<path d="M521.022 -879.281C596.095 -889.165 671.706 -840.278 733.261 -753.181C794.812 -666.09 842.285 -540.82 861.086 -398.017C879.886 -255.213 866.452 -121.926 829.54 -21.8717C792.625 78.1889 732.243 144.979 657.17 154.863C582.097 164.746 506.487 115.86 444.932 28.7629C383.381 -58.3285 335.907 -183.597 317.106 -326.401C298.306 -469.204 311.74 -602.492 348.653 -702.547C385.568 -802.607 445.949 -869.397 521.022 -879.281Z" stroke="#3F83F8" stroke-width="0.25"/>
<path d="M175.597 -679.244C221.693 -739.317 309.726 -758.214 414.838 -740.153C519.944 -722.093 642.092 -667.084 756.364 -579.4C870.636 -491.717 955.385 -387.968 1000.03 -291.118C1044.68 -194.262 1049.22 -104.338 1003.12 -44.2645C957.023 15.8089 868.991 34.7053 763.878 16.6443C658.772 -1.4156 536.624 -56.4246 422.352 -144.108C308.081 -231.792 223.332 -335.54 178.684 -432.39C134.033 -529.247 129.501 -619.17 175.597 -679.244Z" stroke="#3F83F8" stroke-width="0.25"/>
<path d="M906.862 -776.37C966.936 -730.274 985.832 -642.241 967.771 -537.129C949.711 -432.023 894.702 -309.875 807.018 -195.603C719.334 -81.3321 615.586 3.41689 518.735 48.0648C421.879 92.7154 331.955 97.2475 271.882 51.1516C211.808 5.05562 192.912 -82.9769 210.973 -188.089C229.033 -293.195 284.042 -415.343 371.726 -529.615C459.409 -643.886 563.158 -728.635 660.009 -773.283C756.865 -817.934 846.789 -822.466 906.862 -776.37Z" stroke="#3F83F8" stroke-width="0.25"/>
<path d="M85.8751 -496.499C105.473 -569.64 179.573 -620.787 283.596 -644.325C387.613 -667.862 521.514 -663.784 660.642 -626.504C799.77 -589.225 917.772 -525.807 996.084 -453.415C1074.4 -381.018 1113 -299.674 1093.4 -226.533C1073.8 -153.393 999.705 -102.246 895.682 -78.7073C791.665 -55.1702 657.763 -59.248 518.635 -96.5273C379.507 -133.807 261.506 -197.226 183.193 -269.618C104.876 -342.014 66.2771 -423.358 85.8751 -496.499Z" stroke="#3F83F8" stroke-width="0.25"/>
<path d="M724.307 -866.074C797.448 -846.476 848.595 -772.376 872.134 -668.353C895.671 -564.337 891.592 -430.436 854.313 -291.308C817.034 -152.18 753.615 -34.1793 681.224 44.133C608.827 122.45 527.482 161.049 454.341 141.451C381.2 121.853 330.054 47.7531 306.515 -56.2697C282.978 -160.286 287.056 -294.187 324.335 -433.315C361.614 -572.443 425.033 -690.443 497.426 -768.756C569.822 -847.073 651.166 -885.672 724.307 -866.074Z" stroke="#3F83F8" stroke-width="0.25"/>
<path d="M138.209 -100.977C100.349 -166.553 116.579 -255.116 173.49 -345.315C230.398 -435.509 327.964 -527.308 452.703 -599.326C577.442 -671.344 705.725 -709.939 812.289 -714.126C918.86 -718.312 1003.67 -688.087 1041.53 -622.511C1079.39 -556.935 1063.16 -468.372 1006.25 -378.172C949.345 -287.978 851.779 -196.179 727.04 -124.161C602.301 -52.1432 474.018 -13.5484 367.454 -9.36202C260.883 -5.1755 176.07 -35.4008 138.209 -100.977Z" stroke="#3F83F8" stroke-width="0.25"/>
<path d="M328.32 -813.745C393.897 -851.605 482.459 -835.375 572.659 -778.464C662.853 -721.556 754.652 -623.99 826.67 -499.252C898.688 -374.513 937.284 -246.23 941.47 -139.666C945.656 -33.0953 915.431 51.7178 849.855 89.5782C784.279 127.439 695.716 111.208 605.516 54.297C515.322 -2.61045 423.523 -100.176 351.505 -224.915C279.487 -349.654 240.892 -477.937 236.705 -584.501C232.519 -691.072 262.744 -775.885 328.32 -813.745Z" stroke="#3F83F8" stroke-width="0.25"/>
<path d="M498.536 -875.794C573.107 -888.943 650.778 -843.401 716.073 -759.072C781.365 -674.749 834.257 -551.669 859.269 -409.821C884.28 -267.974 876.673 -134.227 844.16 -32.6583C811.645 68.9172 754.234 138.278 679.663 151.427C605.092 164.575 527.422 119.033 462.127 34.7044C396.836 -49.6193 343.942 -172.698 318.93 -314.545C293.919 -456.393 301.527 -590.14 334.04 -691.71C366.555 -793.285 423.965 -862.645 498.536 -875.794Z" stroke="#3F83F8" stroke-width="0.25"/>
<path d="M162.165 -660.88C205.597 -722.907 292.722 -745.625 398.522 -732.166C504.316 -718.708 628.747 -669.08 746.735 -586.464C864.722 -503.848 953.916 -403.895 1002.75 -309.085C1051.58 -214.268 1060.03 -124.628 1016.6 -62.6011C973.165 -0.5741 886.041 22.1443 780.241 8.68536C674.447 -4.77272 550.015 -54.4013 432.028 -137.017C314.04 -219.633 224.847 -319.586 176.016 -414.396C127.183 -509.213 118.733 -598.853 162.165 -660.88Z" stroke="#3F83F8" stroke-width="0.25"/>
<path d="M888.498 -789.811C950.525 -746.379 973.243 -659.255 959.784 -553.455C946.326 -447.661 896.697 -323.23 814.081 -205.242C731.465 -87.2549 631.512 1.93891 536.701 50.7689C441.885 99.6018 352.244 108.052 290.217 64.6203C228.19 21.1886 205.472 -65.9359 218.931 -171.736C232.389 -277.53 282.018 -401.961 364.634 -519.948C447.25 -637.936 547.203 -727.129 642.014 -775.959C736.83 -824.792 826.471 -833.243 888.498 -789.811Z" stroke="#3F83F8" stroke-width="0.25"/>
<path d="M80.4998 -474.396C96.889 -548.321 168.688 -602.652 271.585 -630.705C374.476 -658.757 508.427 -660.523 649.049 -629.348C789.671 -598.173 910.327 -539.962 991.722 -471.055C1073.12 -402.144 1115.23 -322.56 1098.84 -248.634C1082.46 -174.708 1010.66 -120.378 907.76 -92.3246C804.869 -64.2727 670.916 -62.506 530.294 -93.6811C389.672 -124.856 269.018 -183.068 187.622 -251.975C106.222 -320.886 64.1108 -400.47 80.4998 -474.396Z" stroke="#3F83F8" stroke-width="0.25"/>
<path d="M702.204 -871.467C776.13 -855.078 830.46 -783.28 858.513 -680.382C886.565 -577.492 888.332 -443.54 857.157 -302.918C825.982 -162.297 767.77 -41.6425 698.863 39.753C629.951 121.153 550.368 163.264 476.442 146.875C402.516 130.486 348.186 58.6877 320.132 -44.2094C292.081 -147.1 290.314 -281.051 321.489 -421.673C352.664 -562.294 410.876 -682.949 479.783 -764.345C548.694 -845.745 628.277 -887.856 702.204 -871.467Z" stroke="#3F83F8" stroke-width="0.25"/>
<path d="M150.037 -81.5327C109.352 -145.395 121.704 -234.582 174.626 -327.178C227.546 -419.768 321.014 -515.735 442.493 -593.126C563.972 -670.516 690.45 -714.67 796.73 -723.501C903.017 -732.332 989.067 -705.835 1029.75 -641.972C1070.44 -578.11 1058.09 -488.924 1005.16 -396.327C952.243 -303.737 858.775 -207.77 737.296 -130.379C615.817 -52.9888 489.339 -8.83499 383.059 -0.00439208C276.772 8.82669 190.722 -17.6704 150.037 -81.5327Z" stroke="#3F83F8" stroke-width="0.25"/>
<path d="M308.876 -801.915C372.739 -842.6 461.925 -830.248 554.521 -777.325C647.112 -724.406 743.079 -630.937 820.47 -509.459C897.86 -387.98 942.015 -261.502 950.845 -155.222C959.676 -48.936 933.179 37.1147 869.317 77.7995C805.454 118.484 716.268 106.132 623.672 53.2098C531.081 0.29071 435.114 -93.1782 357.723 -214.657C280.332 -336.135 236.178 -462.613 227.348 -568.893C218.517 -675.18 245.014 -761.23 308.876 -801.915Z" stroke="#3F83F8" stroke-width="0.25"/>
<path d="M476.223 -871.33C550.149 -887.719 629.732 -845.608 698.643 -764.207C767.551 -682.812 825.762 -562.157 856.938 -421.535C888.113 -280.914 886.346 -146.962 858.294 -44.0717C830.24 58.8254 775.91 130.624 701.984 147.013C628.058 163.402 548.475 121.291 479.563 39.8907C410.656 -41.5048 352.445 -162.159 321.269 -302.781C290.094 -443.402 291.861 -577.354 319.913 -680.245C347.967 -783.142 402.296 -854.941 476.223 -871.33Z" stroke="#3F83F8" stroke-width="0.25"/>
<path d="M1098.84 -475.685C1115.22 -401.759 1073.11 -322.175 991.714 -253.264C910.318 -184.357 789.663 -126.146 649.041 -94.9713C508.419 -63.7962 374.467 -65.562 271.576 -93.6138C168.679 -121.667 96.8806 -175.998 80.4915 -249.924C64.1024 -323.85 106.213 -403.433 187.614 -472.344C269.009 -541.251 389.665 -599.463 530.287 -630.638C670.909 -661.813 804.86 -660.046 907.751 -631.995C1010.65 -603.941 1082.45 -549.611 1098.84 -475.685Z" stroke="#3F83F8" stroke-width="0.25"/>
<path d="M149.546 -641.948C190.231 -705.81 276.282 -732.307 382.569 -723.476C488.849 -714.646 615.326 -670.492 736.805 -593.101C858.284 -515.711 951.753 -419.744 1004.67 -327.153C1057.59 -234.557 1069.95 -145.371 1029.26 -81.5083C988.577 -17.6459 902.526 8.85115 796.24 0.0199928C689.959 -8.81063 563.482 -52.9644 442.003 -130.355C320.524 -207.745 227.055 -303.713 174.136 -396.303C121.214 -488.899 108.862 -578.086 149.546 -641.948Z" stroke="#3F83F8" stroke-width="0.25"/>
<path d="M869.564 -802.438C933.426 -761.753 959.923 -675.703 951.092 -569.416C942.262 -463.136 898.108 -336.659 820.717 -215.18C743.326 -93.7012 647.359 -0.232306 554.768 52.6868C462.172 105.609 372.985 117.961 309.123 77.2765C245.261 36.5917 218.764 -49.4589 227.595 -155.745C236.425 -262.025 280.579 -388.503 357.97 -509.982C435.361 -631.46 531.328 -724.929 623.919 -777.848C716.515 -830.771 805.701 -843.123 869.564 -802.438Z" stroke="#3F83F8" stroke-width="0.25"/>
<path d="M679.885 -875.89C754.456 -862.742 811.867 -793.381 844.382 -691.806C876.895 -590.236 884.502 -456.489 859.49 -314.642C834.479 -172.794 781.586 -49.7154 716.295 34.6083C651 118.937 573.329 164.479 498.758 151.33C424.187 138.181 366.777 68.8211 334.262 -32.7544C301.749 -134.324 294.141 -268.07 319.152 -409.918C344.164 -551.765 397.057 -674.845 462.349 -759.168C527.644 -843.497 605.314 -889.039 679.885 -875.89Z" stroke="#3F83F8" stroke-width="0.25"/>
<path d="M162.7 -62.623C119.269 -124.65 127.719 -214.29 176.552 -309.107C225.382 -403.917 314.576 -503.87 432.563 -586.486C550.551 -669.101 674.982 -718.73 780.776 -732.188C886.576 -745.647 973.701 -722.929 1017.13 -660.902C1060.56 -598.875 1052.11 -509.235 1003.28 -414.418C954.451 -319.608 865.257 -219.654 747.27 -137.039C629.282 -54.4232 504.851 -4.79459 399.057 8.66348C293.257 22.1223 206.132 -0.596037 162.7 -62.623Z" stroke="#3F83F8" stroke-width="0.25"/>
<path d="M289.966 -789.248C351.993 -832.68 441.633 -824.229 536.45 -775.397C631.261 -726.566 731.214 -637.373 813.83 -519.385C896.445 -401.398 946.074 -276.967 959.532 -171.173C972.991 -65.373 950.273 21.7515 888.246 65.1832C826.219 108.615 736.579 100.165 641.762 51.3318C546.951 2.50178 446.998 -86.692 364.382 -204.679C281.766 -322.667 232.138 -447.098 218.68 -552.892C205.221 -658.692 227.939 -745.816 289.966 -789.248Z" stroke="#3F83F8" stroke-width="0.25"/>
<path d="M454.124 -865.896C527.265 -885.494 608.61 -846.895 681.007 -768.578C753.399 -690.266 816.817 -572.264 854.097 -433.137C891.376 -294.009 895.454 -160.108 871.917 -56.0918C848.379 47.931 797.232 122.031 724.091 141.629C650.95 161.227 569.605 122.628 497.209 44.3108C424.817 -34.0015 361.398 -152.002 324.118 -291.13C286.839 -430.258 282.761 -564.159 306.298 -668.175C329.837 -772.198 380.984 -846.298 454.124 -865.896Z" stroke="#3F83F8" stroke-width="0.25"/>
<path d="M1093.4 -497.786C1113 -424.645 1074.4 -343.301 996.085 -270.905C917.772 -198.513 799.771 -135.094 660.643 -97.8151C521.515 -60.5359 387.613 -56.4571 283.597 -79.9942C179.574 -103.533 105.474 -154.68 85.8756 -227.82C66.2776 -300.961 104.877 -382.305 183.194 -454.702C261.506 -527.094 379.508 -590.513 518.636 -627.792C657.764 -665.072 791.666 -669.149 895.682 -645.612C999.705 -622.073 1073.81 -570.927 1093.4 -497.786Z" stroke="#3F83F8" stroke-width="0.25"/>
<path d="M137.765 -622.484C175.625 -688.06 260.438 -718.285 367.009 -714.099C473.573 -709.912 601.856 -671.317 726.595 -599.3C851.334 -527.282 948.9 -435.483 1005.81 -345.289C1062.72 -255.089 1078.95 -166.526 1041.09 -100.95C1003.23 -35.3734 918.415 -5.14853 811.845 -9.33513C705.28 -13.5215 576.997 -52.1163 452.258 -124.134C327.519 -196.152 229.953 -287.951 173.046 -378.145C116.135 -468.345 99.9042 -556.907 137.765 -622.484Z" stroke="#3F83F8" stroke-width="0.25"/>
<path d="M850.096 -814.228C915.673 -776.367 945.898 -691.555 941.711 -584.984C937.525 -478.42 898.93 -350.137 826.912 -225.398C754.894 -100.659 663.094 -3.09317 572.9 53.8143C482.701 110.725 394.138 126.956 328.561 89.0955C262.985 51.2351 232.76 -33.5779 236.946 -140.148C241.133 -246.712 279.728 -374.996 351.746 -499.734C423.764 -624.473 515.563 -722.039 605.757 -778.947C695.957 -835.858 784.52 -852.088 850.096 -814.228Z" stroke="#3F83F8" stroke-width="0.25"/>
<path d="M657.394 -879.337C732.467 -869.453 792.849 -802.663 829.764 -702.603C866.677 -602.548 880.11 -469.26 861.31 -326.457C842.51 -183.653 795.036 -58.3844 733.485 28.7069C671.93 115.804 596.32 164.69 521.246 154.807C446.173 144.923 385.792 78.1329 348.877 -21.9276C311.965 -121.982 298.53 -255.269 317.33 -398.073C336.131 -540.877 383.605 -666.146 445.156 -753.237C506.711 -840.334 582.321 -889.221 657.394 -879.337Z" stroke="#3F83F8" stroke-width="0.25"/>
<path d="M176.176 -44.2841C130.08 -104.358 134.612 -194.281 179.263 -291.137C223.911 -387.988 308.66 -491.736 422.932 -579.42C537.203 -667.103 659.351 -722.112 764.458 -740.172C869.57 -758.233 957.603 -739.337 1003.7 -679.263C1049.79 -619.19 1045.26 -529.266 1000.61 -432.41C955.964 -335.56 871.215 -231.811 756.943 -144.128C642.672 -56.4442 520.524 -1.43519 415.417 16.6247C310.305 34.6857 222.272 15.7893 176.176 -44.2841Z" stroke="#3F83F8" stroke-width="0.25"/>
<path d="M271.625 -775.768C331.699 -821.864 421.623 -817.332 518.479 -772.682C615.329 -728.034 719.078 -643.285 806.762 -529.013C894.446 -414.742 949.455 -292.594 967.515 -187.488C985.576 -82.3757 966.679 5.65686 906.606 51.7528C846.532 97.8488 756.609 93.3167 659.752 48.6661C562.902 4.01815 459.153 -80.7309 371.469 -195.002C283.786 -309.274 228.777 -431.422 210.717 -536.528C192.656 -641.64 211.552 -729.672 271.625 -775.768Z" stroke="#3F83F8" stroke-width="0.25"/>
<path d="M432.285 -859.505C504.501 -882.274 587.451 -847.26 663.195 -772.175C738.934 -697.095 807.44 -581.973 850.753 -444.603C894.065 -307.234 903.98 -173.639 885.002 -68.6944C866.023 36.2561 818.158 112.517 745.941 135.286C673.725 158.056 590.775 123.042 515.031 47.9569C439.292 -27.1232 370.786 -142.245 327.473 -279.614C284.161 -416.984 274.246 -550.58 293.224 -655.524C312.203 -760.474 360.068 -836.735 432.285 -859.505Z" stroke="#3F83F8" stroke-width="0.25"/>
<path d="M1087.01 -519.629C1109.78 -447.413 1074.77 -364.462 999.682 -288.719C924.602 -212.98 809.48 -144.475 672.11 -101.162C534.74 -57.8499 401.144 -47.9343 296.199 -66.9119C191.249 -85.8906 114.988 -133.757 92.2184 -205.973C69.4487 -278.189 104.463 -361.14 179.548 -436.883C254.628 -512.622 369.751 -581.128 507.121 -624.441C644.49 -667.753 778.086 -677.668 883.03 -658.69C987.981 -639.711 1064.24 -591.846 1087.01 -519.629Z" stroke="#3F83F8" stroke-width="0.25"/>
<path d="M126.843 -602.524C161.808 -669.689 245.221 -703.585 351.873 -704.051C458.519 -704.517 588.363 -671.554 716.125 -605.046C843.887 -538.538 945.364 -451.082 1006.15 -363.456C1066.94 -275.825 1087.02 -188.054 1052.06 -120.888C1017.09 -53.7231 933.679 -19.8275 827.027 -19.3616C720.382 -18.8957 590.537 -51.8581 462.775 -118.367C335.014 -184.875 233.536 -272.331 172.749 -359.957C111.958 -447.588 91.8794 -535.358 126.843 -602.524Z" stroke="#3F83F8" stroke-width="0.25"/>
<path d="M830.133 -825.157C897.299 -790.193 931.194 -706.779 931.66 -600.127C932.126 -493.482 899.164 -363.638 832.655 -235.876C766.147 -108.115 678.69 -6.63731 591.064 54.1502C503.433 114.941 415.663 135.02 348.497 100.056C281.332 65.0917 247.436 -18.3222 246.97 -124.974C246.504 -231.619 279.467 -361.464 345.975 -489.225C412.484 -616.987 499.94 -718.464 587.566 -779.251C675.197 -840.043 762.968 -860.121 830.133 -825.157Z" stroke="#3F83F8" stroke-width="0.25"/>
<path d="M634.774 -881.799C710.207 -875.199 773.445 -811.106 814.689 -712.751C855.931 -614.402 875.166 -481.827 862.613 -338.339C850.059 -194.852 808.095 -67.6312 750.402 22.0621C692.704 111.761 619.298 163.899 543.865 157.3C468.432 150.7 405.195 86.6072 363.951 -11.7479C322.709 -110.097 303.473 -242.671 316.027 -386.159C328.58 -529.647 370.545 -656.868 428.239 -746.561C485.936 -836.26 559.342 -888.398 634.774 -881.799Z" stroke="#3F83F8" stroke-width="0.25"/>
<path d="M190.439 -26.5498C141.767 -84.5554 142.372 -174.591 182.755 -273.303C223.136 -372.008 303.279 -479.355 413.617 -571.939C523.955 -664.524 643.588 -724.808 747.806 -747.436C852.031 -770.065 940.804 -755.026 989.476 -697.021C1038.15 -639.015 1037.54 -548.979 997.16 -450.268C956.779 -351.562 876.636 -244.216 766.298 -151.631C655.96 -59.0466 536.328 1.23811 432.109 23.8655C327.885 46.4942 239.112 31.4557 190.439 -26.5498Z" stroke="#3F83F8" stroke-width="0.25"/>
<path d="M253.891 -761.502C311.896 -810.174 401.932 -809.569 500.644 -769.186C599.35 -728.805 706.696 -648.662 799.281 -538.324C891.866 -427.986 952.15 -308.354 974.778 -204.136C997.407 -99.9112 982.368 -11.1383 924.363 37.5342C866.357 86.2066 776.321 85.6013 677.609 45.218C578.904 4.83708 471.557 -75.3058 378.972 -185.644C286.388 -295.982 226.103 -415.614 203.475 -519.832C180.846 -624.057 195.885 -712.829 253.891 -761.502Z" stroke="#3F83F8" stroke-width="0.25"/>
<path d="M410.744 -852.167C481.899 -878.065 566.297 -846.702 645.244 -774.992C724.186 -703.287 797.649 -591.263 846.912 -455.913C896.175 -320.564 911.907 -187.528 897.525 -81.8563C883.143 23.8223 838.649 102.098 767.495 127.996C696.34 153.894 611.941 122.531 532.994 50.822C454.052 -20.883 380.59 -132.907 331.327 -268.256C282.064 -403.606 266.331 -536.642 280.713 -642.314C295.096 -747.993 339.59 -826.268 410.744 -852.167Z" stroke="#3F83F8" stroke-width="0.25"/>
<path d="M1079.67 -541.173C1105.57 -470.019 1074.21 -385.62 1002.5 -306.673C930.794 -227.732 818.769 -154.27 683.42 -105.007C548.07 -55.7438 415.033 -40.0103 309.361 -54.3922C203.682 -68.775 125.406 -113.269 99.5082 -184.423C73.6101 -255.577 104.973 -339.977 176.682 -418.923C248.387 -497.865 360.412 -571.328 495.762 -620.591C631.112 -669.854 764.148 -685.586 869.82 -671.204C975.499 -656.822 1053.77 -612.328 1079.67 -541.173Z" stroke="#3F83F8" stroke-width="0.25"/>
<path d="M116.803 -582.107C148.804 -650.734 230.66 -688.236 337.19 -693.354C443.713 -698.471 574.872 -671.204 705.413 -610.331C835.954 -549.459 941.15 -466.513 1005.7 -381.622C1070.26 -296.726 1094.15 -209.914 1062.14 -141.288C1030.14 -72.6613 948.287 -35.1595 841.757 -30.0419C735.233 -24.9247 604.075 -52.192 473.533 -113.064C342.992 -173.936 237.797 -256.883 173.245 -341.774C108.689 -426.67 84.8017 -513.481 116.803 -582.107Z" stroke="#3F83F8" stroke-width="0.25"/>
<path d="M809.712 -835.205C878.339 -803.204 915.841 -721.348 920.958 -614.818C926.075 -508.295 898.808 -377.136 837.936 -246.595C777.063 -116.054 694.117 -10.8587 609.226 53.6931C524.329 118.249 437.518 142.137 368.892 110.136C300.265 78.1345 262.763 -3.72151 257.645 -110.251C252.528 -216.775 279.796 -347.934 340.668 -478.474C401.54 -609.015 484.487 -714.211 569.378 -778.763C654.274 -843.318 741.085 -867.206 809.712 -835.205Z" stroke="#3F83F8" stroke-width="0.25"/>
<path d="M612.069 -883.272C687.718 -879.969 753.691 -818.695 799.186 -722.233C844.679 -625.776 869.678 -494.166 863.396 -350.267C857.113 -206.369 820.738 -77.4392 767.012 14.6853C713.282 106.815 642.22 162.106 566.571 158.803C490.922 155.5 424.95 94.2266 379.454 -2.23582C333.962 -98.6922 308.961 -230.302 315.244 -374.2C321.527 -518.099 357.903 -647.029 411.629 -739.154C465.358 -831.284 536.42 -886.574 612.069 -883.272Z" stroke="#3F83F8" stroke-width="0.25"/>
<path d="M205.462 -9.45547C154.305 -65.2828 150.983 -155.259 187.022 -255.638C223.059 -356.011 298.443 -466.752 404.638 -564.061C510.832 -661.37 627.721 -726.816 730.854 -753.967C833.992 -781.121 923.336 -769.969 974.493 -714.142C1025.65 -658.314 1028.97 -568.338 992.933 -467.959C956.896 -367.586 881.511 -256.846 775.317 -159.536C669.122 -62.227 552.233 3.2186 449.101 30.3704C345.963 57.5238 256.618 46.3718 205.462 -9.45547Z" stroke="#3F83F8" stroke-width="0.25"/>
<path d="M236.795 -746.475C292.622 -797.631 382.598 -800.954 482.978 -764.915C583.351 -728.878 694.091 -653.494 791.401 -547.299C888.71 -441.105 954.156 -324.216 981.308 -221.084C1008.46 -117.946 997.309 -28.6014 941.482 22.5549C885.654 73.7111 795.678 77.0337 695.299 40.9946C594.925 4.95756 484.185 -70.4266 386.876 -176.621C289.566 -282.815 224.121 -399.704 196.969 -502.836C169.815 -605.975 180.967 -695.319 236.795 -746.475Z" stroke="#3F83F8" stroke-width="0.25"/>
</svg>
