<svg width="1440" height="1024" viewBox="0 0 1440 1024" fill="none" xmlns="http://www.w3.org/2000/svg" xmlns:xlink="http://www.w3.org/1999/xlink">
<g clip-path="url(#clip0_133_3080)">
<rect width="1440" height="1024" fill="black"/>
<path d="M-1.5 -65H365.5H469.5C744.509 -78.3526 532.598 -65.8878 861 -88H1129.5L1486.5 -65V962H815.5L-1.5 974.5V846L187 837L201.5 803.5H426.5L605 793L628 700.5L598.5 574H785L804 525L858 540.5L897.5 554L958.5 564L1022 525L1033 481.5L1003 462.5V434.5H897.5L815.5 442L757 424.5H628L598.5 404.5L614 368.5L637.5 331.5L605 281.5L-1.5 274.5V-65Z"/>
<path d="M718.095 -890.819C793.816 -890.819 862.399 -832.481 912.059 -738.095C961.715 -643.715 992.432 -513.32 992.432 -369.285C992.432 -225.249 961.715 -94.8552 912.059 -0.474976C862.399 93.9112 793.816 152.249 718.095 152.249C642.374 152.249 573.792 93.9111 524.132 -0.474976C474.475 -94.8552 443.758 -225.249 443.758 -369.285C443.758 -513.321 474.475 -643.715 524.132 -738.095C573.792 -832.481 642.374 -890.819 718.095 -890.819Z" stroke="#3F83F8" stroke-width="0.25"/>
<path d="M349.515 -737.58C403.058 -791.122 492.804 -798.366 594.66 -766.74C696.509 -735.116 810.432 -664.634 912.281 -562.785C1014.13 -460.936 1084.61 -347.013 1116.24 -245.164C1147.86 -143.308 1140.62 -53.5623 1087.08 -0.0194879C1033.53 53.5233 943.787 60.7674 841.932 29.141C740.082 -2.48345 626.159 -72.9654 524.31 -174.814C422.461 -276.663 351.979 -390.586 320.354 -492.435C288.728 -594.291 295.972 -684.037 349.515 -737.58Z" stroke="#3F83F8" stroke-width="0.25"/>
<path d="M1087.2 -738.426C1140.74 -684.883 1147.99 -595.137 1116.36 -493.281C1084.74 -391.432 1014.26 -277.509 912.406 -175.66C810.557 -73.8114 696.634 -3.32948 594.785 28.295C492.929 59.9214 403.183 52.6772 349.64 -0.865517C296.097 -54.4083 288.853 -144.154 320.48 -246.01C352.104 -347.859 422.586 -461.782 524.435 -563.631C626.284 -665.48 740.207 -735.962 842.057 -767.586C943.913 -799.212 1033.66 -791.968 1087.2 -738.426Z" stroke="#3F83F8" stroke-width="0.25"/>
<path d="M236.708 -568.109C265.685 -638.066 345.827 -679.104 452.032 -688.863C558.231 -698.622 690.455 -677.102 823.527 -621.981C956.599 -566.861 1065.31 -488.582 1133.51 -406.588C1201.7 -324.588 1229.36 -238.902 1200.38 -168.945C1171.4 -98.9878 1091.26 -57.9507 985.054 -48.1911C878.855 -38.4322 746.63 -59.9529 613.558 -115.073C480.486 -170.193 371.773 -248.472 303.579 -330.466C235.382 -412.466 207.731 -498.152 236.708 -568.109Z" stroke="#3F83F8" stroke-width="0.25"/>
<path d="M917.917 -851.191C987.874 -822.214 1028.91 -742.072 1038.67 -635.867C1048.43 -529.668 1026.91 -397.444 971.789 -264.372C916.668 -131.301 838.39 -22.5871 756.395 45.6062C674.395 113.803 588.709 141.455 518.752 112.478C448.795 83.501 407.758 3.3587 397.998 -102.846C388.239 -209.045 409.76 -341.269 464.88 -474.34C520 -607.412 598.279 -716.126 680.274 -784.319C762.274 -852.517 847.96 -880.168 917.917 -851.191Z" stroke="#3F83F8" stroke-width="0.25"/>
<path d="M236.968 -169.14C207.991 -239.097 235.643 -324.784 303.84 -406.783C372.034 -488.778 480.747 -567.056 613.819 -622.177C746.891 -677.297 879.115 -698.817 985.314 -689.059C1091.52 -679.299 1171.66 -638.262 1200.64 -568.305C1229.62 -498.348 1201.96 -412.661 1133.77 -330.662C1065.57 -248.667 956.86 -170.388 823.788 -115.268C690.716 -60.1481 558.492 -38.6278 452.293 -48.3866C346.088 -58.1462 265.946 -99.1832 236.968 -169.14Z" stroke="#3F83F8" stroke-width="0.25"/>
<path d="M518.488 -850.996C588.445 -879.973 674.131 -852.321 756.131 -784.124C838.126 -715.931 916.404 -607.217 971.525 -474.145C1026.64 -341.074 1048.17 -208.85 1038.41 -102.651C1028.65 3.55386 987.61 83.6962 917.653 112.673C847.696 141.65 762.009 113.999 680.01 45.8013C598.015 -22.3919 519.736 -131.105 464.616 -264.177C409.496 -397.249 387.975 -529.473 397.734 -635.671C407.494 -741.877 448.531 -822.019 518.488 -850.996Z" stroke="#3F83F8" stroke-width="0.25"/>
<path d="M695.346 -890.297C770.995 -893.6 842.057 -838.31 895.787 -746.179C949.513 -654.055 985.888 -525.125 992.171 -381.226C998.453 -237.327 973.454 -105.718 927.961 -9.26141C882.466 87.201 816.493 148.475 740.844 151.777C665.195 155.08 594.133 99.7899 540.404 7.65969C486.678 -84.4648 450.302 -213.394 444.019 -357.293C437.736 -501.192 462.737 -632.802 508.229 -729.258C553.725 -825.721 619.697 -886.994 695.346 -890.297Z" stroke="#3F83F8" stroke-width="0.25"/>
<path d="M333.801 -721.127C384.957 -776.954 474.301 -788.106 577.44 -760.952C680.572 -733.801 797.461 -668.355 903.656 -571.046C1009.85 -473.736 1085.23 -362.996 1121.27 -262.623C1157.31 -162.244 1153.99 -72.2678 1102.83 -16.4404C1051.68 39.3869 962.331 50.5388 859.192 23.3854C756.06 -3.76637 639.171 -69.212 532.977 -166.521C426.782 -263.831 351.398 -374.571 315.361 -474.944C279.322 -575.323 282.644 -665.299 333.801 -721.127Z" stroke="#3F83F8" stroke-width="0.25"/>
<path d="M1070.75 -754.149C1126.58 -702.993 1137.73 -613.648 1110.57 -510.51C1083.42 -407.378 1017.98 -290.489 920.667 -184.295C823.357 -78.1003 712.617 -2.71618 612.244 33.3208C511.865 69.36 421.888 66.0373 366.061 14.8811C310.233 -36.2752 299.081 -125.62 326.235 -228.758C353.387 -331.89 418.832 -448.779 516.142 -554.973C613.451 -661.168 724.192 -736.552 824.565 -772.589C924.944 -808.628 1014.92 -805.305 1070.75 -754.149Z" stroke="#3F83F8" stroke-width="0.25"/>
<path d="M228.493 -546.897C254.391 -618.051 332.667 -662.545 438.345 -676.928C544.017 -691.31 677.053 -675.576 812.403 -626.313C947.753 -577.05 1059.78 -503.589 1131.48 -424.647C1203.19 -345.7 1234.56 -261.301 1208.66 -190.147C1182.76 -118.992 1104.48 -74.4986 998.805 -60.1157C893.132 -45.7338 760.095 -61.4664 624.746 -110.73C489.396 -159.993 377.372 -233.455 305.667 -312.397C233.957 -391.344 202.594 -475.743 228.493 -546.897Z" stroke="#3F83F8" stroke-width="0.25"/>
<path d="M896.706 -859.423C967.86 -833.525 1012.35 -755.249 1026.74 -649.571C1041.12 -543.899 1025.39 -410.862 976.123 -275.513C926.86 -140.163 853.397 -28.1396 774.456 43.5653C695.509 115.275 611.11 146.638 539.955 120.739C468.801 94.8413 424.307 16.5656 409.925 -89.1129C395.543 -194.785 411.275 -327.821 460.538 -463.17C509.801 -598.519 583.264 -710.544 662.206 -782.249C741.153 -853.958 825.551 -885.321 896.706 -859.423Z" stroke="#3F83F8" stroke-width="0.25"/>
<path d="M246.156 -148.319C214.155 -216.945 238.043 -303.756 302.598 -388.652C367.15 -473.543 472.346 -556.489 602.887 -617.361C733.428 -678.233 864.588 -705.502 971.111 -700.385C1077.64 -695.267 1159.5 -657.765 1191.5 -589.138C1223.5 -520.512 1199.61 -433.701 1135.06 -348.805C1070.5 -263.914 965.308 -180.967 834.767 -120.095C704.226 -59.2226 573.067 -31.9552 466.543 -37.0724C360.013 -42.1901 278.157 -79.6923 246.156 -148.319Z" stroke="#3F83F8" stroke-width="0.25"/>
<path d="M497.665 -841.805C566.291 -873.806 653.103 -849.919 737.999 -785.363C822.89 -720.811 905.836 -615.615 966.709 -485.075C1027.58 -354.534 1054.85 -223.375 1049.73 -116.851C1044.61 -10.3216 1007.11 71.5344 938.485 103.535C869.859 135.536 783.047 111.649 698.151 47.093C613.26 -17.4589 530.314 -122.654 469.441 -253.195C408.569 -383.736 381.301 -514.895 386.419 -621.418C391.536 -727.948 429.038 -809.804 497.665 -841.805Z" stroke="#3F83F8" stroke-width="0.25"/>
<path d="M672.64 -888.783C748.073 -895.383 821.48 -843.245 879.177 -753.546C936.87 -663.853 978.834 -536.632 991.388 -393.144C1003.94 -249.656 984.706 -117.082 943.465 -18.7328C902.22 79.6224 838.982 143.715 763.55 150.315C688.117 156.914 614.711 104.776 557.014 15.0772C499.321 -74.6161 457.355 -201.836 444.802 -345.324C432.248 -488.812 451.484 -621.387 492.726 -719.736C533.97 -818.091 597.207 -882.184 672.64 -888.783Z" stroke="#3F83F8" stroke-width="0.25"/>
<path d="M318.819 -704.004C367.491 -762.009 456.264 -777.048 560.489 -754.419C664.707 -731.792 784.34 -671.507 894.678 -578.922C1005.02 -486.338 1085.16 -378.991 1125.54 -280.286C1165.92 -181.574 1166.53 -91.5384 1117.86 -33.5328C1069.18 24.4728 980.41 39.5113 876.186 16.8825C771.967 -5.74489 652.335 -66.0296 541.997 -158.614C431.659 -251.199 351.516 -358.545 311.135 -457.251C270.751 -555.962 270.146 -645.998 318.819 -704.004Z" stroke="#3F83F8" stroke-width="0.25"/>
<path d="M1053.62 -769.14C1111.63 -720.467 1126.67 -631.695 1104.04 -527.47C1081.41 -423.252 1021.13 -303.62 928.543 -193.282C835.958 -82.9438 728.611 -2.80095 629.905 37.58C531.194 77.9633 441.158 78.5686 383.152 29.8961C325.146 -18.7763 310.108 -107.549 332.737 -211.774C355.364 -315.992 415.649 -435.624 508.234 -545.962C600.818 -656.3 708.165 -736.443 806.871 -776.824C905.583 -817.207 995.618 -817.812 1053.62 -769.14Z" stroke="#3F83F8" stroke-width="0.25"/>
<path d="M221.211 -525.347C243.981 -597.563 320.241 -645.429 425.192 -664.407C530.136 -683.385 663.732 -673.47 801.102 -630.157C938.471 -586.845 1053.59 -518.34 1128.67 -442.601C1203.76 -366.857 1238.77 -283.906 1216 -211.69C1193.23 -139.474 1116.97 -91.6081 1012.02 -72.6292C907.079 -53.6517 773.482 -63.5663 636.112 -106.879C498.743 -150.191 383.62 -218.697 308.54 -294.436C233.456 -370.18 198.441 -453.13 221.211 -525.347Z" stroke="#3F83F8" stroke-width="0.25"/>
<path d="M875.156 -866.722C947.372 -843.953 995.238 -767.692 1014.22 -662.741C1033.19 -557.797 1023.28 -424.201 979.967 -286.832C936.655 -149.462 868.149 -34.3409 792.41 40.7391C716.666 115.824 633.716 150.838 561.499 128.069C489.283 105.299 441.417 29.0384 422.438 -75.9122C403.461 -180.856 413.375 -314.452 456.688 -451.821C500 -589.19 568.506 -704.313 644.245 -779.393C719.989 -854.477 802.94 -889.492 875.156 -866.722Z" stroke="#3F83F8" stroke-width="0.25"/>
<path d="M256.243 -127.918C221.279 -195.084 241.357 -282.854 302.148 -370.485C362.936 -458.111 464.413 -545.567 592.175 -612.075C719.936 -678.584 849.781 -711.546 956.426 -711.08C1063.08 -710.614 1146.49 -676.719 1181.46 -609.554C1216.42 -542.388 1196.34 -454.617 1135.55 -366.986C1074.76 -279.36 973.286 -191.904 845.524 -125.396C717.763 -58.8876 587.918 -25.9251 481.273 -26.3911C374.621 -26.8571 291.207 -60.7531 256.243 -127.918Z" stroke="#3F83F8" stroke-width="0.25"/>
<path d="M477.264 -831.715C544.429 -866.679 632.199 -846.601 719.831 -785.81C807.457 -725.022 894.913 -623.545 961.421 -495.784C1027.93 -368.022 1060.89 -238.177 1060.43 -131.532C1059.96 -24.8806 1026.06 58.5333 958.899 93.4972C891.734 128.461 803.964 108.383 716.332 47.5918C628.706 -13.1958 541.25 -114.673 474.742 -242.434C408.233 -370.196 375.27 -500.041 375.736 -606.686C376.202 -713.338 410.098 -796.751 477.264 -831.715Z" stroke="#3F83F8" stroke-width="0.25"/>
<path d="M650.022 -886.281C725.095 -896.165 800.706 -847.278 862.261 -760.181C923.812 -673.09 971.285 -547.82 990.086 -405.017C1008.89 -262.213 995.452 -128.926 958.54 -28.8716C921.625 71.1889 861.243 137.979 786.17 147.863C711.097 157.746 635.487 108.86 573.932 21.7629C512.381 -65.3285 464.907 -190.597 446.106 -333.401C427.306 -476.204 440.74 -609.492 477.653 -709.547C514.568 -809.607 574.949 -876.397 650.022 -886.281Z" stroke="#3F83F8" stroke-width="0.25"/>
<path d="M304.597 -686.244C350.693 -746.317 438.726 -765.214 543.838 -747.153C648.944 -729.093 771.092 -674.084 885.364 -586.4C999.636 -498.717 1084.38 -394.968 1129.03 -298.118C1173.68 -201.262 1178.22 -111.338 1132.12 -51.2645C1086.02 8.80892 997.991 27.7053 892.878 9.64432C787.772 -8.4156 665.624 -63.4246 551.352 -151.108C437.081 -238.792 352.332 -342.54 307.684 -439.39C263.033 -536.247 258.501 -626.17 304.597 -686.244Z" stroke="#3F83F8" stroke-width="0.25"/>
<path d="M1035.86 -783.37C1095.94 -737.274 1114.83 -649.241 1096.77 -544.129C1078.71 -439.023 1023.7 -316.875 936.018 -202.603C848.335 -88.3321 744.586 -3.58312 647.735 41.0648C550.879 85.7154 460.955 90.2475 400.882 44.1516C340.808 -1.94438 321.912 -89.9769 339.973 -195.089C358.033 -300.195 413.042 -422.343 500.726 -536.615C588.409 -650.886 692.158 -735.635 789.009 -780.283C885.865 -824.934 975.789 -829.466 1035.86 -783.37Z" stroke="#3F83F8" stroke-width="0.25"/>
<path d="M214.875 -503.499C234.473 -576.64 308.574 -627.787 412.596 -651.325C516.613 -674.862 650.514 -670.784 789.642 -633.504C928.77 -596.225 1046.77 -532.807 1125.08 -460.415C1203.4 -388.018 1242 -306.674 1222.4 -233.533C1202.81 -160.393 1128.7 -109.246 1024.68 -85.7073C920.665 -62.1702 786.763 -66.248 647.635 -103.527C508.507 -140.807 390.506 -204.226 312.194 -276.618C233.877 -349.014 195.277 -430.358 214.875 -503.499Z" stroke="#3F83F8" stroke-width="0.25"/>
<path d="M853.307 -873.074C926.448 -853.476 977.595 -779.376 1001.13 -675.353C1024.67 -571.337 1020.59 -437.436 983.313 -298.308C946.034 -159.18 882.616 -41.1793 810.224 37.133C737.827 115.45 656.482 154.049 583.341 134.451C510.2 114.853 459.054 40.7531 435.515 -63.2697C411.978 -167.286 416.056 -301.187 453.335 -440.315C490.614 -579.443 554.034 -697.443 626.426 -775.756C698.822 -854.073 780.166 -892.672 853.307 -873.074Z" stroke="#3F83F8" stroke-width="0.25"/>
<path d="M267.209 -107.977C229.349 -173.553 245.579 -262.116 302.49 -352.315C359.398 -442.509 456.964 -534.308 581.703 -606.326C706.442 -678.344 834.725 -716.939 941.289 -721.126C1047.86 -725.312 1132.67 -695.087 1170.53 -629.511C1208.39 -563.935 1192.16 -475.372 1135.25 -385.172C1078.34 -294.978 980.779 -203.179 856.04 -131.161C731.301 -59.1432 603.018 -20.5484 496.454 -16.362C389.883 -12.1755 305.07 -42.4008 267.209 -107.977Z" stroke="#3F83F8" stroke-width="0.25"/>
<path d="M457.32 -820.745C522.896 -858.605 611.459 -842.375 701.659 -785.464C791.853 -728.556 883.652 -630.99 955.67 -506.252C1027.69 -381.513 1066.28 -253.23 1070.47 -146.666C1074.66 -40.0953 1044.43 44.7178 978.855 82.5782C913.278 120.439 824.715 104.208 734.516 47.297C644.322 -9.61045 552.523 -107.176 480.505 -231.915C408.486 -356.654 369.891 -484.937 365.705 -591.501C361.518 -698.072 391.744 -782.885 457.32 -820.745Z" stroke="#3F83F8" stroke-width="0.25"/>
<path d="M627.536 -882.794C702.107 -895.943 779.778 -850.401 845.073 -766.072C910.365 -681.749 963.257 -558.669 988.269 -416.821C1013.28 -274.974 1005.67 -141.227 973.16 -39.6583C940.645 61.9172 883.234 131.278 808.663 144.427C734.092 157.575 656.422 112.033 591.127 27.7044C525.836 -56.6193 472.942 -179.698 447.931 -321.545C422.919 -463.393 430.527 -597.14 463.04 -698.71C495.555 -800.285 552.965 -869.645 627.536 -882.794Z" stroke="#3F83F8" stroke-width="0.25"/>
<path d="M291.165 -667.88C334.597 -729.907 421.722 -752.625 527.522 -739.166C633.316 -725.708 757.747 -676.08 875.735 -593.464C993.722 -510.848 1082.92 -410.895 1131.75 -316.085C1180.58 -221.268 1189.03 -131.628 1145.6 -69.6011C1102.17 -7.5741 1015.04 15.1443 909.241 1.68536C803.447 -11.7727 679.015 -61.4013 561.028 -144.017C443.04 -226.633 353.847 -326.586 305.016 -421.396C256.183 -516.213 247.733 -605.853 291.165 -667.88Z" stroke="#3F83F8" stroke-width="0.25"/>
<path d="M1017.5 -796.811C1079.52 -753.379 1102.24 -666.255 1088.78 -560.455C1075.33 -454.661 1025.7 -330.23 943.081 -212.242C860.466 -94.2549 760.512 -5.06109 665.701 43.7689C570.885 92.6018 481.245 101.052 419.218 57.6203C357.191 14.1886 334.472 -72.9359 347.931 -178.736C361.389 -284.53 411.018 -408.961 493.634 -526.948C576.25 -644.936 676.203 -734.129 771.014 -782.959C865.83 -831.792 955.471 -840.243 1017.5 -796.811Z" stroke="#3F83F8" stroke-width="0.25"/>
<path d="M209.5 -481.396C225.889 -555.321 297.688 -609.652 400.585 -637.705C503.476 -665.757 637.427 -667.523 778.049 -636.348C918.671 -605.173 1039.33 -546.962 1120.72 -478.055C1202.12 -409.144 1244.23 -329.56 1227.84 -255.634C1211.46 -181.708 1139.66 -127.378 1036.76 -99.3246C933.869 -71.2727 799.916 -69.506 659.294 -100.681C518.672 -131.856 398.018 -190.068 316.622 -258.975C235.222 -327.886 193.111 -407.47 209.5 -481.396Z" stroke="#3F83F8" stroke-width="0.25"/>
<path d="M831.203 -878.467C905.13 -862.078 959.459 -790.28 987.513 -687.382C1015.57 -584.492 1017.33 -450.54 986.157 -309.918C954.981 -169.297 896.77 -48.6425 827.863 32.753C758.951 114.153 679.368 156.264 605.442 139.875C531.516 123.486 477.186 51.6877 449.132 -51.2094C421.08 -154.1 419.314 -288.051 450.489 -428.673C481.664 -569.294 539.875 -689.949 608.783 -771.345C677.694 -852.745 757.277 -894.856 831.203 -878.467Z" stroke="#3F83F8" stroke-width="0.25"/>
<path d="M279.037 -88.5327C238.352 -152.395 250.704 -241.582 303.626 -334.178C356.546 -426.768 450.014 -522.735 571.493 -600.126C692.972 -677.516 819.45 -721.67 925.73 -730.501C1032.02 -739.332 1118.07 -712.835 1158.75 -648.972C1199.44 -585.11 1187.09 -495.924 1134.16 -403.327C1081.24 -310.737 987.775 -214.77 866.296 -137.379C744.817 -59.9888 618.339 -15.835 512.059 -7.00439C405.772 1.82669 319.722 -24.6704 279.037 -88.5327Z" stroke="#3F83F8" stroke-width="0.25"/>
<path d="M437.876 -808.915C501.739 -849.6 590.925 -837.248 683.521 -784.325C776.112 -731.406 872.079 -637.937 949.47 -516.459C1026.86 -394.98 1071.01 -268.502 1079.85 -162.222C1088.68 -55.936 1062.18 30.1147 998.317 70.7995C934.454 111.484 845.268 99.132 752.672 46.2098C660.081 -6.70929 564.114 -100.178 486.723 -221.657C409.332 -343.135 365.178 -469.613 356.348 -575.893C347.517 -682.18 374.014 -768.23 437.876 -808.915Z" stroke="#3F83F8" stroke-width="0.25"/>
<path d="M605.222 -878.33C679.149 -894.719 758.732 -852.608 827.643 -771.207C896.55 -689.812 954.762 -569.157 985.937 -428.535C1017.11 -287.913 1015.35 -153.962 987.294 -51.0717C959.24 51.8255 904.91 123.624 830.984 140.013C757.058 156.402 677.475 114.291 608.563 32.8907C539.656 -48.5047 481.444 -169.159 450.269 -309.78C419.094 -450.402 420.861 -584.354 448.913 -687.245C476.966 -790.142 531.296 -861.94 605.222 -878.33Z" stroke="#3F83F8" stroke-width="0.25"/>
<path d="M1227.84 -482.685C1244.22 -408.759 1202.11 -329.175 1120.71 -260.264C1039.32 -191.357 918.663 -133.146 778.041 -101.971C637.419 -70.7962 503.467 -72.562 400.576 -100.614C297.679 -128.667 225.881 -182.998 209.491 -256.924C193.102 -330.85 235.213 -410.433 316.614 -479.344C398.009 -548.251 518.665 -606.463 659.287 -637.638C799.909 -668.813 933.86 -667.046 1036.75 -638.995C1139.65 -610.941 1211.45 -556.611 1227.84 -482.685Z" stroke="#3F83F8" stroke-width="0.25"/>
<path d="M278.546 -648.948C319.231 -712.81 405.282 -739.307 511.568 -730.476C617.849 -721.645 744.326 -677.492 865.805 -600.101C987.284 -522.711 1080.75 -426.743 1133.67 -334.153C1186.59 -241.557 1198.95 -152.371 1158.26 -88.5081C1117.58 -24.6457 1031.53 1.85133 925.239 -6.97982C818.959 -15.8105 692.482 -59.9642 571.003 -137.355C449.524 -214.745 356.055 -310.713 303.136 -403.303C250.213 -495.899 237.861 -585.085 278.546 -648.948Z" stroke="#3F83F8" stroke-width="0.25"/>
<path d="M998.564 -809.438C1062.43 -768.753 1088.92 -682.703 1080.09 -576.416C1071.26 -470.136 1027.11 -343.659 949.717 -222.18C872.326 -100.701 776.359 -7.23229 683.768 45.6868C591.172 98.609 501.985 110.961 438.123 70.2765C374.261 29.5918 347.764 -56.4589 356.595 -162.745C365.425 -269.025 409.579 -395.503 486.97 -516.982C564.361 -638.46 660.328 -731.929 752.919 -784.848C845.515 -837.771 934.701 -850.123 998.564 -809.438Z" stroke="#3F83F8" stroke-width="0.25"/>
<path d="M808.885 -882.89C883.456 -869.742 940.867 -800.381 973.382 -698.806C1005.9 -597.236 1013.5 -463.489 988.491 -321.642C963.479 -179.794 910.586 -56.7154 845.295 27.6083C780 111.937 702.329 157.479 627.758 144.33C553.187 131.181 495.777 61.8211 463.262 -39.7544C430.749 -141.324 423.141 -275.07 448.152 -416.918C473.164 -558.765 526.057 -681.845 591.349 -766.168C656.644 -850.497 734.314 -896.039 808.885 -882.89Z" stroke="#3F83F8" stroke-width="0.25"/>
<path d="M291.7 -69.623C248.269 -131.65 256.719 -221.29 305.552 -316.107C354.382 -410.917 443.575 -510.87 561.563 -593.486C679.55 -676.101 803.982 -725.73 909.776 -739.188C1015.58 -752.647 1102.7 -729.929 1146.13 -667.902C1189.56 -605.875 1181.11 -516.235 1132.28 -421.418C1083.45 -326.608 994.257 -226.654 876.27 -144.039C758.282 -61.4232 633.851 -11.7946 528.057 1.66348C422.257 15.1223 335.132 -7.59604 291.7 -69.623Z" stroke="#3F83F8" stroke-width="0.25"/>
<path d="M418.966 -796.248C480.993 -839.68 570.633 -831.229 665.45 -782.397C760.261 -733.566 860.214 -644.373 942.83 -526.385C1025.45 -408.398 1075.07 -283.967 1088.53 -178.173C1101.99 -72.373 1079.27 14.7515 1017.25 58.1832C955.219 101.615 865.579 93.1647 770.762 44.3318C675.951 -4.49822 575.998 -93.692 493.382 -211.679C410.766 -329.667 361.138 -454.098 347.68 -559.892C334.221 -665.692 356.939 -752.816 418.966 -796.248Z" stroke="#3F83F8" stroke-width="0.25"/>
<path d="M583.124 -872.896C656.265 -892.494 737.61 -853.895 810.007 -775.578C882.399 -697.266 945.817 -579.265 983.097 -440.137C1020.38 -301.009 1024.45 -167.108 1000.92 -63.0918C977.379 40.931 926.231 115.031 853.09 134.629C779.949 154.227 698.605 115.628 626.209 37.3108C553.817 -41.0015 490.398 -159.002 453.118 -298.13C415.839 -437.258 411.761 -571.159 435.298 -675.175C458.837 -779.198 509.983 -853.298 583.124 -872.896Z" stroke="#3F83F8" stroke-width="0.25"/>
<path d="M1222.4 -504.786C1242 -431.645 1203.4 -350.301 1125.08 -277.905C1046.77 -205.513 928.771 -142.094 789.643 -104.815C650.515 -67.5359 516.613 -63.4571 412.597 -86.9943C308.574 -110.533 234.474 -161.68 214.875 -234.82C195.277 -307.961 233.877 -389.305 312.194 -461.702C390.506 -534.094 508.508 -597.513 647.636 -634.792C786.764 -672.072 920.665 -676.149 1024.68 -652.612C1128.7 -629.074 1202.81 -577.927 1222.4 -504.786Z" stroke="#3F83F8" stroke-width="0.25"/>
<path d="M266.764 -629.484C304.625 -695.06 389.438 -725.285 496.009 -721.099C602.573 -716.912 730.856 -678.317 855.595 -606.3C980.334 -534.282 1077.9 -442.483 1134.81 -352.289C1191.72 -262.089 1207.95 -173.526 1170.09 -107.95C1132.23 -42.3734 1047.42 -12.1485 940.844 -16.3351C834.28 -20.5215 705.997 -59.1163 581.258 -131.134C456.519 -203.152 358.953 -294.951 302.045 -385.145C245.134 -475.345 228.904 -563.907 266.764 -629.484Z" stroke="#3F83F8" stroke-width="0.25"/>
<path d="M979.096 -821.228C1044.67 -783.367 1074.9 -698.555 1070.71 -591.984C1066.52 -485.42 1027.93 -357.137 955.911 -232.398C883.893 -107.659 792.094 -10.0932 701.9 46.8143C611.7 103.725 523.137 119.956 457.561 82.0955C391.985 44.2351 361.76 -40.5779 365.946 -147.148C370.132 -253.712 408.728 -381.996 480.746 -506.734C552.764 -631.473 644.563 -729.039 734.757 -785.947C824.957 -842.858 913.52 -859.088 979.096 -821.228Z" stroke="#3F83F8" stroke-width="0.25"/>
<path d="M786.394 -886.337C861.467 -876.453 921.849 -809.663 958.764 -709.603C995.677 -609.548 1009.11 -476.26 990.31 -333.457C971.51 -190.653 924.036 -65.3844 862.485 21.7069C800.931 108.804 725.32 157.69 650.246 147.807C575.173 137.923 514.792 71.1329 477.877 -28.9276C440.965 -128.982 427.53 -262.269 446.33 -405.073C465.131 -547.877 512.605 -673.146 574.156 -760.237C635.711 -847.334 711.321 -896.221 786.394 -886.337Z" stroke="#3F83F8" stroke-width="0.25"/>
<path d="M305.176 -51.2841C259.08 -111.358 263.612 -201.281 308.263 -298.137C352.911 -394.988 437.66 -498.736 551.932 -586.42C666.203 -674.103 788.351 -729.112 893.458 -747.172C998.57 -765.233 1086.6 -746.337 1132.7 -686.263C1178.79 -626.19 1174.26 -536.266 1129.61 -439.41C1084.96 -342.56 1000.22 -238.811 885.943 -151.128C771.672 -63.4442 649.524 -8.43519 544.417 9.62472C439.305 27.6857 351.272 8.78928 305.176 -51.2841Z" stroke="#3F83F8" stroke-width="0.25"/>
<path d="M400.625 -782.769C460.699 -828.865 550.622 -824.333 647.479 -779.682C744.329 -735.034 848.078 -650.285 935.762 -536.014C1023.45 -421.742 1078.45 -299.594 1096.51 -194.488C1114.58 -89.3759 1095.68 -1.34338 1035.61 44.7526C975.532 90.8485 885.608 86.3164 788.752 41.6659C691.902 -2.9821 588.153 -87.7311 500.469 -202.002C412.785 -316.274 357.776 -438.422 339.716 -543.528C321.655 -648.64 340.552 -736.673 400.625 -782.769Z" stroke="#3F83F8" stroke-width="0.25"/>
<path d="M561.285 -866.505C633.501 -889.274 716.452 -854.26 792.195 -779.175C867.934 -704.095 936.441 -588.973 979.753 -451.603C1023.07 -314.234 1032.98 -180.639 1014 -75.6944C995.024 29.2561 947.158 105.517 874.942 128.286C802.725 151.056 719.775 116.042 644.031 40.9569C568.292 -34.1232 499.786 -149.245 456.473 -286.614C413.161 -423.984 403.246 -557.58 422.224 -662.524C441.203 -767.474 489.068 -843.735 561.285 -866.505Z" stroke="#3F83F8" stroke-width="0.25"/>
<path d="M1216.01 -526.629C1238.78 -454.413 1203.77 -371.462 1128.68 -295.719C1053.6 -219.98 938.479 -151.475 801.11 -108.162C663.74 -64.8499 530.144 -54.9343 425.199 -73.9119C320.249 -92.8906 243.988 -140.757 221.218 -212.973C198.449 -285.189 233.463 -368.14 308.548 -443.883C383.628 -519.622 498.751 -588.128 636.12 -631.441C773.49 -674.753 907.086 -684.668 1012.03 -665.69C1116.98 -646.711 1193.24 -598.846 1216.01 -526.629Z" stroke="#3F83F8" stroke-width="0.25"/>
<path d="M255.843 -609.524C290.808 -676.689 374.221 -710.585 480.873 -711.051C587.519 -711.517 717.363 -678.555 845.125 -612.046C972.887 -545.538 1074.36 -458.082 1135.15 -370.456C1195.94 -282.825 1216.02 -195.054 1181.06 -127.889C1146.09 -60.7234 1062.68 -26.8278 956.027 -26.3618C849.382 -25.8959 719.537 -58.8584 591.775 -125.367C464.014 -191.875 362.536 -279.331 301.749 -366.957C240.958 -454.588 220.879 -542.359 255.843 -609.524Z" stroke="#3F83F8" stroke-width="0.25"/>
<path d="M959.133 -832.157C1026.3 -797.193 1060.19 -713.779 1060.66 -607.127C1061.13 -500.482 1028.16 -370.638 961.655 -242.876C895.147 -115.115 807.691 -13.6373 720.065 47.1502C632.433 107.941 544.663 128.02 477.497 93.0557C410.332 58.0917 376.436 -25.3222 375.97 -131.974C375.504 -238.619 408.467 -368.464 474.975 -496.225C541.484 -623.987 628.94 -725.464 716.566 -786.251C804.197 -847.043 891.968 -867.121 959.133 -832.157Z" stroke="#3F83F8" stroke-width="0.25"/>
<path d="M763.775 -888.799C839.207 -882.199 902.445 -818.106 943.689 -719.751C984.931 -621.402 1004.17 -488.827 991.613 -345.339C979.059 -201.852 937.095 -74.6312 879.402 15.0621C821.705 104.761 748.298 156.899 672.865 150.3C597.432 143.7 534.195 79.6071 492.951 -18.7479C451.709 -117.097 432.473 -249.671 445.027 -393.159C457.58 -536.647 499.545 -663.868 557.239 -753.561C614.936 -843.26 688.342 -895.398 763.775 -888.799Z" stroke="#3F83F8" stroke-width="0.25"/>
<path d="M319.439 -33.5498C270.767 -91.5554 271.372 -181.591 311.755 -280.303C352.136 -379.008 432.279 -486.355 542.617 -578.939C652.955 -671.524 772.588 -731.808 876.806 -754.436C981.031 -777.065 1069.8 -762.026 1118.48 -704.021C1167.15 -646.015 1166.54 -555.979 1126.16 -457.268C1085.78 -358.562 1005.64 -251.216 895.298 -158.631C784.96 -66.0466 665.328 -5.76189 561.109 16.8655C456.885 39.4942 368.112 24.4557 319.439 -33.5498Z" stroke="#3F83F8" stroke-width="0.25"/>
<path d="M382.891 -768.502C440.896 -817.174 530.932 -816.569 629.644 -776.186C728.35 -735.805 835.696 -655.662 928.281 -545.324C1020.87 -434.986 1081.15 -315.354 1103.78 -211.135C1126.41 -106.911 1111.37 -18.138 1053.36 30.5344C995.357 79.2069 905.321 78.6015 806.609 38.2182C707.904 -2.16268 600.557 -82.3055 507.972 -192.643C415.387 -302.981 355.103 -422.614 332.475 -526.832C309.846 -631.056 324.885 -719.829 382.891 -768.502Z" stroke="#3F83F8" stroke-width="0.25"/>
<path d="M539.744 -859.166C610.898 -885.064 695.297 -853.701 774.244 -781.992C853.186 -710.287 926.649 -598.263 975.912 -462.913C1025.17 -327.564 1040.91 -194.528 1026.53 -88.8561C1012.14 16.8225 967.649 95.0982 896.494 120.996C825.34 146.894 740.941 115.532 661.994 43.8222C583.052 -27.8827 509.59 -139.907 460.327 -275.256C411.064 -410.605 395.331 -543.642 409.713 -649.314C424.096 -754.992 468.589 -833.268 539.744 -859.166Z" stroke="#3F83F8" stroke-width="0.25"/>
<path d="M1208.67 -548.173C1234.57 -477.019 1203.21 -392.62 1131.5 -313.673C1059.79 -234.732 947.769 -161.27 812.419 -112.007C677.07 -62.7438 544.033 -47.0103 438.361 -61.3922C332.682 -75.775 254.406 -120.269 228.508 -191.423C202.61 -262.577 233.973 -346.977 305.682 -425.923C377.387 -504.865 489.412 -578.328 624.762 -627.591C760.112 -676.854 893.148 -692.586 998.82 -678.204C1104.5 -663.822 1182.77 -619.328 1208.67 -548.173Z" stroke="#3F83F8" stroke-width="0.25"/>
<path d="M245.803 -589.107C277.804 -657.734 359.66 -695.236 466.19 -700.353C572.713 -705.471 703.872 -678.203 834.413 -617.331C964.954 -556.459 1070.15 -473.513 1134.7 -388.622C1199.26 -303.726 1223.15 -216.914 1191.14 -148.288C1159.14 -79.6611 1077.29 -42.1592 970.757 -37.0417C864.233 -31.9244 733.075 -59.1917 602.534 -120.064C471.992 -180.936 366.797 -263.882 302.245 -348.773C237.689 -433.67 213.802 -520.481 245.803 -589.107Z" stroke="#3F83F8" stroke-width="0.25"/>
<path d="M938.712 -842.205C1007.34 -810.204 1044.84 -728.348 1049.96 -621.818C1055.08 -515.295 1027.81 -384.136 966.936 -253.595C906.063 -123.054 823.117 -17.8587 738.226 46.6931C653.33 111.249 566.518 135.137 497.892 103.136C429.265 71.1345 391.763 -10.7215 386.645 -117.251C381.528 -223.775 408.796 -354.934 469.668 -485.474C530.54 -616.015 613.487 -721.211 698.378 -785.763C783.274 -850.318 870.085 -874.206 938.712 -842.205Z" stroke="#3F83F8" stroke-width="0.25"/>
<path d="M741.069 -890.272C816.718 -886.969 882.691 -825.695 928.186 -729.233C973.679 -632.776 998.678 -501.166 992.395 -357.267C986.113 -213.369 949.738 -84.4392 896.012 7.68528C842.282 99.8155 771.22 155.106 695.571 151.803C619.922 148.5 553.949 87.2266 508.454 -9.23582C462.962 -105.692 437.961 -237.302 444.244 -381.2C450.527 -525.099 486.903 -654.029 540.629 -746.154C594.358 -838.284 665.42 -893.574 741.069 -890.272Z" stroke="#3F83F8" stroke-width="0.25"/>
<path d="M334.462 -16.4555C283.305 -72.2828 279.983 -162.259 316.022 -262.638C352.059 -363.011 427.443 -473.752 533.638 -571.061C639.832 -668.37 756.721 -733.816 859.854 -760.967C962.992 -788.121 1052.34 -776.969 1103.49 -721.142C1154.65 -665.314 1157.97 -575.338 1121.93 -474.959C1085.9 -374.586 1010.51 -263.846 904.317 -166.536C798.122 -69.227 681.233 -3.7814 578.101 23.3704C474.963 50.5238 385.618 39.3718 334.462 -16.4555Z" stroke="#3F83F8" stroke-width="0.25"/>
<path d="M365.795 -753.475C421.622 -804.632 511.599 -807.954 611.978 -771.915C712.351 -735.878 823.092 -660.494 920.401 -554.3C1017.71 -448.105 1083.16 -331.216 1110.31 -228.084C1137.46 -124.946 1126.31 -35.6016 1070.48 15.5547C1014.65 66.711 924.678 70.0335 824.299 33.9944C723.926 -2.04262 613.185 -77.4268 515.876 -183.621C418.567 -289.816 353.121 -406.705 325.969 -509.837C298.816 -612.975 309.967 -702.319 365.795 -753.475Z" stroke="#3F83F8" stroke-width="0.25"/>
</g>
<defs>
<clipPath id="clip0_133_3080">
<rect width="1440" height="1024" fill="white"/>
</clipPath>
</defs>
</svg>
