<svg width="1440" height="1024" viewBox="0 0 1440 1024" fill="none" xmlns="http://www.w3.org/2000/svg" xmlns:xlink="http://www.w3.org/1999/xlink">
<g clip-path="url(#clip0_133_2739)">
<rect width="1440" height="1024" fill="black"/>
<path d="M1440 1030L1049 977.5H1039.3C1162.06 890.303 1241 754.301 1241 601.5C1241 433.526 1145.6 285.854 1001.48 201H1397V109H44V201H434.523C290.398 285.854 195 433.526 195 601.5C195 754.301 273.943 890.303 396.695 977.5H390L0 1030V5H1440V1030Z"/>
</g>
<g clip-path="url(#clip1_133_2739)">
<path d="M719.095 140.181C794.816 140.181 863.399 198.519 913.059 292.905C962.715 387.285 993.432 517.68 993.432 661.715C993.432 805.751 962.715 936.145 913.059 1030.53C863.399 1124.91 794.816 1183.25 719.095 1183.25C643.374 1183.25 574.792 1124.91 525.132 1030.53C475.475 936.145 444.758 805.751 444.758 661.715C444.758 517.679 475.475 387.285 525.132 292.905C574.792 198.519 643.374 140.181 719.095 140.181Z" stroke="#3F83F8" stroke-width="0.25"/>
<path d="M1241.32 661.206C1241.32 736.927 1182.98 805.509 1088.59 855.169C994.213 904.825 863.819 935.542 719.783 935.542C575.746 935.542 445.352 904.825 350.971 855.169C256.585 805.509 198.248 736.927 198.247 661.206C198.247 585.485 256.585 516.903 350.971 467.243C445.352 417.586 575.746 386.869 719.783 386.869C863.819 386.869 994.213 417.587 1088.59 467.243C1182.98 516.903 1241.32 585.485 1241.32 661.206Z" stroke="#3F83F8" stroke-width="0.25"/>
<path d="M350.515 293.42C404.058 239.878 493.804 232.633 595.66 264.26C697.509 295.884 811.432 366.366 913.281 468.215C1015.13 570.064 1085.61 683.987 1117.24 785.836C1148.86 887.692 1141.62 977.438 1088.08 1030.98C1034.53 1084.52 944.787 1091.77 842.932 1060.14C741.082 1028.52 627.159 958.035 525.31 856.186C423.461 754.337 352.979 640.414 321.354 538.565C289.728 436.709 296.972 346.963 350.515 293.42Z" stroke="#3F83F8" stroke-width="0.25"/>
<path d="M1088.2 292.574C1141.74 346.117 1148.99 435.863 1117.36 537.719C1085.74 639.568 1015.26 753.491 913.406 855.34C811.557 957.189 697.634 1027.67 595.785 1059.3C493.929 1090.92 404.183 1083.68 350.64 1030.13C297.097 976.592 289.853 886.846 321.48 784.99C353.104 683.141 423.586 569.218 525.435 467.369C627.284 365.52 741.207 295.038 843.057 263.414C944.913 231.788 1034.66 239.032 1088.2 292.574Z" stroke="#3F83F8" stroke-width="0.25"/>
<path d="M237.708 462.891C266.685 392.934 346.827 351.896 453.032 342.137C559.231 332.378 691.455 353.898 824.527 409.019C957.599 464.139 1066.31 542.418 1134.51 624.412C1202.7 706.412 1230.36 792.098 1201.38 862.055C1172.4 932.012 1092.26 973.049 986.054 982.809C879.855 992.568 747.63 971.047 614.558 915.927C481.486 860.807 372.773 782.528 304.579 700.534C236.382 618.534 208.731 532.848 237.708 462.891Z" stroke="#3F83F8" stroke-width="0.25"/>
<path d="M918.917 179.809C988.874 208.786 1029.91 288.928 1039.67 395.133C1049.43 501.332 1027.91 633.556 972.789 766.628C917.668 899.699 839.39 1008.41 757.395 1076.61C675.395 1144.8 589.709 1172.46 519.752 1143.48C449.795 1114.5 408.758 1034.36 398.998 928.154C389.239 821.955 410.76 689.731 465.88 556.66C521 423.588 599.279 314.874 681.274 246.681C763.274 178.483 848.96 150.832 918.917 179.809Z" stroke="#3F83F8" stroke-width="0.25"/>
<path d="M237.968 861.86C208.991 791.903 236.643 706.216 304.84 624.217C373.034 542.222 481.747 463.944 614.819 408.823C747.891 353.703 880.115 332.183 986.314 341.941C1092.52 351.701 1172.66 392.738 1201.64 462.695C1230.62 532.652 1202.96 618.339 1134.77 700.338C1066.57 782.333 957.86 860.612 824.788 915.732C691.716 970.852 559.492 992.372 453.293 982.613C347.088 972.854 266.946 931.817 237.968 861.86Z" stroke="#3F83F8" stroke-width="0.25"/>
<path d="M519.488 180.004C589.445 151.027 675.131 178.679 757.131 246.876C839.126 315.069 917.404 423.783 972.525 556.855C1027.64 689.926 1049.17 822.15 1039.41 928.349C1029.65 1034.55 988.61 1114.7 918.653 1143.67C848.696 1172.65 763.009 1145 681.01 1076.8C599.015 1008.61 520.736 899.895 465.616 766.823C410.496 633.751 388.975 501.527 398.734 395.329C408.494 289.123 449.531 208.981 519.488 180.004Z" stroke="#3F83F8" stroke-width="0.25"/>
<path d="M696.346 140.703C771.995 137.4 843.057 192.69 896.787 284.821C950.513 376.945 986.888 505.875 993.171 649.774C999.453 793.673 974.454 925.282 928.961 1021.74C883.466 1118.2 817.493 1179.47 741.844 1182.78C666.195 1186.08 595.133 1130.79 541.404 1038.66C487.678 946.535 451.302 817.606 445.019 673.707C438.736 529.808 463.737 398.198 509.229 301.742C554.725 205.279 620.697 144.006 696.346 140.703Z" stroke="#3F83F8" stroke-width="0.25"/>
<path d="M1240.8 638.453C1244.1 714.102 1188.81 785.163 1096.68 838.893C1004.55 892.619 875.625 928.994 731.726 935.277C587.826 941.559 456.216 916.56 359.759 871.067C263.297 825.572 202.024 759.599 198.72 683.951C195.418 608.302 250.708 537.24 342.838 483.511C434.963 429.785 563.894 393.409 707.793 387.126C851.692 380.843 983.302 405.844 1079.76 451.336C1176.22 496.832 1237.49 562.804 1240.8 638.453Z" stroke="#3F83F8" stroke-width="0.25"/>
<path d="M334.801 309.873C385.957 254.046 475.301 242.894 578.44 270.048C681.572 297.199 798.461 362.645 904.656 459.954C1010.85 557.264 1086.23 668.004 1122.27 768.377C1158.31 868.756 1154.99 958.732 1103.83 1014.56C1052.68 1070.39 963.331 1081.54 860.192 1054.39C757.06 1027.23 640.171 961.788 533.977 864.479C427.782 767.169 352.398 656.429 316.361 556.056C280.322 455.677 283.644 365.701 334.801 309.873Z" stroke="#3F83F8" stroke-width="0.25"/>
<path d="M1071.75 276.851C1127.58 328.007 1138.73 417.352 1111.57 520.49C1084.42 623.622 1018.98 740.511 921.667 846.705C824.357 952.9 713.617 1028.28 613.244 1064.32C512.865 1100.36 422.888 1097.04 367.061 1045.88C311.233 994.725 300.081 905.38 327.235 802.242C354.387 699.11 419.832 582.221 517.142 476.027C614.451 369.832 725.192 294.448 825.565 258.411C925.944 222.372 1015.92 225.695 1071.75 276.851Z" stroke="#3F83F8" stroke-width="0.25"/>
<path d="M229.493 484.103C255.391 412.949 333.667 368.455 439.345 354.072C545.017 339.69 678.053 355.424 813.403 404.687C948.753 453.95 1060.78 527.411 1132.48 606.353C1204.19 685.3 1235.56 769.699 1209.66 840.853C1183.76 912.008 1105.48 956.501 999.805 970.884C894.132 985.266 761.095 969.534 625.746 920.27C490.396 871.007 378.372 797.545 306.667 718.603C234.957 639.656 203.594 555.257 229.493 484.103Z" stroke="#3F83F8" stroke-width="0.25"/>
<path d="M897.706 171.577C968.86 197.475 1013.35 275.751 1027.74 381.429C1042.12 487.101 1026.39 620.138 977.123 755.487C927.86 890.837 854.397 1002.86 775.456 1074.57C696.509 1146.27 612.11 1177.64 540.955 1151.74C469.801 1125.84 425.307 1047.57 410.925 941.887C396.543 836.215 412.275 703.179 461.538 567.83C510.801 432.481 584.264 320.456 663.206 248.751C742.153 177.042 826.551 145.679 897.706 171.577Z" stroke="#3F83F8" stroke-width="0.25"/>
<path d="M247.156 882.681C215.155 814.055 239.043 727.244 303.598 642.348C368.15 557.457 473.346 474.511 603.887 413.639C734.428 352.767 865.588 325.498 972.111 330.615C1078.64 335.733 1160.5 373.235 1192.5 441.862C1224.5 510.488 1200.61 597.299 1136.06 682.195C1071.5 767.086 966.308 850.033 835.767 910.905C705.226 971.777 574.067 999.045 467.543 993.928C361.013 988.81 279.157 951.308 247.156 882.681Z" stroke="#3F83F8" stroke-width="0.25"/>
<path d="M498.665 189.195C567.291 157.194 654.103 181.081 738.999 245.637C823.89 310.189 906.836 415.385 967.709 545.925C1028.58 676.466 1055.85 807.625 1050.73 914.149C1045.61 1020.68 1008.11 1102.53 939.485 1134.54C870.859 1166.54 784.047 1142.65 699.151 1078.09C614.26 1013.54 531.314 908.346 470.441 777.805C409.569 647.264 382.301 516.105 387.419 409.582C392.536 303.052 430.038 221.196 498.665 189.195Z" stroke="#3F83F8" stroke-width="0.25"/>
<path d="M673.64 142.217C749.073 135.617 822.48 187.755 880.177 277.454C937.87 367.147 979.834 494.368 992.388 637.856C1004.94 781.344 985.706 913.918 944.465 1012.27C903.22 1110.62 839.982 1174.72 764.55 1181.31C689.117 1187.91 615.711 1135.78 558.014 1046.08C500.321 956.384 458.355 829.164 445.802 685.676C433.248 542.188 452.484 409.613 493.726 311.264C534.97 212.909 598.207 148.816 673.64 142.217Z" stroke="#3F83F8" stroke-width="0.25"/>
<path d="M1239.28 615.744C1245.88 691.177 1193.75 764.583 1104.05 822.279C1014.35 879.973 887.133 921.937 743.645 934.491C600.157 947.044 467.582 927.809 369.232 886.567C270.877 845.323 206.785 782.086 200.185 706.653C193.585 631.221 245.724 557.815 335.422 500.118C425.116 442.424 552.337 400.459 695.825 387.906C839.313 375.352 971.888 394.588 1070.24 435.83C1168.59 477.074 1232.69 540.311 1239.28 615.744Z" stroke="#3F83F8" stroke-width="0.25"/>
<path d="M319.819 326.996C368.491 268.991 457.264 253.952 561.489 276.581C665.707 299.208 785.34 359.493 895.678 452.078C1006.02 544.662 1086.16 652.009 1126.54 750.714C1166.92 849.426 1167.53 939.462 1118.86 997.467C1070.18 1055.47 981.41 1070.51 877.186 1047.88C772.967 1025.26 653.335 964.97 542.997 872.386C432.659 779.801 352.516 672.455 312.135 573.749C271.751 475.038 271.146 385.002 319.819 326.996Z" stroke="#3F83F8" stroke-width="0.25"/>
<path d="M1054.62 261.86C1112.63 310.533 1127.67 399.305 1105.04 503.53C1082.41 607.748 1022.13 727.38 929.543 837.718C836.958 948.056 729.611 1028.2 630.905 1068.58C532.194 1108.96 442.158 1109.57 384.152 1060.9C326.146 1012.22 311.108 923.451 333.737 819.226C356.364 715.008 416.649 595.376 509.234 485.038C601.818 374.7 709.165 294.557 807.871 254.176C906.583 213.793 996.618 213.188 1054.62 261.86Z" stroke="#3F83F8" stroke-width="0.25"/>
<path d="M222.211 505.653C244.981 433.437 321.241 385.571 426.192 366.593C531.136 347.615 664.732 357.53 802.102 400.843C939.471 444.155 1054.59 512.66 1129.67 588.399C1204.76 664.143 1239.77 747.094 1217 819.31C1194.23 891.526 1117.97 939.392 1013.02 958.371C908.079 977.348 774.482 967.434 637.112 924.121C499.743 880.809 384.62 812.303 309.54 736.564C234.456 660.82 199.441 577.87 222.211 505.653Z" stroke="#3F83F8" stroke-width="0.25"/>
<path d="M876.156 164.278C948.372 187.047 996.238 263.308 1015.22 368.259C1034.19 473.203 1024.28 606.799 980.967 744.168C937.655 881.538 869.149 996.659 793.41 1071.74C717.666 1146.82 634.716 1181.84 562.499 1159.07C490.283 1136.3 442.417 1060.04 423.438 955.088C404.461 850.144 414.375 716.548 457.688 579.179C501 441.81 569.506 326.687 645.245 251.607C720.989 176.523 803.94 141.508 876.156 164.278Z" stroke="#3F83F8" stroke-width="0.25"/>
<path d="M257.243 903.082C222.279 835.916 242.357 748.146 303.148 660.515C363.936 572.889 465.413 485.433 593.175 418.925C720.936 352.416 850.781 319.454 957.426 319.92C1064.08 320.386 1147.49 354.281 1182.46 421.446C1217.42 488.612 1197.34 576.383 1136.55 664.014C1075.76 751.64 974.286 839.096 846.524 905.604C718.763 972.112 588.918 1005.07 482.273 1004.61C375.621 1004.14 292.207 970.247 257.243 903.082Z" stroke="#3F83F8" stroke-width="0.25"/>
<path d="M478.264 199.285C545.429 164.321 633.199 184.399 720.831 245.19C808.457 305.978 895.913 407.455 962.421 535.216C1028.93 662.978 1061.89 792.823 1061.43 899.468C1060.96 1006.12 1027.06 1089.53 959.899 1124.5C892.734 1159.46 804.964 1139.38 717.332 1078.59C629.706 1017.8 542.25 916.327 475.742 788.566C409.233 660.804 376.27 530.959 376.736 424.314C377.202 317.662 411.098 234.249 478.264 199.285Z" stroke="#3F83F8" stroke-width="0.25"/>
<path d="M651.022 144.719C726.095 134.835 801.706 183.722 863.261 270.819C924.812 357.91 972.285 483.18 991.086 625.983C1009.89 768.787 996.452 902.074 959.54 1002.13C922.625 1102.19 862.243 1168.98 787.17 1178.86C712.097 1188.75 636.487 1139.86 574.932 1052.76C513.381 965.672 465.907 840.403 447.106 697.599C428.306 554.796 441.74 421.508 478.653 321.453C515.568 221.393 575.949 154.603 651.022 144.719Z" stroke="#3F83F8" stroke-width="0.25"/>
<path d="M1236.78 593.123C1246.67 668.196 1197.78 743.806 1110.68 805.361C1023.59 866.911 898.323 914.385 755.519 933.185C612.715 951.986 479.427 938.552 379.372 901.64C279.312 864.725 212.522 804.343 202.638 729.27C192.754 654.197 241.641 578.587 328.738 517.033C415.829 455.482 541.099 408.007 683.903 389.207C826.707 370.406 959.995 383.841 1060.05 420.754C1160.11 457.669 1226.9 518.05 1236.78 593.123Z" stroke="#3F83F8" stroke-width="0.25"/>
<path d="M305.597 344.756C351.693 284.683 439.726 265.786 544.838 283.847C649.944 301.907 772.092 356.916 886.364 444.6C1000.64 532.283 1085.38 636.032 1130.03 732.882C1174.68 829.738 1179.22 919.662 1133.12 979.735C1087.02 1039.81 998.991 1058.71 893.878 1040.64C788.772 1022.58 666.624 967.575 552.352 879.892C438.081 792.208 353.332 688.46 308.684 591.61C264.033 494.753 259.501 404.83 305.597 344.756Z" stroke="#3F83F8" stroke-width="0.25"/>
<path d="M1036.86 247.63C1096.94 293.726 1115.83 381.759 1097.77 486.871C1079.71 591.977 1024.7 714.125 937.018 828.397C849.335 942.668 745.586 1027.42 648.735 1072.06C551.879 1116.72 461.955 1121.25 401.882 1075.15C341.808 1029.06 322.912 941.023 340.973 835.911C359.033 730.805 414.042 608.657 501.726 494.385C589.409 380.114 693.158 295.365 790.009 250.717C886.865 206.066 976.789 201.534 1036.86 247.63Z" stroke="#3F83F8" stroke-width="0.25"/>
<path d="M215.875 527.501C235.473 454.36 309.574 403.213 413.596 379.675C517.613 356.138 651.514 360.216 790.642 397.496C929.77 434.775 1047.77 498.193 1126.08 570.585C1204.4 642.982 1243 724.326 1223.4 797.467C1203.81 870.607 1129.7 921.754 1025.68 945.293C921.665 968.83 787.763 964.752 648.635 927.473C509.507 890.193 391.506 826.774 313.194 754.382C234.877 681.986 196.277 600.642 215.875 527.501Z" stroke="#3F83F8" stroke-width="0.25"/>
<path d="M854.307 157.926C927.448 177.524 978.595 251.624 1002.13 355.647C1025.67 459.663 1021.59 593.564 984.313 732.692C947.034 871.82 883.616 989.821 811.224 1068.13C738.827 1146.45 657.482 1185.05 584.341 1165.45C511.2 1145.85 460.054 1071.75 436.515 967.73C412.978 863.714 417.056 729.813 454.335 590.685C491.614 451.557 555.034 333.557 627.426 255.244C699.822 176.927 781.166 138.328 854.307 157.926Z" stroke="#3F83F8" stroke-width="0.25"/>
<path d="M268.209 923.023C230.349 857.447 246.579 768.884 303.49 678.685C360.398 588.491 457.964 496.692 582.703 424.674C707.442 352.656 835.725 314.061 942.289 309.874C1048.86 305.688 1133.67 335.913 1171.53 401.489C1209.39 467.065 1193.16 555.628 1136.25 645.828C1079.34 736.022 981.779 827.821 857.04 899.839C732.301 971.857 604.018 1010.45 497.454 1014.64C390.883 1018.82 306.07 988.599 268.209 923.023Z" stroke="#3F83F8" stroke-width="0.25"/>
<path d="M458.32 210.255C523.896 172.395 612.459 188.625 702.659 245.536C792.853 302.444 884.652 400.01 956.67 524.748C1028.69 649.487 1067.28 777.77 1071.47 884.334C1075.66 990.905 1045.43 1075.72 979.855 1113.58C914.278 1151.44 825.715 1135.21 735.516 1078.3C645.322 1021.39 553.523 923.824 481.505 799.085C409.486 674.346 370.891 546.063 366.705 439.499C362.518 332.928 392.744 248.115 458.32 210.255Z" stroke="#3F83F8" stroke-width="0.25"/>
<path d="M628.536 148.206C703.107 135.057 780.778 180.599 846.073 264.928C911.365 349.251 964.257 472.331 989.269 614.179C1014.28 756.026 1006.67 889.773 974.16 991.342C941.645 1092.92 884.234 1162.28 809.663 1175.43C735.092 1188.58 657.422 1143.03 592.127 1058.7C526.836 974.381 473.942 851.302 448.931 709.455C423.919 567.607 431.527 433.86 464.04 332.29C496.555 230.715 553.965 161.355 628.536 148.206Z" stroke="#3F83F8" stroke-width="0.25"/>
<path d="M1233.3 570.632C1246.45 645.203 1200.91 722.874 1116.58 788.169C1032.25 853.46 909.174 906.352 767.326 931.364C625.478 956.375 491.73 948.768 390.161 916.255C288.586 883.74 219.225 826.33 206.076 751.759C192.927 677.189 238.469 599.518 322.798 534.223C407.122 468.932 530.202 416.038 672.05 391.027C813.898 366.015 947.645 373.623 1049.21 406.136C1150.79 438.652 1220.15 496.062 1233.3 570.632Z" stroke="#3F83F8" stroke-width="0.25"/>
<path d="M292.165 363.12C335.597 301.093 422.722 278.375 528.522 291.834C634.316 305.292 758.747 354.92 876.735 437.536C994.722 520.152 1083.92 620.105 1132.75 714.915C1181.58 809.732 1190.03 899.372 1146.6 961.399C1103.17 1023.43 1016.04 1046.14 910.241 1032.69C804.447 1019.23 680.015 969.599 562.028 886.983C444.04 804.367 354.847 704.414 306.016 609.604C257.183 514.787 248.733 425.147 292.165 363.12Z" stroke="#3F83F8" stroke-width="0.25"/>
<path d="M1018.5 234.189C1080.52 277.621 1103.24 364.745 1089.78 470.545C1076.33 576.339 1026.7 700.77 944.081 818.758C861.466 936.745 761.512 1025.94 666.701 1074.77C571.885 1123.6 482.245 1132.05 420.218 1088.62C358.191 1045.19 335.472 958.064 348.931 852.264C362.389 746.47 412.018 622.039 494.634 504.052C577.25 386.064 677.203 296.871 772.014 248.041C866.83 199.208 956.471 190.757 1018.5 234.189Z" stroke="#3F83F8" stroke-width="0.25"/>
<path d="M210.5 549.604C226.889 475.679 298.688 421.348 401.585 393.295C504.476 365.243 638.427 363.477 779.049 394.652C919.671 425.827 1040.33 484.038 1121.72 552.945C1203.12 621.856 1245.23 701.44 1228.84 775.366C1212.46 849.292 1140.66 903.622 1037.76 931.675C934.869 959.727 800.916 961.494 660.294 930.319C519.672 899.144 399.018 840.932 317.622 772.025C236.222 703.114 194.111 623.53 210.5 549.604Z" stroke="#3F83F8" stroke-width="0.25"/>
<path d="M832.203 152.533C906.13 168.922 960.459 240.721 988.513 343.618C1016.57 446.508 1018.33 580.46 987.157 721.082C955.981 861.703 897.77 982.358 828.863 1063.75C759.951 1145.15 680.368 1187.26 606.442 1170.88C532.516 1154.49 478.186 1082.69 450.132 979.791C422.08 876.9 420.314 742.949 451.489 602.327C482.664 461.706 540.875 341.051 609.783 259.655C678.694 178.255 758.277 136.144 832.203 152.533Z" stroke="#3F83F8" stroke-width="0.25"/>
<path d="M280.037 942.467C239.352 878.605 251.704 789.418 304.626 696.822C357.546 604.232 451.014 508.265 572.493 430.874C693.972 353.484 820.45 309.33 926.73 300.499C1033.02 291.668 1119.07 318.165 1159.75 382.028C1200.44 445.89 1188.09 535.076 1135.16 627.673C1082.24 720.263 988.775 816.23 867.296 893.621C745.817 971.011 619.339 1015.17 513.059 1024C406.772 1032.83 320.722 1006.33 280.037 942.467Z" stroke="#3F83F8" stroke-width="0.25"/>
<path d="M438.876 222.085C502.739 181.4 591.925 193.752 684.521 246.675C777.112 299.594 873.079 393.063 950.47 514.541C1027.86 636.02 1072.01 762.498 1080.85 868.778C1089.68 975.064 1063.18 1061.11 999.317 1101.8C935.454 1142.48 846.268 1130.13 753.672 1077.21C661.081 1024.29 565.114 930.822 487.723 809.343C410.332 687.864 366.178 561.387 357.348 455.107C348.517 348.82 375.014 262.77 438.876 222.085Z" stroke="#3F83F8" stroke-width="0.25"/>
<path d="M606.222 152.67C680.149 136.281 759.732 178.392 828.643 259.793C897.55 341.188 955.762 461.843 986.937 602.465C1018.11 743.087 1016.35 877.038 988.294 979.928C960.24 1082.83 905.91 1154.62 831.984 1171.01C758.058 1187.4 678.475 1145.29 609.563 1063.89C540.656 982.495 482.444 861.841 451.269 721.22C420.094 580.598 421.861 446.646 449.913 343.755C477.966 240.858 532.296 169.06 606.222 152.67Z" stroke="#3F83F8" stroke-width="0.25"/>
<path d="M1228.84 548.315C1245.22 622.241 1203.11 701.825 1121.71 770.736C1040.32 839.643 919.663 897.854 779.041 929.029C638.419 960.204 504.467 958.438 401.576 930.386C298.679 902.333 226.881 848.002 210.491 774.076C194.102 700.15 236.213 620.567 317.614 551.656C399.009 482.749 519.665 424.537 660.287 393.362C800.909 362.187 934.86 363.954 1037.75 392.005C1140.65 420.059 1212.45 474.389 1228.84 548.315Z" stroke="#3F83F8" stroke-width="0.25"/>
<path d="M279.546 382.052C320.231 318.19 406.282 291.693 512.568 300.524C618.849 309.355 745.326 353.508 866.805 430.899C988.284 508.289 1081.75 604.257 1134.67 696.847C1187.59 789.443 1199.95 878.629 1159.26 942.492C1118.58 1006.35 1032.53 1032.85 926.239 1024.02C819.959 1015.19 693.482 971.036 572.003 893.645C450.524 816.255 357.055 720.287 304.136 627.697C251.213 535.101 238.861 445.915 279.546 382.052Z" stroke="#3F83F8" stroke-width="0.25"/>
<path d="M999.564 221.562C1063.43 262.247 1089.92 348.297 1081.09 454.584C1072.26 560.864 1028.11 687.341 950.717 808.82C873.326 930.299 777.359 1023.77 684.768 1076.69C592.172 1129.61 502.985 1141.96 439.123 1101.28C375.261 1060.59 348.764 974.541 357.595 868.255C366.425 761.975 410.579 635.497 487.97 514.018C565.361 392.54 661.328 299.071 753.919 246.152C846.515 193.229 935.701 180.877 999.564 221.562Z" stroke="#3F83F8" stroke-width="0.25"/>
<path d="M206.093 571.921C219.242 497.351 288.602 439.94 390.178 407.425C491.747 374.912 625.494 367.305 767.342 392.316C909.19 417.328 1032.27 470.22 1116.59 535.512C1200.92 600.807 1246.46 678.477 1233.32 753.048C1220.17 827.618 1150.81 885.029 1049.23 917.544C947.661 950.057 813.914 957.665 672.066 932.654C530.218 907.642 407.139 854.749 322.815 789.457C238.486 724.162 192.944 646.492 206.093 571.921Z" stroke="#3F83F8" stroke-width="0.25"/>
<path d="M809.885 148.11C884.456 161.258 941.867 230.619 974.382 332.194C1006.9 433.764 1014.5 567.511 989.491 709.358C964.479 851.206 911.586 974.285 846.295 1058.61C781 1142.94 703.329 1188.48 628.758 1175.33C554.187 1162.18 496.777 1092.82 464.262 991.246C431.749 889.676 424.141 755.93 449.152 614.082C474.164 472.235 527.057 349.155 592.349 264.832C657.644 180.503 735.314 134.961 809.885 148.11Z" stroke="#3F83F8" stroke-width="0.25"/>
<path d="M292.7 961.377C249.269 899.35 257.719 809.71 306.552 714.893C355.382 620.083 444.575 520.13 562.563 437.514C680.55 354.899 804.982 305.27 910.776 291.812C1016.58 278.353 1103.7 301.071 1147.13 363.098C1190.56 425.125 1182.11 514.765 1133.28 609.582C1084.45 704.392 995.257 804.346 877.27 886.961C759.282 969.577 634.851 1019.21 529.057 1032.66C423.257 1046.12 336.132 1023.4 292.7 961.377Z" stroke="#3F83F8" stroke-width="0.25"/>
<path d="M419.966 234.752C481.993 191.32 571.633 199.771 666.45 248.603C761.261 297.434 861.214 386.627 943.83 504.615C1026.45 622.602 1076.07 747.033 1089.53 852.827C1102.99 958.627 1080.27 1045.75 1018.25 1089.18C956.219 1132.61 866.579 1124.16 771.762 1075.33C676.951 1026.5 576.998 937.308 494.382 819.321C411.766 701.333 362.138 576.902 348.68 471.108C335.221 365.308 357.939 278.184 419.966 234.752Z" stroke="#3F83F8" stroke-width="0.25"/>
<path d="M584.124 158.104C657.265 138.506 738.61 177.105 811.007 255.422C883.399 333.734 946.817 451.735 984.097 590.863C1021.38 729.991 1025.45 863.892 1001.92 967.908C978.379 1071.93 927.231 1146.03 854.09 1165.63C780.949 1185.23 699.605 1146.63 627.209 1068.31C554.817 989.999 491.398 871.998 454.118 732.87C416.839 593.742 412.761 459.841 436.298 355.825C459.837 251.802 510.983 177.702 584.124 158.104Z" stroke="#3F83F8" stroke-width="0.25"/>
<path d="M1223.4 526.214C1243 599.355 1204.4 680.699 1126.08 753.095C1047.77 825.487 929.771 888.906 790.643 926.185C651.515 963.464 517.613 967.543 413.597 944.006C309.574 920.467 235.474 869.32 215.875 796.18C196.277 723.039 234.877 641.695 313.194 569.298C391.506 496.906 509.508 433.487 648.636 396.208C787.764 358.928 921.665 354.851 1025.68 378.388C1129.7 401.926 1203.81 453.073 1223.4 526.214Z" stroke="#3F83F8" stroke-width="0.25"/>
<path d="M267.764 401.516C305.625 335.94 390.438 305.715 497.009 309.901C603.573 314.088 731.856 352.683 856.595 424.7C981.334 496.718 1078.9 588.517 1135.81 678.711C1192.72 768.911 1208.95 857.474 1171.09 923.05C1133.23 988.627 1048.42 1018.85 941.844 1014.66C835.28 1010.48 706.997 971.884 582.258 899.866C457.519 827.848 359.953 736.049 303.045 645.855C246.134 555.655 229.904 467.093 267.764 401.516Z" stroke="#3F83F8" stroke-width="0.25"/>
<path d="M980.096 209.772C1045.67 247.633 1075.9 332.445 1071.71 439.016C1067.52 545.58 1028.93 673.863 956.911 798.602C884.893 923.341 793.094 1020.91 702.9 1077.81C612.7 1134.73 524.137 1150.96 458.561 1113.1C392.985 1075.24 362.76 990.422 366.946 883.852C371.132 777.288 409.728 649.004 481.746 524.266C553.764 399.527 645.563 301.961 735.757 245.053C825.957 188.142 914.52 171.912 980.096 209.772Z" stroke="#3F83F8" stroke-width="0.25"/>
<path d="M202.664 594.409C212.547 519.336 279.337 458.954 379.398 422.04C479.452 385.127 612.74 371.693 755.544 390.493C898.348 409.294 1023.62 456.767 1110.71 518.318C1197.81 579.873 1246.69 655.483 1236.81 730.556C1226.93 805.629 1160.14 866.01 1060.07 902.925C960.02 939.838 826.732 953.273 683.928 934.472C541.124 915.672 415.855 868.197 328.763 806.647C241.667 745.092 192.78 669.482 202.664 594.409Z" stroke="#3F83F8" stroke-width="0.25"/>
<path d="M787.394 144.663C862.467 154.547 922.849 221.337 959.764 321.397C996.677 421.452 1010.11 554.74 991.31 697.543C972.51 840.347 925.036 965.616 863.485 1052.71C801.931 1139.8 726.32 1188.69 651.246 1178.81C576.173 1168.92 515.792 1102.13 478.877 1002.07C441.965 902.018 428.53 768.731 447.33 625.927C466.131 483.123 513.605 357.854 575.156 270.763C636.711 183.666 712.321 134.779 787.394 144.663Z" stroke="#3F83F8" stroke-width="0.25"/>
<path d="M306.176 979.716C260.08 919.642 264.612 829.719 309.263 732.863C353.911 636.012 438.66 532.264 552.932 444.58C667.203 356.897 789.351 301.888 894.458 283.828C999.57 265.767 1087.6 284.663 1133.7 344.737C1179.79 404.81 1175.26 494.734 1130.61 591.59C1085.96 688.44 1001.22 792.189 886.943 879.872C772.672 967.556 650.524 1022.56 545.417 1040.62C440.305 1058.69 352.272 1039.79 306.176 979.716Z" stroke="#3F83F8" stroke-width="0.25"/>
<path d="M401.625 248.231C461.699 202.135 551.622 206.667 648.479 251.318C745.329 295.966 849.078 380.715 936.762 494.986C1024.45 609.258 1079.45 731.406 1097.51 836.512C1115.58 941.624 1096.68 1029.66 1036.61 1075.75C976.532 1121.85 886.608 1117.32 789.752 1072.67C692.902 1028.02 589.153 943.269 501.469 828.998C413.785 714.726 358.776 592.578 340.716 487.472C322.655 382.36 341.552 294.327 401.625 248.231Z" stroke="#3F83F8" stroke-width="0.25"/>
<path d="M562.285 164.495C634.501 141.726 717.452 176.74 793.195 251.825C868.934 326.905 937.441 442.027 980.753 579.397C1024.07 716.766 1033.98 850.361 1015 955.306C996.024 1060.26 948.158 1136.52 875.942 1159.29C803.725 1182.06 720.775 1147.04 645.031 1071.96C569.292 996.877 500.786 881.755 457.473 744.386C414.161 607.016 404.246 473.42 423.224 368.476C442.203 263.526 490.068 187.265 562.285 164.495Z" stroke="#3F83F8" stroke-width="0.25"/>
<path d="M1217.01 504.371C1239.78 576.587 1204.77 659.538 1129.68 735.281C1054.6 811.02 939.479 879.525 802.11 922.838C664.74 966.15 531.144 976.066 426.199 957.088C321.249 938.109 244.988 890.243 222.218 818.027C199.449 745.811 234.463 662.86 309.548 587.117C384.628 511.378 499.751 442.872 637.12 399.559C774.49 356.247 908.086 346.332 1013.03 365.31C1117.98 384.289 1194.24 432.154 1217.01 504.371Z" stroke="#3F83F8" stroke-width="0.25"/>
<path d="M256.843 421.476C291.808 354.311 375.221 320.415 481.873 319.949C588.519 319.483 718.363 352.445 846.125 418.954C973.887 485.462 1075.36 572.918 1136.15 660.544C1196.94 748.175 1217.02 835.946 1182.06 903.111C1147.09 970.277 1063.68 1004.17 957.027 1004.64C850.382 1005.1 720.537 972.142 592.775 905.633C465.014 839.125 363.536 751.669 302.749 664.043C241.958 576.412 221.879 488.641 256.843 421.476Z" stroke="#3F83F8" stroke-width="0.25"/>
<path d="M960.133 198.843C1027.3 233.807 1061.19 317.221 1061.66 423.873C1062.13 530.518 1029.16 660.362 962.655 788.124C896.147 915.885 808.691 1017.36 721.065 1078.15C633.433 1138.94 545.663 1159.02 478.497 1124.06C411.332 1089.09 377.436 1005.68 376.97 899.026C376.504 792.381 409.467 662.536 475.975 534.775C542.484 407.013 629.94 305.536 717.566 244.749C805.197 183.957 892.968 163.879 960.133 198.843Z" stroke="#3F83F8" stroke-width="0.25"/>
<path d="M200.218 617.024C206.818 541.592 270.91 478.355 369.266 437.11C467.615 395.869 600.19 376.634 743.678 389.187C887.166 401.741 1014.39 443.705 1104.08 501.398C1193.78 559.095 1245.92 632.501 1239.32 707.934C1232.72 783.366 1168.63 846.604 1070.27 887.848C971.922 929.09 839.346 948.326 695.858 935.772C552.37 923.218 425.149 881.253 335.456 823.56C245.757 765.863 193.619 692.457 200.218 617.024Z" stroke="#3F83F8" stroke-width="0.25"/>
<path d="M764.775 142.201C840.207 148.801 903.445 212.894 944.689 311.249C985.931 409.598 1005.17 542.173 992.613 685.661C980.059 829.148 938.095 956.369 880.402 1046.06C822.705 1135.76 749.298 1187.9 673.865 1181.3C598.432 1174.7 535.195 1110.61 493.951 1012.25C452.709 913.903 433.473 781.329 446.027 637.841C458.58 494.353 500.545 367.132 558.239 277.439C615.936 187.74 689.342 135.602 764.775 142.201Z" stroke="#3F83F8" stroke-width="0.25"/>
<path d="M320.439 997.45C271.767 939.445 272.372 849.409 312.755 750.697C353.136 651.992 433.279 544.645 543.617 452.061C653.955 359.476 773.588 299.192 877.806 276.564C982.031 253.935 1070.8 268.974 1119.48 326.979C1168.15 384.985 1167.54 475.021 1127.16 573.732C1086.78 672.438 1006.64 779.784 896.298 872.369C785.96 964.953 666.328 1025.24 562.109 1047.87C457.885 1070.49 369.112 1055.46 320.439 997.45Z" stroke="#3F83F8" stroke-width="0.25"/>
<path d="M383.891 262.498C441.896 213.826 531.932 214.431 630.644 254.814C729.35 295.195 836.696 375.338 929.281 485.676C1021.87 596.014 1082.15 715.646 1104.78 819.865C1127.41 924.089 1112.37 1012.86 1054.36 1061.53C996.357 1110.21 906.321 1109.6 807.609 1069.22C708.904 1028.84 601.557 948.694 508.972 838.357C416.387 728.019 356.103 608.386 333.475 504.168C310.846 399.944 325.885 311.171 383.891 262.498Z" stroke="#3F83F8" stroke-width="0.25"/>
<path d="M540.744 171.834C611.898 145.936 696.297 177.299 775.244 249.008C854.186 320.713 927.649 432.737 976.912 568.087C1026.17 703.436 1041.91 836.472 1027.53 942.144C1013.14 1047.82 968.649 1126.1 897.494 1152C826.34 1177.89 741.941 1146.53 662.994 1074.82C584.052 1003.12 510.59 891.093 461.327 755.744C412.064 620.395 396.331 487.358 410.713 381.686C425.096 276.008 469.589 197.732 540.744 171.834Z" stroke="#3F83F8" stroke-width="0.25"/>
<path d="M1209.67 482.827C1235.57 553.981 1204.21 638.38 1132.5 717.327C1060.79 796.268 948.769 869.73 813.419 918.993C678.07 968.256 545.033 983.99 439.361 969.608C333.682 955.225 255.406 910.731 229.508 839.577C203.61 768.423 234.973 684.023 306.682 605.077C378.387 526.135 490.412 452.672 625.762 403.409C761.112 354.146 894.148 338.414 999.82 352.796C1105.5 367.178 1183.77 411.672 1209.67 482.827Z" stroke="#3F83F8" stroke-width="0.25"/>
<path d="M246.803 441.893C278.804 373.266 360.66 335.764 467.19 330.647C573.713 325.529 704.872 352.797 835.413 413.669C965.954 474.541 1071.15 557.487 1135.7 642.378C1200.26 727.274 1224.15 814.086 1192.14 882.712C1160.14 951.339 1078.29 988.841 971.757 993.958C865.233 999.076 734.075 971.808 603.534 910.936C472.992 850.064 367.797 767.118 303.245 682.227C238.689 597.33 214.802 510.519 246.803 441.893Z" stroke="#3F83F8" stroke-width="0.25"/>
<path d="M939.712 188.795C1008.34 220.796 1045.84 302.652 1050.96 409.182C1056.08 515.705 1028.81 646.864 967.936 777.405C907.063 907.946 824.117 1013.14 739.226 1077.69C654.33 1142.25 567.518 1166.14 498.892 1134.14C430.265 1102.13 392.763 1020.28 387.645 913.749C382.528 807.225 409.796 676.066 470.668 545.526C531.54 414.985 614.487 309.789 699.378 245.237C784.274 180.682 871.085 156.794 939.712 188.795Z" stroke="#3F83F8" stroke-width="0.25"/>
<path d="M198.761 639.725C202.064 564.076 263.337 498.104 359.8 452.609C456.256 407.116 587.866 382.117 731.765 388.399C875.664 394.682 1004.6 431.057 1096.72 484.783C1188.85 538.513 1244.14 609.574 1240.84 685.223C1237.53 760.872 1176.26 826.845 1079.8 872.34C983.342 917.832 851.732 942.833 707.832 936.55C563.933 930.267 435.003 893.891 342.879 840.165C250.749 786.436 195.458 715.374 198.761 639.725Z" stroke="#3F83F8" stroke-width="0.25"/>
<path d="M742.069 140.728C817.718 144.031 883.691 205.305 929.186 301.767C974.679 398.224 999.678 529.834 993.395 673.733C987.113 817.631 950.738 946.561 897.012 1038.69C843.282 1130.82 772.22 1186.11 696.571 1182.8C620.922 1179.5 554.949 1118.23 509.454 1021.76C463.962 925.308 438.961 793.699 445.244 649.8C451.527 505.901 487.903 376.971 541.629 284.846C595.358 192.716 666.42 137.426 742.069 140.728Z" stroke="#3F83F8" stroke-width="0.25"/>
<path d="M335.462 1014.54C284.305 958.717 280.983 868.741 317.022 768.362C353.059 667.989 428.443 557.248 534.638 459.939C640.832 362.63 757.721 297.184 860.854 270.033C963.992 242.879 1053.34 254.031 1104.49 309.858C1155.65 365.686 1158.97 455.662 1122.93 556.041C1086.9 656.414 1011.51 767.154 905.317 864.464C799.122 961.773 682.233 1027.22 579.101 1054.37C475.963 1081.52 386.618 1070.37 335.462 1014.54Z" stroke="#3F83F8" stroke-width="0.25"/>
<path d="M366.795 277.525C422.622 226.368 512.599 223.046 612.978 259.085C713.351 295.122 824.092 370.506 921.401 476.7C1018.71 582.895 1084.16 699.784 1111.31 802.916C1138.46 906.054 1127.31 995.398 1071.48 1046.55C1015.65 1097.71 925.678 1101.03 825.299 1064.99C724.926 1028.96 614.185 953.573 516.876 847.379C419.567 741.184 354.121 624.295 326.969 521.163C299.816 418.025 310.967 328.681 366.795 277.525Z" stroke="#3F83F8" stroke-width="0.25"/>
</g>
<defs>
<clipPath id="clip0_133_2739">
<rect width="1440" height="1024" fill="white"/>
</clipPath>
<clipPath id="clip1_133_2739">
<rect width="1440" height="828" fill="white" transform="translate(0 196)"/>
</clipPath>
</defs>
</svg>
