<svg width="1180" height="1180" viewBox="0 0 1180 1180" fill="none" xmlns="http://www.w3.org/2000/svg">
<path d="M589.096 68.1816C664.817 68.1818 733.4 126.519 783.059 220.905C832.716 315.286 863.433 445.681 863.433 589.718C863.433 733.754 832.716 864.149 783.059 958.529C733.4 1052.92 664.817 1111.25 589.096 1111.25C513.375 1111.25 444.792 1052.92 395.133 958.529C345.476 864.149 314.759 733.754 314.759 589.718C314.759 445.681 345.476 315.286 395.133 220.905C444.792 126.519 513.375 68.1816 589.096 68.1816Z" stroke="#3F83F8" stroke-width="0.25"/>
<path d="M1111.32 589.208C1111.32 664.929 1052.98 733.512 958.595 783.172C864.214 832.829 733.819 863.545 589.782 863.545C445.746 863.545 315.351 832.829 220.971 783.172C126.584 733.512 68.2473 664.929 68.2471 589.208C68.2471 513.487 126.585 444.904 220.971 395.244C315.351 345.588 445.746 314.87 589.782 314.87C733.819 314.87 864.214 345.588 958.595 395.244C1052.98 444.904 1111.32 513.487 1111.32 589.208Z" stroke="#3F83F8" stroke-width="0.25"/>
<path d="M220.515 221.421C274.058 167.878 363.804 160.633 465.66 192.26C567.51 223.884 681.433 294.368 783.282 396.217C885.131 498.066 955.615 611.989 987.239 713.839C1018.87 815.695 1011.62 905.441 958.078 958.984C904.535 1012.53 814.789 1019.77 712.933 988.145C611.083 956.521 497.16 886.038 395.311 784.189C293.462 682.34 222.979 568.416 191.354 466.566C159.728 364.71 166.972 274.964 220.515 221.421Z" stroke="#3F83F8" stroke-width="0.25"/>
<path d="M958.204 220.576C1011.75 274.119 1018.99 363.865 987.365 465.721C955.741 567.57 885.257 681.494 783.408 783.343C681.559 885.192 567.636 955.675 465.786 987.3C363.93 1018.93 274.184 1011.68 220.641 958.138C167.098 904.595 159.854 814.849 191.48 712.993C223.105 611.144 293.587 497.22 395.436 395.371C497.285 293.522 611.209 223.039 713.059 191.414C814.915 159.788 904.661 167.033 958.204 220.576Z" stroke="#3F83F8" stroke-width="0.25"/>
<path d="M107.707 390.892C136.685 320.935 216.827 279.897 323.032 270.138C429.232 260.379 561.456 281.901 694.528 337.021C827.6 392.142 936.315 470.42 1004.51 552.414C1072.71 634.414 1100.36 720.101 1071.38 790.058C1042.4 860.016 962.26 901.053 856.055 910.813C749.856 920.572 617.632 899.051 484.559 843.931C351.487 788.81 242.773 710.531 174.579 628.536C106.381 546.537 78.7302 460.849 107.707 390.892Z" stroke="#3F83F8" stroke-width="0.25"/>
<path d="M788.919 107.81C858.875 136.787 899.912 216.929 909.672 323.134C919.431 429.333 897.91 561.558 842.79 694.63C787.669 827.702 709.39 936.416 627.396 1004.61C545.396 1072.81 459.71 1100.46 389.753 1071.48C319.795 1042.5 278.758 962.362 268.998 856.157C259.239 749.958 280.76 617.734 335.88 484.662C391.001 351.589 469.28 242.875 551.275 174.681C633.274 106.484 718.961 78.8324 788.919 107.81Z" stroke="#3F83F8" stroke-width="0.25"/>
<path d="M107.968 789.863C78.9911 719.906 106.642 634.218 174.84 552.219C243.033 470.224 351.748 391.946 484.82 336.825C617.893 281.705 750.116 260.183 856.315 269.942C962.521 279.702 1042.66 320.74 1071.64 390.697C1100.62 460.654 1072.97 546.341 1004.77 628.341C936.575 710.335 827.861 788.614 694.789 843.735C561.717 898.855 429.492 920.376 323.293 910.617C217.088 900.858 136.945 859.82 107.968 789.863Z" stroke="#3F83F8" stroke-width="0.25"/>
<path d="M389.489 108.004C459.446 79.0275 545.132 106.679 627.132 174.876C709.126 243.07 787.406 351.784 842.526 484.857C897.646 617.929 919.167 750.153 909.408 856.352C899.648 962.557 858.611 1042.7 788.655 1071.68C718.697 1100.65 633.01 1073 551.011 1004.81C469.016 936.612 390.737 827.898 335.617 694.826C280.496 561.753 258.975 429.529 268.734 323.329C278.494 217.124 319.531 136.982 389.489 108.004Z" stroke="#3F83F8" stroke-width="0.25"/>
<path d="M566.348 68.7031C641.997 65.4004 713.058 120.691 766.788 212.821C820.514 304.946 856.89 433.877 863.173 577.776C869.455 721.676 844.455 853.286 798.962 949.743C753.467 1046.21 687.495 1107.48 611.846 1110.78C536.197 1114.08 465.134 1058.79 411.405 966.664C357.679 874.539 321.303 745.609 315.02 601.709C308.737 457.81 333.738 326.199 379.23 229.742C424.726 133.279 490.699 72.0061 566.348 68.7031Z" stroke="#3F83F8" stroke-width="0.25"/>
<path d="M1110.8 566.455C1114.1 642.104 1058.81 713.166 966.682 766.896C874.558 820.622 745.626 856.997 601.727 863.28C457.828 869.562 326.217 844.563 229.761 799.071C133.298 753.575 72.0247 687.602 68.7217 611.953C65.4188 536.304 120.709 465.242 212.839 411.512C304.964 357.786 433.895 321.41 577.794 315.127C721.693 308.844 853.304 333.845 949.761 379.337C1046.22 424.833 1107.5 490.806 1110.8 566.455Z" stroke="#3F83F8" stroke-width="0.25"/>
<path d="M204.801 237.874C255.957 182.047 345.302 170.894 448.441 198.048C551.573 225.2 668.462 290.647 774.657 387.957C880.851 485.266 956.237 596.006 992.274 696.379C1028.31 796.759 1024.99 886.735 973.834 942.563C922.677 998.39 833.332 1009.54 730.194 982.39C627.062 955.238 510.172 889.792 403.978 792.482C297.783 695.172 222.397 584.431 186.36 484.058C150.321 383.679 153.644 293.702 204.801 237.874Z" stroke="#3F83F8" stroke-width="0.25"/>
<path d="M941.751 204.852C997.578 256.008 1008.73 345.353 981.577 448.492C954.425 551.624 888.978 668.513 791.668 774.708C694.359 880.903 583.619 956.288 483.246 992.325C382.866 1028.36 292.889 1025.04 237.062 973.885C181.234 922.728 170.082 833.383 197.235 730.245C224.387 627.113 289.833 510.223 387.143 404.029C484.452 297.834 595.193 222.449 695.567 186.411C795.946 150.372 885.923 153.695 941.751 204.852Z" stroke="#3F83F8" stroke-width="0.25"/>
<path d="M99.4929 412.104C125.391 340.95 203.667 296.455 309.346 282.073C415.018 267.691 548.055 283.425 683.405 332.688C818.755 381.951 930.78 455.413 1002.49 534.355C1074.2 613.302 1105.56 697.701 1079.66 768.856C1053.76 840.01 975.485 884.505 869.807 898.888C764.134 913.27 631.097 897.537 495.748 848.274C360.397 799.01 248.372 725.548 176.667 646.605C104.957 567.658 73.5948 483.259 99.4929 412.104Z" stroke="#3F83F8" stroke-width="0.25"/>
<path d="M767.708 99.5774C838.863 125.476 883.356 203.751 897.739 309.43C912.121 415.102 896.388 548.14 847.125 683.49C797.861 818.84 724.399 930.864 645.457 1002.57C566.51 1074.28 482.111 1105.64 410.957 1079.74C339.802 1053.85 295.308 975.57 280.925 869.891C266.543 764.219 282.276 631.182 331.539 495.832C380.803 360.482 454.265 248.456 533.207 176.751C612.154 105.042 696.554 73.6793 767.708 99.5774Z" stroke="#3F83F8" stroke-width="0.25"/>
<path d="M117.156 810.684C85.1552 742.057 109.042 655.246 173.598 570.349C238.15 485.458 343.347 402.512 473.889 341.64C604.43 280.767 735.589 253.498 842.113 258.616C948.643 263.733 1030.5 301.236 1062.5 369.863C1094.5 438.49 1070.61 525.301 1006.06 610.198C941.506 695.089 836.31 778.035 705.769 838.908C575.227 899.78 444.067 927.048 337.543 921.931C231.013 916.813 149.157 879.311 117.156 810.684Z" stroke="#3F83F8" stroke-width="0.25"/>
<path d="M368.666 117.195C437.292 85.1942 524.103 109.082 609 173.637C693.891 238.19 776.838 343.386 837.71 473.927C898.582 604.469 925.85 735.628 920.733 842.152C915.615 948.682 878.113 1030.54 809.487 1062.54C740.86 1094.54 654.048 1070.65 569.152 1006.1C484.261 941.545 401.314 836.349 340.442 705.807C279.57 575.266 252.301 444.106 257.419 337.582C262.536 231.052 300.039 149.196 368.666 117.195Z" stroke="#3F83F8" stroke-width="0.25"/>
<path d="M543.641 70.2168C619.074 63.6175 692.48 115.756 750.177 205.454C807.87 295.148 849.836 422.37 862.389 565.858C874.943 709.347 855.707 841.922 814.465 940.271C773.221 1038.63 709.984 1102.72 634.551 1109.32C559.118 1115.92 485.712 1063.78 428.014 974.082C370.321 884.388 328.356 757.167 315.802 613.678C303.249 470.19 322.484 337.614 363.726 239.264C404.971 140.909 468.208 76.8163 543.641 70.2168Z" stroke="#3F83F8" stroke-width="0.25"/>
<path d="M1109.29 543.746C1115.89 619.179 1063.75 692.585 974.049 750.283C884.356 807.976 757.134 849.94 613.645 862.494C470.157 875.047 337.582 855.813 239.232 814.571C140.877 773.326 76.7844 710.089 70.1847 634.656C63.5851 559.223 115.723 485.816 205.422 428.119C295.116 370.426 422.337 328.461 565.825 315.907C709.313 303.353 841.89 322.589 940.239 363.831C1038.59 405.075 1102.69 468.313 1109.29 543.746Z" stroke="#3F83F8" stroke-width="0.25"/>
<path d="M189.82 254.997C238.492 196.991 327.266 181.952 431.49 204.581C535.709 227.208 655.341 287.495 765.68 380.08C876.018 472.665 956.162 580.011 996.543 678.717C1036.93 777.428 1037.53 867.465 988.858 925.47C940.186 983.476 851.413 998.515 747.188 975.887C642.969 953.259 523.337 892.974 412.998 800.389C302.66 707.804 222.516 600.457 182.135 501.751C141.752 403.039 141.147 313.003 189.82 254.997Z" stroke="#3F83F8" stroke-width="0.25"/>
<path d="M924.626 189.861C982.632 238.533 997.67 327.306 975.042 431.531C952.414 535.749 892.129 655.383 799.544 765.721C706.959 876.059 599.612 956.203 500.906 996.584C402.195 1036.97 312.159 1037.57 254.153 988.9C196.148 940.227 181.108 851.454 203.737 747.229C226.365 643.011 286.65 523.378 379.235 413.04C471.819 302.701 579.167 222.557 677.873 182.176C776.585 141.793 866.621 141.188 924.626 189.861Z" stroke="#3F83F8" stroke-width="0.25"/>
<path d="M92.2111 433.655C114.981 361.439 191.242 313.572 296.192 294.593C401.137 275.616 534.734 285.532 672.104 328.844C809.473 372.157 924.596 440.662 999.677 516.401C1074.76 592.145 1109.78 675.096 1087.01 747.313C1064.24 819.529 987.975 867.396 883.025 886.374C778.08 905.352 644.484 895.437 507.114 852.125C369.744 808.812 254.621 740.306 179.54 664.567C104.455 588.823 69.4413 505.872 92.2111 433.655Z" stroke="#3F83F8" stroke-width="0.25"/>
<path d="M746.158 92.2783C818.375 115.048 866.24 191.309 885.219 296.259C904.197 401.204 894.282 534.801 850.969 672.171C807.657 809.541 739.151 924.663 663.411 999.744C587.668 1074.83 504.717 1109.84 432.501 1087.07C360.284 1064.3 312.418 988.043 293.439 883.092C274.461 778.147 284.376 644.551 327.689 507.181C371.001 369.811 439.508 254.688 515.247 179.607C590.991 104.523 673.942 69.5085 746.158 92.2783Z" stroke="#3F83F8" stroke-width="0.25"/>
<path d="M127.243 831.085C92.2793 763.919 112.357 676.148 173.148 588.517C233.936 500.891 335.415 413.435 463.177 346.926C590.939 280.418 720.783 247.454 827.429 247.92C934.081 248.386 1017.49 282.283 1052.46 349.448C1087.42 416.613 1067.35 504.384 1006.55 592.016C945.766 679.642 844.288 767.098 716.527 833.607C588.765 900.115 458.919 933.079 352.273 932.613C245.621 932.147 162.207 898.25 127.243 831.085Z" stroke="#3F83F8" stroke-width="0.25"/>
<path d="M348.264 127.285C415.43 92.3211 503.2 112.399 590.831 173.19C678.458 233.978 765.914 335.457 832.423 463.218C898.931 590.98 931.894 720.825 931.428 827.471C930.962 934.123 897.066 1017.54 829.901 1052.5C762.735 1087.46 674.964 1067.39 587.333 1006.6C499.707 945.808 412.251 844.33 345.742 716.568C279.234 588.806 246.27 458.961 246.736 352.315C247.202 245.663 281.099 162.249 348.264 127.285Z" stroke="#3F83F8" stroke-width="0.25"/>
<path d="M521.024 72.7191C596.097 62.8357 671.707 111.722 733.262 198.819C794.813 285.911 842.287 411.181 861.088 553.985C879.888 696.789 866.454 830.078 829.541 930.133C792.626 1030.19 732.245 1096.98 657.172 1106.87C582.099 1116.75 506.488 1067.86 444.933 980.767C383.382 893.675 335.908 768.406 317.107 625.602C298.307 482.797 311.741 349.508 348.654 249.454C385.569 149.393 445.951 82.6027 521.024 72.7191Z" stroke="#3F83F8" stroke-width="0.25"/>
<path d="M1106.79 521.125C1116.67 596.198 1067.78 671.809 980.686 733.363C893.594 794.915 768.324 842.388 625.519 861.189C482.715 879.989 349.427 866.555 249.372 829.643C149.312 792.728 82.5217 732.346 72.638 657.273C62.7544 582.199 111.641 506.589 198.738 445.034C285.829 383.483 411.099 336.008 553.903 317.208C696.707 298.407 829.996 311.842 930.051 348.755C1030.11 385.67 1096.9 446.051 1106.79 521.125Z" stroke="#3F83F8" stroke-width="0.25"/>
<path d="M175.597 272.757C221.693 212.684 309.726 193.787 414.839 211.848C519.945 229.908 642.093 284.918 756.365 372.602C870.637 460.286 955.387 564.034 1000.04 660.885C1044.69 757.741 1049.22 847.665 1003.12 907.739C957.025 967.813 868.992 986.709 763.88 968.649C658.773 950.589 536.625 895.579 422.353 807.895C308.081 720.211 223.331 616.462 178.683 519.611C134.033 422.755 129.501 332.831 175.597 272.757Z" stroke="#3F83F8" stroke-width="0.25"/>
<path d="M906.864 175.631C966.938 221.727 985.834 309.76 967.773 414.872C949.713 519.978 894.703 642.127 807.019 756.399C719.336 870.671 615.587 955.42 518.736 1000.07C421.88 1044.72 331.956 1049.25 271.883 1003.16C211.809 957.059 192.912 869.026 210.973 763.914C229.033 658.807 284.043 536.659 371.726 422.387C459.41 308.115 563.159 223.365 660.01 178.717C756.867 134.067 846.791 129.535 906.864 175.631Z" stroke="#3F83F8" stroke-width="0.25"/>
<path d="M85.8759 455.503C105.474 382.362 179.574 331.214 283.597 307.676C387.614 284.138 521.516 288.218 660.645 325.497C799.773 362.776 917.775 426.195 996.087 498.587C1074.4 570.983 1113 652.328 1093.41 725.469C1073.81 798.61 999.707 849.758 895.684 873.296C791.667 896.833 657.766 892.755 518.637 855.476C379.509 818.197 261.507 754.777 183.194 682.385C104.877 609.988 66.2779 528.644 85.8759 455.503Z" stroke="#3F83F8" stroke-width="0.25"/>
<path d="M724.31 85.9261C797.451 105.524 848.597 179.624 872.136 283.647C895.673 387.664 891.595 521.566 854.316 660.695C817.036 799.823 753.617 917.825 681.225 996.137C608.829 1074.45 527.484 1113.05 454.343 1093.46C381.202 1073.86 330.055 999.757 306.517 895.734C282.979 791.717 287.057 657.816 324.337 518.687C361.616 379.559 425.035 261.557 497.428 183.244C569.824 104.927 651.169 66.3281 724.31 85.9261Z" stroke="#3F83F8" stroke-width="0.25"/>
<path d="M138.209 851.026C100.349 785.45 116.579 696.886 173.49 606.687C230.398 516.492 327.965 424.694 452.704 352.675C577.444 280.657 705.727 242.061 812.291 237.875C918.862 233.688 1003.67 263.914 1041.54 329.491C1079.4 395.067 1063.17 483.63 1006.25 573.83C949.347 664.024 851.781 755.823 727.042 827.842C602.303 899.86 474.018 938.456 367.454 942.642C260.883 946.828 176.07 916.603 138.209 851.026Z" stroke="#3F83F8" stroke-width="0.25"/>
<path d="M328.321 138.255C393.898 100.395 482.46 116.626 572.66 173.537C662.854 230.444 754.654 328.011 826.672 452.75C898.69 577.49 937.285 705.773 941.472 812.338C945.658 918.908 915.433 1003.72 849.857 1041.58C784.28 1079.44 695.717 1063.21 605.517 1006.3C515.323 949.393 423.524 851.827 351.506 727.088C279.487 602.349 240.892 474.064 236.705 367.5C232.519 260.929 262.745 176.116 328.321 138.255Z" stroke="#3F83F8" stroke-width="0.25"/>
<path d="M498.538 76.206C573.108 63.0574 650.779 108.599 716.074 192.928C781.366 277.252 834.259 400.332 859.271 542.181C884.282 684.029 876.674 817.776 844.161 919.346C811.646 1020.92 754.236 1090.28 679.665 1103.43C605.094 1116.58 527.423 1071.04 462.128 986.709C396.837 902.385 343.943 779.305 318.931 637.457C293.92 495.609 301.528 361.861 334.041 260.291C366.556 158.715 423.967 89.3549 498.538 76.206Z" stroke="#3F83F8" stroke-width="0.25"/>
<path d="M1103.3 498.634C1116.45 573.205 1070.91 650.876 986.579 716.171C902.255 781.463 779.175 834.355 637.326 859.367C495.478 884.379 361.731 876.772 260.161 844.258C158.586 811.743 89.2253 754.332 76.0764 679.762C62.9275 605.191 108.469 527.52 192.798 462.224C277.122 396.933 400.202 344.04 542.05 319.028C683.898 294.016 817.647 301.624 919.216 334.137C1020.79 366.652 1090.15 424.063 1103.3 498.634Z" stroke="#3F83F8" stroke-width="0.25"/>
<path d="M162.166 291.121C205.598 229.094 292.723 206.375 398.523 219.834C504.317 233.292 628.749 282.922 746.737 365.538C864.724 448.154 953.919 548.107 1002.75 642.918C1051.58 737.734 1060.03 827.375 1016.6 889.402C973.168 951.429 886.044 974.148 780.243 960.689C674.449 947.231 550.018 897.602 432.03 814.986C314.042 732.37 224.847 632.417 176.017 537.606C127.184 442.789 118.734 353.148 162.166 291.121Z" stroke="#3F83F8" stroke-width="0.25"/>
<path d="M888.5 162.19C950.527 205.622 973.245 292.746 959.787 398.547C946.329 504.341 896.699 628.773 814.083 746.761C731.467 864.748 631.514 953.943 536.703 1002.77C441.887 1051.61 352.246 1060.06 290.219 1016.62C228.192 973.192 205.473 886.067 218.932 780.267C232.39 674.473 282.019 550.041 364.635 432.054C447.251 314.066 547.205 224.871 642.016 176.041C736.832 127.208 826.473 118.758 888.5 162.19Z" stroke="#3F83F8" stroke-width="0.25"/>
<path d="M80.5005 477.606C96.8897 403.68 168.688 349.349 271.585 321.295C374.477 293.244 508.429 291.478 649.052 322.653C789.674 353.828 910.329 412.039 991.725 480.947C1073.13 549.858 1115.24 629.442 1098.85 703.368C1082.46 777.294 1010.66 831.625 907.762 859.679C804.871 887.731 670.919 889.497 530.297 858.322C389.674 827.147 269.018 768.935 187.623 700.028C106.222 631.116 64.1115 551.532 80.5005 477.606Z" stroke="#3F83F8" stroke-width="0.25"/>
<path d="M702.206 80.5334C776.132 96.9226 830.462 168.721 858.515 271.618C886.567 374.509 888.334 508.462 857.159 649.084C825.983 789.706 767.772 910.362 698.864 991.757C629.953 1073.16 550.37 1115.27 476.444 1098.88C402.517 1082.49 348.187 1010.69 320.133 907.795C292.081 804.904 290.314 670.951 321.49 530.329C352.665 389.707 410.877 269.051 479.784 187.655C548.696 106.255 628.279 64.1444 702.206 80.5334Z" stroke="#3F83F8" stroke-width="0.25"/>
<path d="M150.037 870.47C109.352 806.608 121.704 717.421 174.626 624.824C227.545 532.234 321.016 436.266 442.495 358.876C563.974 281.485 690.452 237.33 796.732 228.499C903.019 219.668 989.069 246.166 1029.75 310.028C1070.44 373.891 1058.09 463.078 1005.17 555.674C952.246 648.265 858.777 744.233 737.298 821.623C615.819 899.014 489.34 943.169 383.06 951.999C276.773 960.83 190.722 934.333 150.037 870.47Z" stroke="#3F83F8" stroke-width="0.25"/>
<path d="M308.877 150.086C372.739 109.401 461.925 121.753 554.522 174.675C647.112 227.595 743.08 321.064 820.471 442.544C897.862 564.023 942.016 690.501 950.847 796.781C959.678 903.067 933.181 989.118 869.318 1029.8C805.456 1070.49 716.269 1058.14 623.672 1005.21C531.082 952.295 435.114 858.825 357.723 737.346C280.333 615.867 236.178 489.389 227.348 383.108C218.516 276.821 245.014 190.771 308.877 150.086Z" stroke="#3F83F8" stroke-width="0.25"/>
<path d="M476.224 80.6705C550.15 64.2817 629.733 106.392 698.645 187.793C767.552 269.189 825.764 389.845 856.939 530.467C888.114 671.089 886.348 805.041 858.296 907.932C830.242 1010.83 775.912 1082.63 701.986 1099.02C628.06 1115.41 548.476 1073.3 479.564 991.895C410.657 910.499 352.445 789.844 321.27 649.222C290.095 508.599 291.861 374.647 319.913 271.755C347.967 168.858 402.298 97.0596 476.224 80.6705Z" stroke="#3F83F8" stroke-width="0.25"/>
<path d="M1098.84 476.317C1115.23 550.243 1073.12 629.827 991.716 698.739C910.32 767.646 789.664 825.857 649.042 857.032C508.42 888.207 374.468 886.442 271.577 858.39C168.68 830.336 96.8811 776.005 80.4919 702.079C64.1029 628.153 106.213 548.569 187.614 479.657C269.01 410.75 389.665 352.538 530.287 321.363C670.909 290.188 804.862 291.954 907.753 320.006C1010.65 348.06 1082.45 402.391 1098.84 476.317Z" stroke="#3F83F8" stroke-width="0.25"/>
<path d="M149.546 310.053C190.231 246.191 276.282 219.693 382.569 228.524C488.849 237.355 615.327 281.51 736.806 358.901C858.285 436.292 951.755 532.259 1004.67 624.849C1057.6 717.446 1069.95 806.633 1029.26 870.495C988.579 934.358 902.528 960.855 796.241 952.024C689.961 943.194 563.483 899.039 442.004 821.649C320.524 744.258 227.055 648.29 174.135 555.699C121.213 463.103 108.861 373.916 149.546 310.053Z" stroke="#3F83F8" stroke-width="0.25"/>
<path d="M869.566 149.563C933.428 190.248 959.925 276.298 951.094 382.585C942.263 488.865 898.109 615.344 820.718 736.823C743.327 858.302 647.36 951.771 554.769 1004.69C462.173 1057.61 372.986 1069.96 309.124 1029.28C245.261 988.595 218.764 902.544 227.595 796.257C236.425 689.977 280.58 563.499 357.97 442.02C435.361 320.541 531.329 227.071 623.92 174.152C716.516 121.229 805.703 108.878 869.566 149.563Z" stroke="#3F83F8" stroke-width="0.25"/>
<path d="M76.0936 499.923C89.2426 425.352 158.603 367.941 260.179 335.426C361.748 302.913 495.496 295.306 637.345 320.318C779.193 345.329 902.272 398.222 986.596 463.513C1070.93 528.809 1116.47 606.48 1103.32 681.051C1090.17 755.621 1020.81 813.032 919.233 845.547C817.664 878.061 683.916 885.669 542.068 860.657C400.22 835.645 277.14 782.752 192.816 717.46C108.487 652.165 62.9448 574.494 76.0936 499.923Z" stroke="#3F83F8" stroke-width="0.25"/>
<path d="M679.887 76.1097C754.457 89.2587 811.868 158.619 844.383 260.194C876.896 361.764 884.504 495.512 859.492 637.361C834.481 779.209 781.587 902.288 716.296 986.612C651.001 1070.94 573.33 1116.48 498.76 1103.33C424.189 1090.19 366.778 1020.83 334.263 919.249C301.749 817.68 294.142 683.932 319.153 542.084C344.165 400.236 397.058 277.156 462.35 192.832C527.645 108.503 605.316 62.9609 679.887 76.1097Z" stroke="#3F83F8" stroke-width="0.25"/>
<path d="M162.701 889.38C119.269 827.353 127.719 737.712 176.552 642.896C225.382 548.085 314.577 448.132 432.565 365.516C550.553 282.9 674.984 233.27 780.778 219.812C886.578 206.353 973.703 229.072 1017.13 291.099C1060.57 353.126 1052.12 442.767 1003.28 537.584C954.454 632.395 865.26 732.348 747.272 814.964C629.284 897.58 504.852 947.209 399.058 960.667C293.257 974.126 206.133 951.407 162.701 889.38Z" stroke="#3F83F8" stroke-width="0.25"/>
<path d="M289.967 162.753C351.994 119.321 441.634 127.771 536.451 176.604C631.262 225.434 731.216 314.629 813.832 432.617C896.447 550.605 946.076 675.036 959.535 780.83C972.993 886.63 950.275 973.755 888.248 1017.19C826.221 1060.62 736.58 1052.17 641.764 1003.34C546.953 954.506 446.999 865.311 364.383 747.324C281.768 629.336 232.138 504.904 218.68 399.11C205.221 293.309 227.94 206.184 289.967 162.753Z" stroke="#3F83F8" stroke-width="0.25"/>
<path d="M454.125 86.1035C527.266 66.5057 608.61 105.105 681.007 183.422C753.399 261.735 816.818 379.737 854.098 518.865C891.377 657.994 895.455 791.895 871.918 895.912C848.379 999.935 797.233 1074.03 724.092 1093.63C650.951 1113.23 569.606 1074.63 497.209 996.315C424.817 918.002 361.398 800.001 324.118 660.873C286.839 521.744 282.761 387.842 306.298 283.825C329.837 179.802 380.984 105.702 454.125 86.1035Z" stroke="#3F83F8" stroke-width="0.25"/>
<path d="M1093.4 454.216C1113 527.357 1074.4 608.701 996.087 681.098C917.774 753.49 799.772 816.909 660.643 854.188C521.515 891.467 387.613 895.546 283.596 872.009C179.573 848.471 105.473 797.323 85.8752 724.182C66.2772 651.041 104.876 569.696 183.193 497.3C261.506 424.908 379.507 361.488 518.636 324.209C657.764 286.93 791.667 282.851 895.683 306.389C999.706 329.927 1073.81 381.075 1093.4 454.216Z" stroke="#3F83F8" stroke-width="0.25"/>
<path d="M137.765 329.518C175.626 263.941 260.439 233.715 367.01 237.902C473.574 242.088 601.858 280.685 726.597 352.703C851.336 424.721 948.903 516.52 1005.81 606.714C1062.72 696.914 1078.95 785.477 1041.09 851.053C1003.23 916.63 918.418 946.856 811.847 942.669C705.283 938.483 576.999 899.887 452.26 827.869C327.521 755.851 229.954 664.051 173.046 573.857C116.135 483.657 99.9047 395.094 137.765 329.518Z" stroke="#3F83F8" stroke-width="0.25"/>
<path d="M850.098 137.773C915.674 175.634 945.9 260.446 941.713 367.017C937.527 473.581 898.931 601.866 826.913 726.605C754.895 851.344 663.096 948.91 572.901 1005.82C482.702 1062.73 394.139 1078.96 328.563 1041.1C262.986 1003.24 232.76 918.425 236.947 811.855C241.133 705.29 279.729 577.007 351.747 452.268C423.765 327.528 515.565 229.961 605.759 173.054C695.959 116.143 784.522 99.9124 850.098 137.773Z" stroke="#3F83F8" stroke-width="0.25"/>
<path d="M72.6634 522.411C82.5471 447.337 149.337 386.955 249.398 350.04C349.453 313.128 482.742 299.694 625.546 318.495C768.35 337.295 893.62 384.769 980.711 446.32C1067.81 507.874 1116.69 583.485 1106.81 658.559C1096.93 733.632 1030.14 794.014 930.077 830.929C830.022 867.841 696.733 881.276 553.929 862.476C411.125 843.675 285.855 796.201 198.763 734.649C111.666 673.095 62.7798 597.484 72.6634 522.411Z" stroke="#3F83F8" stroke-width="0.25"/>
<path d="M657.396 72.6635C732.469 82.5472 792.85 149.337 829.765 249.398C866.677 349.453 880.112 482.742 861.311 625.546C842.511 768.35 795.036 893.62 733.485 980.711C671.931 1067.81 596.321 1116.69 521.248 1106.81C446.174 1096.93 385.793 1030.14 348.878 930.077C311.965 830.022 298.53 696.734 317.331 553.929C336.131 411.125 383.606 285.855 445.157 198.763C506.712 111.666 582.322 62.7799 657.396 72.6635Z" stroke="#3F83F8" stroke-width="0.25"/>
<path d="M176.176 907.719C130.08 847.646 134.612 757.722 179.262 660.865C223.91 564.014 308.661 460.266 422.933 372.582C537.205 284.898 659.353 229.888 764.459 211.828C869.571 193.767 957.604 212.664 1003.7 272.738C1049.8 332.811 1045.26 422.735 1000.61 519.592C955.966 616.442 871.217 720.191 756.945 807.875C642.673 895.559 520.524 950.569 415.418 968.629C310.305 986.69 222.272 967.793 176.176 907.719Z" stroke="#3F83F8" stroke-width="0.25"/>
<path d="M271.626 176.232C331.7 130.136 421.623 134.668 518.479 179.319C615.33 223.967 719.079 308.717 806.763 422.989C894.447 537.26 949.456 659.409 967.516 764.515C985.577 869.627 966.681 957.66 906.608 1003.76C846.534 1049.85 756.61 1045.32 659.753 1000.67C562.903 956.022 459.154 871.272 371.47 757.001C283.786 642.729 228.776 520.58 210.716 415.473C192.655 310.361 211.552 222.328 271.626 176.232Z" stroke="#3F83F8" stroke-width="0.25"/>
<path d="M432.286 92.4957C504.503 69.7261 587.453 104.74 663.197 179.825C738.936 254.905 807.442 370.029 850.755 507.399C894.067 644.769 903.982 778.365 885.005 883.31C866.026 988.26 818.16 1064.52 745.944 1087.29C673.727 1110.06 590.776 1075.05 515.032 999.961C439.293 924.881 370.787 809.758 327.474 672.389C284.162 535.018 274.247 401.421 293.225 296.477C312.203 191.526 360.07 115.265 432.286 92.4957Z" stroke="#3F83F8" stroke-width="0.25"/>
<path d="M1087.01 432.372C1109.78 504.589 1074.77 587.54 999.685 663.284C924.605 739.023 809.481 807.528 672.111 850.841C534.741 894.154 401.145 904.069 296.201 885.092C191.25 866.113 114.99 818.246 92.2197 746.03C69.4499 673.813 104.464 590.862 179.549 515.118C254.629 439.379 369.752 370.873 507.122 327.561C644.492 284.248 778.089 274.333 883.033 293.311C987.984 312.289 1064.24 360.156 1087.01 432.372Z" stroke="#3F83F8" stroke-width="0.25"/>
<path d="M126.844 349.477C161.808 282.312 245.222 248.415 351.874 247.949C458.519 247.483 588.365 280.447 716.127 346.956C843.888 413.465 945.367 500.92 1006.15 588.546C1066.95 676.177 1087.02 763.949 1052.06 831.114C1017.1 898.28 933.681 932.176 827.029 932.642C720.384 933.108 590.539 900.145 462.777 833.637C335.015 767.128 233.536 679.671 172.749 592.045C111.957 504.414 91.8796 416.643 126.844 349.477Z" stroke="#3F83F8" stroke-width="0.25"/>
<path d="M830.136 126.844C897.301 161.808 931.197 245.222 931.663 351.873C932.129 458.519 899.165 588.365 832.657 716.127C766.148 843.888 678.692 945.366 591.066 1006.15C503.435 1066.95 415.664 1087.02 348.499 1052.06C281.333 1017.1 247.437 933.681 246.971 827.029C246.505 720.384 279.468 590.539 345.976 462.777C412.485 335.015 499.941 233.536 587.568 172.749C675.199 111.957 762.97 91.8796 830.136 126.844Z" stroke="#3F83F8" stroke-width="0.25"/>
<path d="M70.2184 545.026C76.8181 469.594 140.911 406.356 239.266 365.111C337.615 323.869 470.192 304.635 613.68 317.188C757.168 329.742 884.389 371.706 974.083 429.4C1063.78 487.097 1115.92 560.503 1109.32 635.936C1102.72 711.369 1038.63 774.607 940.273 815.851C841.924 857.093 709.348 876.329 565.86 863.775C422.371 851.222 295.149 809.257 205.456 751.563C115.757 693.866 63.6189 620.459 70.2184 545.026Z" stroke="#3F83F8" stroke-width="0.25"/>
<path d="M634.776 70.2018C710.209 76.8015 773.446 140.894 814.691 239.249C855.932 337.599 875.168 470.175 862.615 613.663C850.061 757.152 808.096 884.373 750.402 974.066C692.705 1063.77 619.3 1115.9 543.867 1109.3C468.434 1102.7 405.196 1038.61 363.952 940.256C322.71 841.907 303.474 709.331 316.028 565.843C328.581 422.355 370.546 295.133 428.24 205.439C485.937 115.74 559.343 63.6023 634.776 70.2018Z" stroke="#3F83F8" stroke-width="0.25"/>
<path d="M190.44 925.453C141.768 867.447 142.372 777.411 182.756 678.699C223.137 579.993 303.281 472.647 413.62 380.062C523.958 287.477 643.59 227.191 747.808 204.564C852.033 181.935 940.806 196.974 989.479 254.98C1038.15 312.986 1037.55 403.022 997.163 501.734C956.782 600.44 876.639 707.787 766.301 800.371C655.963 892.956 536.329 953.242 432.111 975.869C327.886 998.498 239.113 983.459 190.44 925.453Z" stroke="#3F83F8" stroke-width="0.25"/>
<path d="M253.891 190.499C311.897 141.827 401.932 142.432 500.644 182.815C599.35 223.196 706.697 303.34 799.282 413.678C891.867 524.017 952.152 643.649 974.78 747.868C997.408 852.092 982.37 940.865 924.364 989.538C866.359 1038.21 776.322 1037.61 677.611 997.222C578.905 956.841 471.558 876.698 378.973 766.36C286.388 656.021 226.103 536.388 203.475 432.17C180.846 327.945 195.885 239.171 253.891 190.499Z" stroke="#3F83F8" stroke-width="0.25"/>
<path d="M410.745 99.8339C481.899 73.9359 566.298 105.299 645.245 177.008C724.187 248.713 797.65 360.739 846.913 496.089C896.176 631.439 911.909 764.475 897.527 870.148C883.144 975.826 838.65 1054.1 767.496 1080C696.342 1105.9 611.942 1074.54 532.995 1002.83C454.053 931.121 380.591 819.097 331.327 683.747C282.064 548.397 266.331 415.359 280.713 309.687C295.096 204.008 339.59 125.732 410.745 99.8339Z" stroke="#3F83F8" stroke-width="0.25"/>
<path d="M1079.67 410.828C1105.57 481.983 1074.21 566.382 1002.5 645.329C930.796 724.271 818.77 797.733 683.42 846.996C548.07 896.26 415.034 911.993 309.361 897.611C203.682 883.229 125.407 838.734 99.5084 767.58C73.6102 696.425 104.973 612.026 176.682 533.079C248.387 454.136 360.412 380.674 495.762 331.411C631.112 282.147 764.15 266.414 869.822 280.796C975.501 295.179 1053.78 339.674 1079.67 410.828Z" stroke="#3F83F8" stroke-width="0.25"/>
<path d="M116.804 369.894C148.805 301.268 230.661 263.765 337.191 258.647C443.715 253.53 574.874 280.799 705.416 341.671C835.957 402.544 941.153 485.489 1005.71 570.381C1070.26 655.277 1094.15 742.089 1062.15 810.715C1030.15 879.342 948.29 916.845 841.76 921.963C735.236 927.08 604.077 899.812 473.536 838.94C342.994 778.067 237.798 695.12 173.246 610.229C108.69 525.333 84.8027 438.521 116.804 369.894Z" stroke="#3F83F8" stroke-width="0.25"/>
<path d="M809.714 116.795C878.34 148.797 915.842 230.652 920.96 337.182C926.077 443.706 898.809 574.866 837.937 705.407C777.064 835.949 694.118 941.145 609.227 1005.7C524.33 1070.25 437.519 1094.14 368.893 1062.14C300.266 1030.14 262.763 948.282 257.646 841.752C252.528 735.228 279.796 604.069 340.668 473.527C401.541 342.986 484.488 237.789 569.379 173.237C654.275 108.681 741.087 84.7943 809.714 116.795Z" stroke="#3F83F8" stroke-width="0.25"/>
<path d="M68.7616 567.727C72.0646 492.078 133.338 426.105 229.8 380.61C326.257 335.117 457.868 310.118 601.768 316.4C745.667 322.683 874.598 359.058 966.722 412.784C1058.85 466.514 1114.14 537.576 1110.84 613.225C1107.54 688.874 1046.26 754.847 949.801 800.343C853.344 845.835 721.734 870.836 577.835 864.553C433.935 858.27 305.004 821.894 212.879 768.168C120.749 714.439 65.4587 643.376 68.7616 567.727Z" stroke="#3F83F8" stroke-width="0.25"/>
<path d="M612.07 68.7287C687.719 72.0318 753.691 133.305 799.187 229.768C844.679 326.224 869.679 457.835 863.397 601.735C857.114 745.634 820.738 874.565 767.012 966.689C713.282 1058.82 642.221 1114.11 566.572 1110.81C490.923 1107.5 424.95 1046.23 379.454 949.768C333.962 853.312 308.961 721.701 315.244 577.802C321.527 433.903 357.903 304.971 411.629 212.846C465.359 120.716 536.421 65.4258 612.07 68.7287Z" stroke="#3F83F8" stroke-width="0.25"/>
<path d="M205.463 942.548C154.307 886.72 150.983 796.744 187.023 696.364C223.06 595.991 298.446 485.251 404.641 387.941C510.835 290.631 627.724 225.184 730.856 198.033C833.995 170.879 923.339 182.032 974.496 237.859C1025.65 293.687 1028.98 383.664 992.936 484.043C956.899 584.416 881.515 695.157 775.32 792.466C669.125 889.776 552.235 955.223 449.103 982.375C345.964 1009.53 256.62 998.376 205.463 942.548Z" stroke="#3F83F8" stroke-width="0.25"/>
<path d="M236.796 205.525C292.623 154.369 382.6 151.046 482.979 187.085C583.353 223.122 694.093 298.508 791.403 404.703C888.712 510.897 954.159 627.786 981.311 730.918C1008.46 834.057 997.312 923.401 941.484 974.558C885.657 1025.71 795.68 1029.04 695.301 992.998C594.927 956.961 484.187 881.577 386.877 775.382C289.568 669.187 224.121 552.297 196.969 449.165C169.816 346.026 180.968 256.682 236.796 205.525Z" stroke="#3F83F8" stroke-width="0.25"/>
</svg>
