<svg width="664" height="677" viewBox="0 0 664 677" fill="none" xmlns="http://www.w3.org/2000/svg">
<g clip-path="url(#clip0_64_3208)">
<path d="M291.101 37.5674C332.728 37.5674 370.445 69.6396 397.763 121.561C425.077 173.476 441.976 245.206 441.976 324.442C441.976 403.679 425.077 475.409 397.763 527.324C370.445 579.245 332.728 611.317 291.101 611.317C249.473 611.317 211.756 579.245 184.438 527.324C157.124 475.409 140.226 403.679 140.226 324.442C140.226 245.206 157.124 173.476 184.438 121.561C211.756 69.6396 249.473 37.5674 291.101 37.5674Z" stroke="#3F83F8" stroke-width="0.25"/>
<path d="M578.354 324.162C578.354 365.79 546.281 403.507 494.36 430.824C442.445 458.139 370.715 475.037 291.479 475.037C212.242 475.037 140.512 458.139 88.5967 430.824C36.6757 403.507 4.60355 365.79 4.60355 324.162C4.60355 282.534 36.6757 244.817 88.5967 217.5C140.512 190.186 212.242 173.287 291.479 173.287C370.715 173.287 442.445 190.186 494.36 217.5C546.281 244.817 578.354 282.534 578.354 324.162Z" stroke="#3F83F8" stroke-width="0.25"/>
<path d="M88.3596 121.858C117.795 92.423 167.143 88.4316 223.173 105.829C279.197 123.225 341.867 161.996 397.896 218.025C453.924 274.054 492.696 336.723 510.091 392.747C527.489 448.777 523.497 498.125 494.062 527.561C464.627 556.996 415.278 560.988 359.248 543.59C303.224 526.195 240.555 487.423 184.526 431.394C128.497 375.365 89.7258 312.696 72.3302 256.672C54.9329 200.642 58.9242 151.294 88.3596 121.858Z" stroke="#3F83F8" stroke-width="0.25"/>
<path d="M494.131 121.393C523.566 150.828 527.558 200.176 510.16 256.206C492.765 312.23 453.993 374.9 397.965 430.929C341.936 486.958 279.266 525.729 223.242 543.125C167.212 560.522 117.864 556.531 88.4285 527.095C58.9932 497.66 55.0018 448.312 72.3992 392.282C89.7948 336.258 128.566 273.588 184.595 217.559C240.624 161.53 303.293 122.759 359.317 105.363C415.347 87.9661 464.696 91.9575 494.131 121.393Z" stroke="#3F83F8" stroke-width="0.25"/>
<path d="M26.3089 215.077C42.2392 176.618 86.3036 154.046 144.726 148.677C203.143 143.309 275.879 155.147 349.084 185.469C422.289 215.792 482.092 258.854 519.603 303.956C557.118 349.063 572.315 396.183 556.385 434.642C540.454 473.101 496.39 495.673 437.967 501.042C379.551 506.41 306.815 494.572 233.609 464.25C160.404 433.927 100.601 390.865 63.0906 345.763C25.5758 300.656 10.3786 253.536 26.3089 215.077Z" stroke="#3F83F8" stroke-width="0.25"/>
<path d="M401.015 59.3651C439.474 75.2954 462.046 119.36 467.415 177.782C472.783 236.199 460.945 308.935 430.623 382.14C400.3 455.346 357.238 515.148 312.136 552.659C267.028 590.174 219.909 605.371 181.45 589.441C142.991 573.511 120.419 529.446 115.05 471.024C109.682 412.607 121.519 339.871 151.842 266.666C182.165 193.46 225.226 133.658 270.329 96.1468C315.436 58.632 362.555 43.4348 401.015 59.3651Z" stroke="#3F83F8" stroke-width="0.25"/>
<path d="M26.4524 434.534C10.5221 396.075 25.7193 348.956 63.2341 303.849C100.745 258.746 160.548 215.684 233.753 185.362C306.958 155.039 379.694 143.202 438.111 148.57C496.534 153.938 540.598 176.511 556.528 214.97C572.459 253.429 557.261 300.548 519.746 345.655C482.236 390.758 422.433 433.82 349.228 464.142C276.022 494.465 203.286 506.302 144.87 500.934C86.4471 495.566 42.3827 472.993 26.4524 434.534Z" stroke="#3F83F8" stroke-width="0.25"/>
<path d="M181.305 59.4724C219.764 43.5422 266.883 58.7394 311.99 96.2542C357.093 133.765 400.155 193.568 430.477 266.773C460.8 339.978 472.637 412.714 467.269 471.131C461.901 529.554 439.328 573.618 400.869 589.548C362.41 605.479 315.291 590.281 270.183 552.767C225.081 515.256 182.019 455.453 151.697 382.248C121.374 309.042 109.536 236.306 114.904 177.89C120.273 119.467 142.845 75.4027 181.305 59.4724Z" stroke="#3F83F8" stroke-width="0.25"/>
<path d="M278.587 37.8544C320.176 36.0386 359.255 66.4351 388.812 117.115C418.365 167.79 438.376 238.714 441.832 317.875C445.288 397.037 431.535 469.435 406.511 522.493C381.484 575.556 345.202 609.243 303.614 611.058C262.026 612.874 222.946 582.478 193.39 531.798C163.837 481.123 143.825 410.199 140.369 331.037C136.913 251.876 150.667 179.478 175.69 126.42C200.717 73.357 236.999 39.6701 278.587 37.8544Z" stroke="#3F83F8" stroke-width="0.25"/>
<path d="M578.068 311.647C579.884 353.235 549.487 392.315 498.807 421.871C448.133 451.424 377.209 471.435 298.047 474.891C218.886 478.347 146.487 464.594 93.43 439.57C40.3668 414.543 6.67998 378.261 4.8642 336.673C3.04842 295.085 33.4449 256.005 84.1249 226.449C134.8 196.896 205.724 176.885 284.885 173.428C364.046 169.972 436.445 183.726 489.502 208.75C542.565 233.776 576.252 270.058 578.068 311.647Z" stroke="#3F83F8" stroke-width="0.25"/>
<path d="M79.7157 130.908C107.839 100.217 156.966 94.0771 213.702 109.014C270.431 123.949 334.732 159.95 393.152 213.482C451.571 267.013 493.039 327.932 512.862 383.144C532.687 438.362 530.852 487.837 502.729 518.528C474.605 549.22 425.478 555.36 368.742 540.423C312.013 525.488 247.712 489.487 189.292 435.955C130.873 382.424 89.4048 321.505 69.582 266.293C49.7573 211.075 51.5923 161.6 79.7157 130.908Z" stroke="#3F83F8" stroke-width="0.25"/>
<path d="M485.08 112.744C515.772 140.867 521.912 189.994 506.975 246.73C492.04 303.459 456.039 367.761 402.507 426.18C348.976 484.599 288.057 526.068 232.845 545.89C177.627 565.715 128.152 563.88 97.4605 535.757C66.7692 507.633 60.6291 458.506 75.5659 401.771C90.5012 345.041 126.502 280.74 180.034 222.321C233.565 163.901 294.484 122.433 349.696 102.61C404.914 82.7855 454.389 84.6205 485.08 112.744Z" stroke="#3F83F8" stroke-width="0.25"/>
<path d="M21.7898 226.745C36.0274 187.628 79.0653 163.155 137.198 155.243C195.325 147.332 268.508 155.986 342.966 183.086C417.425 210.187 479.049 250.599 518.491 294.022C557.938 337.45 575.176 383.862 560.938 422.979C546.701 462.097 503.663 486.57 445.53 494.482C387.403 502.393 314.22 493.739 239.762 466.638C165.304 439.538 103.68 399.126 64.237 355.702C24.7904 312.274 7.55228 265.863 21.7898 226.745Z" stroke="#3F83F8" stroke-width="0.25"/>
<path d="M389.347 54.8369C428.464 69.0744 452.937 112.112 460.849 170.245C468.76 228.372 460.107 301.555 433.006 376.013C405.905 450.472 365.493 512.096 322.07 551.538C278.642 590.985 232.23 608.223 193.113 593.985C153.995 579.748 129.523 536.71 121.611 478.577C113.7 420.45 122.353 347.267 149.454 272.809C176.554 198.351 216.967 136.727 260.39 97.284C303.818 57.8374 350.23 40.5993 389.347 54.8369Z" stroke="#3F83F8" stroke-width="0.25"/>
<path d="M31.5059 445.987C13.9133 408.26 27.0407 360.522 62.5522 313.821C98.0601 267.126 155.928 221.496 227.74 188.009C299.553 154.523 371.704 139.524 430.299 142.338C488.9 145.154 533.907 165.782 551.5 203.51C569.093 241.238 555.965 288.975 520.454 335.676C484.946 382.371 427.078 428.001 355.266 461.488C283.453 494.975 211.302 509.974 152.707 507.159C94.1057 504.344 49.0986 483.715 31.5059 445.987Z" stroke="#3F83F8" stroke-width="0.25"/>
<path d="M169.852 64.5278C207.579 46.9351 255.317 60.0625 302.017 95.5741C348.713 131.082 394.342 188.949 427.829 260.762C461.316 332.575 476.315 404.726 473.5 463.321C470.685 521.922 450.056 566.929 412.329 584.522C374.601 602.114 326.864 588.987 280.163 553.475C233.467 517.968 187.838 460.1 154.351 388.287C120.864 316.474 105.865 244.324 108.68 185.729C111.495 127.128 132.124 82.1205 169.852 64.5278Z" stroke="#3F83F8" stroke-width="0.25"/>
<path d="M266.098 38.6869C307.568 35.0588 347.936 63.7217 379.675 113.064C411.41 162.402 434.496 232.385 441.402 311.321C448.308 390.256 437.726 463.185 415.04 517.284C392.351 571.388 357.573 606.626 316.104 610.254C274.635 613.882 234.266 585.219 202.527 535.876C170.792 486.539 147.706 416.555 140.8 337.62C133.894 258.685 144.477 185.755 167.163 131.657C189.851 77.5524 224.629 42.315 266.098 38.6869Z" stroke="#3F83F8" stroke-width="0.25"/>
<path d="M577.236 299.155C580.864 340.625 552.201 380.993 502.859 412.732C453.522 444.467 383.538 467.553 304.602 474.459C225.667 481.365 152.738 470.782 98.6393 448.097C44.535 425.408 9.29761 390.63 5.6695 349.161C2.04139 307.691 30.7043 267.323 80.0468 235.584C129.384 203.849 199.368 180.763 278.303 173.857C357.238 166.951 430.168 177.534 484.266 200.22C538.371 222.908 573.608 257.686 577.236 299.155Z" stroke="#3F83F8" stroke-width="0.25"/>
<path d="M71.475 140.327C98.2329 108.438 147.046 100.161 204.379 112.609C261.706 125.055 327.516 158.217 388.215 209.15C448.914 260.082 492.999 319.134 515.212 373.429C537.426 427.729 537.751 477.238 510.993 509.126C484.235 541.015 435.423 549.292 378.089 536.845C320.763 524.398 254.952 491.236 194.253 440.304C133.555 389.371 89.4687 330.319 67.2565 276.025C45.042 221.724 44.7172 172.216 71.475 140.327Z" stroke="#3F83F8" stroke-width="0.25"/>
<path d="M475.662 104.498C507.55 131.256 515.828 180.069 503.38 237.402C490.933 294.729 457.771 360.539 406.839 421.238C355.907 481.936 296.855 526.022 242.56 548.235C188.259 570.449 138.751 570.774 106.862 544.016C74.9735 517.258 66.6964 468.446 79.1442 411.112C91.5907 353.785 124.753 287.975 175.685 227.276C226.617 166.578 285.669 122.492 339.964 100.279C394.265 78.065 443.773 77.7402 475.662 104.498Z" stroke="#3F83F8" stroke-width="0.25"/>
<path d="M17.7846 238.599C30.3023 198.898 72.2318 172.571 129.964 162.131C187.69 151.692 261.182 157.145 336.751 180.972C412.321 204.799 475.649 242.485 516.948 284.147C558.251 325.813 577.497 371.428 564.98 411.129C552.462 450.83 510.532 477.157 452.8 487.597C395.074 498.036 321.583 492.583 246.013 468.756C170.444 444.929 107.115 407.244 65.8164 365.582C24.513 323.916 5.26684 278.301 17.7846 238.599Z" stroke="#3F83F8" stroke-width="0.25"/>
<path d="M377.493 50.822C417.194 63.3397 443.521 105.269 453.961 163.002C464.4 220.728 458.947 294.219 435.12 369.788C411.293 445.358 373.607 508.686 331.946 549.985C290.28 591.289 244.664 610.535 204.963 598.017C165.262 585.499 138.935 543.57 128.495 485.837C118.056 428.111 123.509 354.62 147.336 279.05C171.163 203.481 208.849 140.153 250.511 98.8537C292.177 57.5503 337.792 38.3042 377.493 50.822Z" stroke="#3F83F8" stroke-width="0.25"/>
<path d="M37.0548 457.209C17.8332 420.284 28.8659 372.02 62.3066 323.815C95.7438 275.615 151.566 227.504 221.85 190.917C292.134 154.329 363.561 136.198 422.223 136.454C480.892 136.71 526.756 155.356 545.977 192.281C565.199 229.205 554.166 277.469 520.725 325.675C487.288 373.875 431.466 421.985 361.182 458.572C290.898 495.16 219.471 513.292 160.809 513.036C102.14 512.779 56.2764 494.133 37.0548 457.209Z" stroke="#3F83F8" stroke-width="0.25"/>
<path d="M158.629 70.0779C195.553 50.8563 243.818 61.889 292.023 95.3296C340.223 128.767 388.334 184.589 424.921 254.873C461.508 325.157 479.64 396.584 479.384 455.246C479.128 513.915 460.482 559.779 423.557 579C386.633 598.222 338.369 587.189 290.163 553.749C241.963 520.311 193.853 464.489 157.266 394.205C120.678 323.922 102.546 252.494 102.802 193.832C103.059 135.164 121.705 89.2995 158.629 70.0779Z" stroke="#3F83F8" stroke-width="0.25"/>
<path d="M253.656 40.0634C294.928 34.6298 336.508 61.5046 370.369 109.416C404.226 157.322 430.343 226.232 440.685 304.791C451.028 383.35 443.636 456.671 423.332 511.708C403.025 566.751 369.817 603.471 328.546 608.905C287.274 614.338 245.693 587.464 211.833 539.552C177.976 491.646 151.859 422.736 141.517 344.177C131.174 265.618 138.565 192.297 158.87 137.26C179.177 82.2177 212.384 45.4969 253.656 40.0634Z" stroke="#3F83F8" stroke-width="0.25"/>
<path d="M575.86 286.712C581.293 327.984 554.419 369.564 506.508 403.425C458.601 437.282 389.691 463.399 311.132 473.741C232.573 484.084 159.252 476.692 104.215 456.388C49.1728 436.081 12.452 402.873 7.01847 361.602C1.58494 320.33 28.4597 278.749 76.3709 244.889C124.277 211.032 193.187 184.915 271.746 174.573C350.305 164.23 423.627 171.622 478.663 191.926C533.706 212.233 570.426 245.44 575.86 286.712Z" stroke="#3F83F8" stroke-width="0.25"/>
<path d="M63.652 150.096C88.9935 117.071 137.399 106.672 195.22 116.607C253.035 126.541 320.229 156.801 383.092 205.037C445.955 253.274 492.575 310.346 517.134 363.62C541.696 416.9 544.18 466.347 518.839 499.373C493.497 532.399 445.092 542.797 387.27 532.862C329.455 522.928 262.261 492.668 199.398 444.432C136.536 396.195 89.9159 339.123 65.3565 285.849C40.7946 232.569 38.3106 183.122 63.652 150.096Z" stroke="#3F83F8" stroke-width="0.25"/>
<path d="M465.891 96.6708C498.917 122.012 509.315 170.417 499.38 228.239C489.446 286.054 459.186 353.248 410.95 416.111C362.714 478.974 305.641 525.593 252.367 550.153C199.087 574.715 149.64 577.199 116.614 551.857C83.5887 526.516 73.1903 478.111 83.1254 420.289C93.0595 362.474 123.319 295.28 171.556 232.417C219.792 169.554 276.865 122.935 330.139 98.3753C383.418 73.8134 432.866 71.3294 465.891 96.6708Z" stroke="#3F83F8" stroke-width="0.25"/>
<path d="M14.3001 250.617C25.0741 210.407 65.8153 182.277 123.037 169.328C180.253 156.381 253.913 158.623 330.449 179.131C406.986 199.639 471.898 234.527 514.975 274.348C558.057 314.172 579.274 358.905 568.5 399.114C557.726 439.324 516.985 467.454 459.763 480.403C402.547 493.35 328.888 491.108 252.351 470.6C175.814 450.092 110.902 415.204 67.8251 375.384C24.7435 335.559 3.52599 290.826 14.3001 250.617Z" stroke="#3F83F8" stroke-width="0.25"/>
<path d="M365.476 47.3279C405.685 58.102 433.816 98.8431 446.764 156.065C459.711 213.281 457.469 286.94 436.961 363.477C416.453 440.014 381.565 504.926 341.745 548.003C301.92 591.084 257.188 612.302 216.978 601.528C176.769 590.754 148.638 550.013 135.69 492.79C122.743 435.574 124.985 361.915 145.493 285.378C166.001 208.842 200.889 143.93 240.709 100.853C280.534 57.7713 325.266 36.5538 365.476 47.3279Z" stroke="#3F83F8" stroke-width="0.25"/>
<path d="M43.0868 468.178C22.2728 432.127 31.1898 383.427 62.4959 333.809C93.7989 284.196 147.469 233.697 216.09 194.079C284.711 154.46 355.28 133.23 413.898 130.927C472.521 128.624 519.155 145.252 539.969 181.303C560.783 217.353 551.866 266.053 520.56 315.671C489.257 365.284 435.586 415.783 366.965 455.402C298.344 495.02 227.775 516.25 169.158 518.553C110.534 520.856 63.9007 504.228 43.0868 468.178Z" stroke="#3F83F8" stroke-width="0.25"/>
<path d="M147.659 76.1122C183.71 55.2983 232.41 64.2152 282.028 95.5214C331.641 126.824 382.14 180.495 421.759 249.116C461.377 317.737 482.607 388.306 484.91 446.923C487.213 505.547 470.585 552.18 434.534 572.994C398.484 593.808 349.784 584.891 300.166 553.585C250.553 522.282 200.054 468.612 160.435 399.991C120.817 331.37 99.5867 260.801 97.284 202.183C94.9811 143.56 111.609 96.9262 147.659 76.1122Z" stroke="#3F83F8" stroke-width="0.25"/>
<path d="M241.288 41.9814C282.284 34.7528 324.997 59.7883 360.915 106.177C396.83 152.561 425.927 220.266 439.686 298.299C453.446 376.332 449.26 449.906 431.375 505.776C413.489 561.652 381.914 599.786 340.919 607.015C299.923 614.243 257.21 589.208 221.292 542.819C185.377 496.436 156.28 428.73 142.521 350.697C128.761 272.664 132.947 199.09 150.832 143.22C168.718 87.3444 200.293 49.21 241.288 41.9814Z" stroke="#3F83F8" stroke-width="0.25"/>
<path d="M573.943 274.341C581.172 315.337 556.137 358.05 509.748 393.968C463.364 429.883 395.659 458.98 317.626 472.739C239.593 486.499 166.019 482.313 110.149 464.428C54.273 446.542 16.1386 414.967 8.91004 373.972C1.68144 332.976 26.7169 290.263 73.1055 254.345C119.489 218.43 187.195 189.333 265.228 175.574C343.261 161.814 416.835 166 472.705 183.885C528.58 201.771 566.715 233.346 573.943 274.341Z" stroke="#3F83F8" stroke-width="0.25"/>
<path d="M56.2642 160.197C80.141 126.098 128.046 113.598 186.246 121.001C244.44 128.404 312.89 155.704 377.797 201.152C442.704 246.601 491.769 301.586 518.628 353.738C545.491 405.896 550.129 455.187 526.253 489.287C502.376 523.386 454.47 535.886 396.271 528.483C338.077 521.08 269.627 493.78 204.72 448.332C139.813 402.883 90.7483 347.898 63.8885 295.746C37.026 243.588 32.3874 194.297 56.2642 160.197Z" stroke="#3F83F8" stroke-width="0.25"/>
<path d="M455.79 89.2774C489.89 113.154 502.39 161.06 494.986 219.259C487.583 277.453 460.283 345.903 414.835 410.81C369.387 475.717 314.402 524.782 262.25 551.642C210.092 578.504 160.8 583.143 126.701 559.266C92.6012 535.389 80.1012 487.484 87.5047 429.284C94.9076 371.09 122.208 302.64 167.656 237.733C213.104 172.826 268.089 123.761 320.241 96.9017C372.399 70.0392 421.691 65.4007 455.79 89.2774Z" stroke="#3F83F8" stroke-width="0.25"/>
<path d="M11.3435 262.775C20.3534 222.134 59.8287 192.253 116.432 176.821C173.028 161.39 246.715 160.418 324.074 177.568C401.432 194.717 467.804 226.741 512.577 264.644C557.355 302.552 580.503 346.316 571.493 386.957C562.483 427.598 523.008 457.479 466.405 472.912C409.808 488.342 336.122 489.315 258.763 472.165C181.405 455.015 115.033 422.992 70.2598 385.088C25.4821 347.181 2.33356 303.416 11.3435 262.775Z" stroke="#3F83F8" stroke-width="0.25"/>
<path d="M353.317 44.3615C393.959 53.3714 423.84 92.8468 439.272 149.45C454.702 206.046 455.675 279.733 438.525 357.092C421.375 434.45 389.352 500.822 351.448 545.595C313.541 590.373 269.776 613.521 229.135 604.511C188.494 595.501 158.613 556.026 143.181 499.423C127.751 442.826 126.778 369.14 143.928 291.781C161.078 214.423 193.101 148.051 231.004 103.278C268.912 58.5001 312.676 35.3516 353.317 44.3615Z" stroke="#3F83F8" stroke-width="0.25"/>
<path d="M49.5923 478.873C27.2257 443.765 34.0099 394.722 63.1219 343.786C92.231 292.855 143.648 240.063 210.475 197.489C277.303 154.915 346.878 130.627 405.34 125.769C463.807 120.911 511.122 135.489 533.488 170.598C555.855 205.706 549.071 254.748 519.959 305.685C490.85 356.616 439.433 409.408 372.605 451.982C305.778 494.556 236.202 518.844 177.741 523.702C119.274 528.559 71.959 513.982 49.5923 478.873Z" stroke="#3F83F8" stroke-width="0.25"/>
<path d="M136.964 82.6195C172.073 60.2529 221.115 67.037 272.052 96.1491C322.982 125.258 375.775 176.675 418.349 243.502C460.923 310.33 485.211 379.906 490.068 438.367C494.926 496.834 480.348 544.149 445.24 566.515C410.131 588.882 361.089 582.098 310.152 552.986C259.221 523.877 206.429 472.46 163.855 405.632C121.281 338.805 96.9932 269.229 92.1358 210.768C87.2779 152.301 101.856 104.986 136.964 82.6195Z" stroke="#3F83F8" stroke-width="0.25"/>
<path d="M229.014 44.4371C269.655 35.4272 313.42 58.5757 351.327 103.353C389.231 148.126 421.254 214.498 438.404 291.857C455.554 369.215 454.581 442.902 439.151 499.499C423.719 556.102 393.838 595.577 353.196 604.587C312.555 613.597 268.791 590.448 230.883 545.671C192.98 500.898 160.957 434.526 143.807 357.167C126.657 279.809 127.629 206.122 143.06 149.525C158.492 92.9224 188.373 53.447 229.014 44.4371Z" stroke="#3F83F8" stroke-width="0.25"/>
<path d="M571.488 262.065C580.498 302.707 557.349 346.471 512.572 384.379C467.799 422.282 401.427 454.305 324.068 471.455C246.71 488.605 173.023 487.632 116.426 472.202C59.8235 456.77 20.3482 426.889 11.3382 386.248C2.32833 345.607 25.4769 301.842 70.2545 263.934C115.027 226.031 181.399 194.008 258.758 176.858C336.116 159.708 409.803 160.681 466.4 176.111C523.003 191.543 562.478 221.424 571.488 262.065Z" stroke="#3F83F8" stroke-width="0.25"/>
<path d="M49.3226 170.611C71.6893 135.503 119.004 120.925 177.471 125.783C235.932 130.64 305.508 154.928 372.336 197.502C439.163 240.076 490.58 292.868 519.689 343.799C548.801 394.736 555.585 443.778 533.218 478.887C510.852 513.995 463.537 528.573 405.07 523.715C346.609 518.858 277.033 494.57 210.205 451.996C143.378 409.422 91.9613 356.629 62.8522 305.699C33.7402 254.762 26.956 205.72 49.3226 170.611Z" stroke="#3F83F8" stroke-width="0.25"/>
<path d="M445.375 82.3317C480.483 104.698 495.061 152.013 490.203 210.48C485.346 268.941 461.058 338.517 418.484 405.345C375.91 472.172 323.117 523.589 272.187 552.698C221.25 581.81 172.208 588.594 137.099 566.227C101.991 543.861 87.4129 496.546 92.2707 438.079C97.1282 379.618 121.416 310.042 163.99 243.215C206.564 176.387 259.356 124.97 310.287 95.8613C361.224 66.7492 410.266 59.965 445.375 82.3317Z" stroke="#3F83F8" stroke-width="0.25"/>
<path d="M8.91917 275.051C16.1478 234.055 54.2822 202.481 110.158 184.594C166.028 166.71 239.602 162.524 317.635 176.283C395.668 190.042 463.374 219.14 509.757 255.054C556.146 290.973 581.181 333.686 573.953 374.681C566.724 415.677 528.59 447.251 472.714 465.138C416.844 483.022 343.27 487.208 265.237 473.449C187.204 459.69 119.498 430.592 73.1146 394.678C26.726 358.759 1.69057 316.046 8.91917 275.051Z" stroke="#3F83F8" stroke-width="0.25"/>
<path d="M341.041 41.9283C382.036 49.1569 413.611 87.2913 431.497 143.167C449.382 199.037 453.568 272.611 439.808 350.644C426.049 428.677 396.951 496.383 361.037 542.766C325.119 589.155 282.405 614.19 241.41 606.962C200.415 599.733 168.84 561.599 150.954 505.723C133.069 449.853 128.883 376.279 142.643 298.246C156.402 220.213 185.499 152.507 221.414 106.124C257.332 59.7352 300.045 34.6997 341.041 41.9283Z" stroke="#3F83F8" stroke-width="0.25"/>
<path d="M56.5588 489.275C32.682 455.175 37.3205 405.883 64.1831 353.726C91.0428 301.574 140.108 246.589 205.015 201.14C269.922 155.692 338.372 128.392 396.565 120.989C454.765 113.586 502.67 126.086 526.547 160.185C550.424 194.285 545.785 243.576 518.923 295.734C492.063 347.886 442.998 402.871 378.091 448.319C313.184 493.768 244.734 521.068 186.541 528.471C128.341 535.874 80.4355 523.374 56.5588 489.275Z" stroke="#3F83F8" stroke-width="0.25"/>
<path d="M126.562 89.5871C160.662 65.7103 209.954 70.3488 262.111 97.2114C314.264 124.071 369.248 173.136 414.697 238.043C460.145 302.95 487.445 371.4 494.848 429.594C502.251 487.793 489.751 535.699 455.652 559.576C421.552 583.452 372.261 578.814 320.103 551.951C267.951 525.091 212.966 476.027 167.518 411.12C122.069 346.213 94.7693 277.763 87.3665 219.569C79.963 161.369 92.4629 113.464 126.562 89.5871Z" stroke="#3F83F8" stroke-width="0.25"/>
<path d="M216.859 47.4257C257.068 36.6516 301.801 57.8691 341.626 100.951C381.446 144.028 416.334 208.939 436.842 285.476C457.35 362.013 459.592 435.672 446.645 492.888C433.696 550.11 405.566 590.852 365.356 601.626C325.147 612.4 280.414 591.182 240.59 548.101C200.769 505.024 165.881 440.112 145.373 363.575C124.866 287.038 122.623 213.379 135.57 156.163C148.519 98.9409 176.649 58.1997 216.859 47.4257Z" stroke="#3F83F8" stroke-width="0.25"/>
<path d="M568.5 249.908C579.274 290.118 558.057 334.85 514.975 374.675C471.898 414.495 406.986 449.383 330.449 469.891C253.913 490.399 180.253 492.641 123.037 479.694C65.8153 466.746 25.0741 438.615 14.3001 398.406C3.52598 358.196 24.7435 313.464 67.825 273.639C110.902 233.819 175.814 198.931 252.351 178.423C328.888 157.915 402.547 155.673 459.763 168.62C516.985 181.568 557.726 209.699 568.5 249.908Z" stroke="#3F83F8" stroke-width="0.25"/>
<path d="M42.8426 181.318C63.6566 145.267 110.29 128.639 168.914 130.942C227.531 133.245 298.1 154.475 366.721 194.094C435.342 233.712 489.013 284.211 520.316 333.824C551.622 383.442 560.539 432.142 539.725 468.193C518.911 504.243 472.277 520.871 413.653 518.568C355.036 516.265 284.467 495.035 215.846 455.417C147.225 415.798 93.5547 365.299 62.2518 315.686C30.9456 266.068 22.0287 217.368 42.8426 181.318Z" stroke="#3F83F8" stroke-width="0.25"/>
<path d="M434.667 75.8466C470.718 96.6605 487.346 143.294 485.043 201.918C482.74 260.535 461.51 331.104 421.891 399.725C382.273 468.346 331.774 522.017 282.161 553.319C232.543 584.626 183.843 593.543 147.792 572.729C111.742 551.915 95.1139 505.281 97.4168 446.657C99.7196 388.04 120.95 317.471 160.568 248.85C200.187 180.229 250.686 126.559 300.299 95.2558C349.917 63.9496 398.617 55.0327 434.667 75.8466Z" stroke="#3F83F8" stroke-width="0.25"/>
<path d="M7.0326 287.42C12.4661 246.148 49.187 212.94 104.229 192.634C159.266 172.329 232.588 164.938 311.146 175.281C389.705 185.623 458.616 211.739 506.522 245.597C554.433 279.457 581.308 321.038 575.874 362.309C570.441 403.581 533.72 436.789 478.677 457.096C423.641 477.4 350.319 484.791 271.76 474.449C193.201 464.107 124.291 437.99 76.385 404.133C28.4738 370.272 1.59908 328.692 7.0326 287.42Z" stroke="#3F83F8" stroke-width="0.25"/>
<path d="M328.669 40.0327C369.941 45.4662 403.149 82.1871 423.456 137.229C443.76 192.266 451.151 265.588 440.809 344.147C430.466 422.705 404.35 491.616 370.493 539.522C336.632 587.433 295.052 614.308 253.78 608.874C212.508 603.441 179.3 566.72 158.994 511.677C138.689 456.641 131.298 383.319 141.64 304.76C151.983 226.201 178.099 157.291 211.956 109.385C245.817 61.474 287.398 34.5992 328.669 40.0327Z" stroke="#3F83F8" stroke-width="0.25"/>
<path d="M63.9711 499.362C38.6297 466.337 41.1137 416.89 65.6756 363.61C90.235 310.336 136.855 253.263 199.717 205.027C262.58 156.79 329.774 126.531 387.59 116.596C445.411 106.661 493.816 117.06 519.158 150.085C544.499 183.111 542.015 232.558 517.453 285.838C492.894 339.112 446.274 396.185 383.411 444.421C320.549 492.657 253.354 522.917 195.539 532.851C137.718 542.786 89.3125 532.388 63.9711 499.362Z" stroke="#3F83F8" stroke-width="0.25"/>
<path d="M116.474 97.0016C149.5 71.6601 198.947 74.1441 252.227 98.706C305.501 123.265 362.573 169.885 410.81 232.748C459.046 295.611 489.306 362.805 499.24 420.62C509.175 478.441 498.776 526.847 465.751 552.188C432.725 577.529 383.278 575.045 329.998 550.484C276.724 525.924 219.652 479.304 171.415 416.442C123.179 353.579 92.9192 286.385 82.9851 228.57C73.0499 170.748 83.4484 122.343 116.474 97.0016Z" stroke="#3F83F8" stroke-width="0.25"/>
<path d="M204.846 50.9417C244.547 38.4239 290.162 57.67 331.828 98.9735C373.49 140.273 411.176 203.601 435.003 279.17C458.83 354.74 464.283 428.231 453.844 485.957C443.404 543.69 417.077 585.619 377.376 598.137C337.675 610.655 292.059 591.408 250.393 550.105C208.731 508.806 171.046 445.478 147.219 369.908C123.392 294.339 117.939 220.848 128.377 163.121C138.818 105.389 165.145 63.4594 204.846 50.9417Z" stroke="#3F83F8" stroke-width="0.25"/>
<path d="M564.985 237.893C577.502 277.594 558.256 323.21 516.953 364.876C475.654 406.537 412.325 444.223 336.756 468.05C261.187 491.877 187.695 497.33 129.969 486.891C72.2367 476.451 30.3073 450.124 17.7895 410.423C5.2718 370.722 24.5179 325.107 65.8213 283.441C107.12 241.779 170.449 204.093 246.018 180.266C321.588 156.439 395.079 150.986 452.805 161.425C510.537 171.865 552.467 198.192 564.985 237.893Z" stroke="#3F83F8" stroke-width="0.25"/>
<path d="M36.8349 192.297C56.0565 155.372 101.921 136.726 160.589 136.47C219.251 136.214 290.679 154.346 360.962 190.933C431.246 227.521 487.068 275.631 520.506 323.831C553.946 372.036 564.979 420.301 545.757 457.225C526.536 494.149 480.672 512.795 422.003 513.052C363.341 513.308 291.914 495.176 221.63 458.589C151.346 422.001 95.5239 373.891 62.0867 325.691C28.646 277.486 17.6133 229.221 36.8349 192.297Z" stroke="#3F83F8" stroke-width="0.25"/>
<path d="M423.686 69.8349C460.61 89.0565 479.256 134.921 479.512 193.589C479.769 252.251 461.637 323.679 425.049 393.962C388.462 464.246 340.352 520.068 292.152 553.506C243.946 586.946 195.682 597.979 158.757 578.757C121.833 559.536 103.187 513.672 102.931 455.003C102.674 396.341 120.806 324.914 157.394 254.63C193.981 184.346 242.091 128.524 290.291 95.0867C338.497 61.646 386.761 50.6133 423.686 69.8349Z" stroke="#3F83F8" stroke-width="0.25"/>
<path d="M5.68738 299.86C9.31549 258.391 44.5529 223.613 98.6571 200.924C152.756 178.239 225.685 167.656 304.62 174.562C383.556 181.468 453.539 204.554 502.877 236.289C552.219 268.028 580.882 308.396 577.254 349.866C573.626 391.335 538.389 426.113 484.284 448.802C430.186 471.487 357.256 482.07 278.321 475.164C199.386 468.258 129.402 445.172 80.0647 413.437C30.7222 381.698 2.05928 341.33 5.68738 299.86Z" stroke="#3F83F8" stroke-width="0.25"/>
<path d="M316.227 38.6787C357.696 42.3068 392.474 77.5441 415.163 131.648C437.848 185.747 448.431 258.676 441.525 337.612C434.619 416.547 411.533 486.531 379.798 535.868C348.059 585.211 307.691 613.873 266.221 610.245C224.752 606.617 189.974 571.38 167.286 517.276C144.6 463.177 134.017 390.248 140.923 311.312C147.829 232.377 170.915 162.393 202.65 113.056C234.389 63.7135 274.758 35.0506 316.227 38.6787Z" stroke="#3F83F8" stroke-width="0.25"/>
<path d="M71.8161 509.117C45.0582 477.228 45.383 427.72 67.5975 373.419C89.8097 319.125 133.896 260.073 194.595 209.14C255.293 158.208 321.104 125.046 378.431 112.599C435.764 100.152 484.576 108.429 511.334 140.318C538.092 172.206 537.767 221.715 515.553 276.015C493.34 330.31 449.255 389.362 388.556 440.294C327.857 491.227 262.047 524.389 204.72 536.835C147.387 549.283 98.5739 541.006 71.8161 509.117Z" stroke="#3F83F8" stroke-width="0.25"/>
<path d="M106.718 104.849C138.607 78.0913 188.115 78.4161 242.416 100.631C296.71 122.843 355.762 166.929 406.695 227.628C457.627 288.326 490.789 354.137 503.235 411.464C515.683 468.797 507.406 517.609 475.517 544.367C443.628 571.125 394.12 570.8 339.82 548.586C285.525 526.373 226.473 482.288 175.541 421.589C124.608 360.89 91.4463 295.08 78.9997 237.753C66.552 180.42 74.8291 131.607 106.718 104.849Z" stroke="#3F83F8" stroke-width="0.25"/>
<path d="M192.997 54.9781C232.114 40.7406 278.526 57.9786 321.954 97.4253C365.377 136.868 405.789 198.492 432.89 272.95C459.991 347.408 468.644 420.592 460.733 478.718C452.821 536.851 428.348 579.889 389.231 594.127C350.114 608.364 303.702 591.126 260.274 551.68C216.851 512.237 176.438 450.613 149.338 376.155C122.237 301.697 113.584 228.513 121.495 170.386C129.407 112.254 153.88 69.2157 192.997 54.9781Z" stroke="#3F83F8" stroke-width="0.25"/>
<path d="M560.947 226.043C575.185 265.16 557.947 311.572 518.5 355C479.058 398.423 417.434 438.835 342.975 465.936C268.517 493.036 195.334 501.69 137.207 493.779C79.0743 485.867 36.0364 461.394 21.7989 422.277C7.5613 383.159 24.7994 336.748 64.246 293.32C103.689 249.897 165.313 209.484 239.771 182.384C314.229 155.283 387.412 146.63 445.539 154.541C503.672 162.453 546.71 186.925 560.947 226.043Z" stroke="#3F83F8" stroke-width="0.25"/>
<path d="M31.3115 203.527C48.9042 165.799 93.9112 145.171 152.512 142.355C211.107 139.541 283.258 154.54 355.071 188.027C426.884 221.513 484.751 267.143 520.259 313.839C555.771 360.539 568.898 408.277 551.306 446.004C533.713 483.732 488.706 504.361 430.105 507.176C371.51 509.991 299.359 494.992 227.546 461.505C155.733 428.018 97.8656 382.389 62.3578 335.693C26.8462 288.992 13.7188 241.255 31.3115 203.527Z" stroke="#3F83F8" stroke-width="0.25"/>
<path d="M412.453 64.3077C450.181 81.9004 470.809 126.907 473.625 185.509C476.439 244.104 461.44 316.254 427.954 388.067C394.467 459.88 348.837 517.748 302.141 553.255C255.441 588.767 207.703 601.894 169.976 584.302C132.248 566.709 111.619 521.702 108.804 463.101C105.989 404.506 120.988 332.355 154.475 260.542C187.962 188.729 233.592 130.862 280.287 95.354C326.988 59.8425 374.725 46.715 412.453 64.3077Z" stroke="#3F83F8" stroke-width="0.25"/>
<path d="M4.88621 312.347C6.70199 270.759 40.3888 234.477 93.452 209.45C146.509 184.426 218.908 170.673 298.069 174.129C377.231 177.585 448.155 197.596 498.829 227.149C549.509 256.705 579.906 295.785 578.09 337.373C576.274 378.962 542.588 415.244 489.524 440.27C436.467 465.294 364.068 479.048 284.907 475.592C205.746 472.135 134.822 452.124 84.1469 422.571C33.4669 393.015 3.07043 353.935 4.88621 312.347Z" stroke="#3F83F8" stroke-width="0.25"/>
<path d="M303.738 37.8684C345.326 39.6842 381.608 73.371 406.634 126.434C431.658 179.492 445.412 251.89 441.956 331.051C438.499 410.213 418.488 481.137 388.935 531.812C359.379 582.492 320.299 612.888 278.711 611.072C237.123 609.256 200.841 575.57 175.814 522.507C150.79 469.449 137.037 397.051 140.493 317.889C143.949 238.728 163.96 167.804 193.513 117.129C223.069 66.4491 262.149 36.0526 303.738 37.8684Z" stroke="#3F83F8" stroke-width="0.25"/>
<path d="M80.08 518.52C51.9566 487.829 50.1216 438.353 69.9464 383.135C89.7691 327.924 131.237 267.005 189.657 213.473C248.076 159.942 312.377 123.941 369.107 109.006C425.842 94.0687 474.97 100.209 503.093 130.9C531.216 161.591 533.051 211.067 513.227 266.285C493.404 321.497 451.936 382.415 393.516 435.947C335.097 489.478 270.796 525.479 214.066 540.415C157.331 555.351 108.203 549.211 80.08 518.52Z" stroke="#3F83F8" stroke-width="0.25"/>
<path d="M97.3147 113.115C128.006 84.9912 177.481 83.1562 232.699 102.981C287.911 122.804 348.83 164.272 402.361 222.691C455.893 281.111 491.894 345.412 506.829 402.141C521.766 458.877 515.626 508.004 484.935 536.127C454.243 564.251 404.768 566.086 349.55 546.261C294.338 526.438 233.419 484.97 179.888 426.551C126.356 368.131 90.3554 303.83 75.4201 247.101C60.4833 190.365 66.6234 141.238 97.3147 113.115Z" stroke="#3F83F8" stroke-width="0.25"/>
</g>
<path d="M143.559 248.952L140.871 261.528H152.391V276.312H137.703L134.535 291H119.175L122.343 276.312H106.407L103.239 291H87.8788L91.0468 276.312H76.8388V261.528H94.2148L96.9028 248.952H82.9828V234.168H99.9748L103.047 219.96H118.407L115.335 234.168H131.271L134.343 219.96H149.703L146.631 234.168H158.535V248.952H143.559ZM128.199 248.952H112.263L109.575 261.528H125.511L128.199 248.952ZM201.051 272.92V277.464H208.379V281.688H201.051V286.616H209.339V291H195.579V268.536H209.339V272.92H201.051ZM237.596 272.952C239.814 272.952 241.574 273.624 242.876 274.968C244.198 276.312 244.86 278.179 244.86 280.568V291H239.42V281.304C239.42 280.152 239.11 279.267 238.492 278.648C237.894 278.008 237.062 277.688 235.996 277.688C234.929 277.688 234.086 278.008 233.468 278.648C232.87 279.267 232.572 280.152 232.572 281.304V291H227.132V281.304C227.132 280.152 226.822 279.267 226.204 278.648C225.606 278.008 224.774 277.688 223.708 277.688C222.641 277.688 221.798 278.008 221.18 278.648C220.582 279.267 220.284 280.152 220.284 281.304V291H214.812V273.144H220.284V275.384C220.838 274.637 221.564 274.051 222.46 273.624C223.356 273.176 224.369 272.952 225.5 272.952C226.844 272.952 228.038 273.24 229.084 273.816C230.15 274.392 230.982 275.213 231.58 276.28C232.198 275.299 233.041 274.499 234.108 273.88C235.174 273.261 236.337 272.952 237.596 272.952ZM256.079 275.672C256.612 274.84 257.348 274.168 258.287 273.656C259.225 273.144 260.324 272.888 261.583 272.888C263.055 272.888 264.388 273.261 265.583 274.008C266.777 274.755 267.716 275.821 268.399 277.208C269.103 278.595 269.455 280.205 269.455 282.04C269.455 283.875 269.103 285.496 268.399 286.904C267.716 288.291 266.777 289.368 265.583 290.136C264.388 290.883 263.055 291.256 261.583 291.256C260.345 291.256 259.247 291 258.287 290.488C257.348 289.976 256.612 289.315 256.079 288.504V299.512H250.607V273.144H256.079V275.672ZM263.887 282.04C263.887 280.675 263.503 279.608 262.735 278.84C261.988 278.051 261.06 277.656 259.951 277.656C258.863 277.656 257.935 278.051 257.167 278.84C256.42 279.629 256.047 280.707 256.047 282.072C256.047 283.437 256.42 284.515 257.167 285.304C257.935 286.093 258.863 286.488 259.951 286.488C261.039 286.488 261.967 286.093 262.735 285.304C263.503 284.493 263.887 283.405 263.887 282.04ZM282.373 291.256C280.624 291.256 279.045 290.883 277.637 290.136C276.251 289.389 275.152 288.323 274.341 286.936C273.552 285.549 273.157 283.928 273.157 282.072C273.157 280.237 273.563 278.627 274.373 277.24C275.184 275.832 276.293 274.755 277.701 274.008C279.109 273.261 280.688 272.888 282.437 272.888C284.187 272.888 285.765 273.261 287.173 274.008C288.581 274.755 289.691 275.832 290.501 277.24C291.312 278.627 291.717 280.237 291.717 282.072C291.717 283.907 291.301 285.528 290.469 286.936C289.659 288.323 288.539 289.389 287.109 290.136C285.701 290.883 284.123 291.256 282.373 291.256ZM282.373 286.52C283.419 286.52 284.304 286.136 285.029 285.368C285.776 284.6 286.149 283.501 286.149 282.072C286.149 280.643 285.787 279.544 285.061 278.776C284.357 278.008 283.483 277.624 282.437 277.624C281.371 277.624 280.485 278.008 279.781 278.776C279.077 279.523 278.725 280.621 278.725 282.072C278.725 283.501 279.067 284.6 279.749 285.368C280.453 286.136 281.328 286.52 282.373 286.52ZM322.172 273.144L317.34 291H311.292L308.476 279.416L305.564 291H299.548L294.684 273.144H300.156L302.684 285.912L305.692 273.144H311.484L314.524 285.848L317.02 273.144H322.172ZM343.011 281.784C343.011 282.296 342.979 282.829 342.915 283.384H330.531C330.616 284.493 330.968 285.347 331.587 285.944C332.227 286.52 333.006 286.808 333.923 286.808C335.288 286.808 336.238 286.232 336.771 285.08H342.595C342.296 286.253 341.752 287.309 340.963 288.248C340.195 289.187 339.224 289.923 338.051 290.456C336.878 290.989 335.566 291.256 334.115 291.256C332.366 291.256 330.808 290.883 329.443 290.136C328.078 289.389 327.011 288.323 326.243 286.936C325.475 285.549 325.091 283.928 325.091 282.072C325.091 280.216 325.464 278.595 326.211 277.208C326.979 275.821 328.046 274.755 329.411 274.008C330.776 273.261 332.344 272.888 334.115 272.888C335.843 272.888 337.379 273.251 338.723 273.976C340.067 274.701 341.112 275.736 341.859 277.08C342.627 278.424 343.011 279.992 343.011 281.784ZM337.411 280.344C337.411 279.405 337.091 278.659 336.451 278.104C335.811 277.549 335.011 277.272 334.051 277.272C333.134 277.272 332.355 277.539 331.715 278.072C331.096 278.605 330.712 279.363 330.563 280.344H337.411ZM353.29 276.12C353.93 275.139 354.73 274.371 355.69 273.816C356.65 273.24 357.716 272.952 358.89 272.952V278.744H357.386C356.02 278.744 354.996 279.043 354.314 279.64C353.631 280.216 353.29 281.24 353.29 282.712V291H347.818V273.144H353.29V276.12ZM366.177 271.288C365.217 271.288 364.428 271.011 363.809 270.456C363.212 269.88 362.913 269.176 362.913 268.344C362.913 267.491 363.212 266.787 363.809 266.232C364.428 265.656 365.217 265.368 366.177 265.368C367.116 265.368 367.884 265.656 368.481 266.232C369.1 266.787 369.409 267.491 369.409 268.344C369.409 269.176 369.1 269.88 368.481 270.456C367.884 271.011 367.116 271.288 366.177 271.288ZM368.897 273.144V291H363.425V273.144H368.897ZM385.663 272.952C387.753 272.952 389.417 273.635 390.655 275C391.913 276.344 392.543 278.2 392.543 280.568V291H387.103V281.304C387.103 280.109 386.793 279.181 386.175 278.52C385.556 277.859 384.724 277.528 383.679 277.528C382.633 277.528 381.801 277.859 381.183 278.52C380.564 279.181 380.255 280.109 380.255 281.304V291H374.783V273.144H380.255V275.512C380.809 274.723 381.556 274.104 382.495 273.656C383.433 273.187 384.489 272.952 385.663 272.952ZM405.049 272.888C406.308 272.888 407.407 273.144 408.345 273.656C409.305 274.168 410.041 274.84 410.553 275.672V273.144H416.025V290.968C416.025 292.611 415.695 294.093 415.033 295.416C414.393 296.76 413.401 297.827 412.057 298.616C410.735 299.405 409.081 299.8 407.097 299.8C404.452 299.8 402.308 299.171 400.665 297.912C399.023 296.675 398.084 294.989 397.849 292.856H403.257C403.428 293.539 403.833 294.072 404.473 294.456C405.113 294.861 405.903 295.064 406.841 295.064C407.972 295.064 408.868 294.733 409.529 294.072C410.212 293.432 410.553 292.397 410.553 290.968V288.44C410.02 289.272 409.284 289.955 408.345 290.488C407.407 291 406.308 291.256 405.049 291.256C403.577 291.256 402.244 290.883 401.049 290.136C399.855 289.368 398.905 288.291 398.201 286.904C397.519 285.496 397.177 283.875 397.177 282.04C397.177 280.205 397.519 278.595 398.201 277.208C398.905 275.821 399.855 274.755 401.049 274.008C402.244 273.261 403.577 272.888 405.049 272.888ZM410.553 282.072C410.553 280.707 410.169 279.629 409.401 278.84C408.655 278.051 407.737 277.656 406.649 277.656C405.561 277.656 404.633 278.051 403.865 278.84C403.119 279.608 402.745 280.675 402.745 282.04C402.745 283.405 403.119 284.493 403.865 285.304C404.633 286.093 405.561 286.488 406.649 286.488C407.737 286.488 408.655 286.093 409.401 285.304C410.169 284.515 410.553 283.437 410.553 282.072ZM29.699 321.144L18.499 347.48H12.611L16.707 338.392L9.44301 321.144H15.555L19.683 332.312L23.779 321.144H29.699ZM41.7258 339.256C39.9764 339.256 38.3978 338.883 36.9898 338.136C35.6031 337.389 34.5044 336.323 33.6938 334.936C32.9044 333.549 32.5098 331.928 32.5098 330.072C32.5098 328.237 32.9151 326.627 33.7258 325.24C34.5364 323.832 35.6458 322.755 37.0538 322.008C38.4618 321.261 40.0404 320.888 41.7898 320.888C43.5391 320.888 45.1178 321.261 46.5258 322.008C47.9338 322.755 49.0431 323.832 49.8538 325.24C50.6644 326.627 51.0698 328.237 51.0698 330.072C51.0698 331.907 50.6538 333.528 49.8218 334.936C49.0111 336.323 47.8911 337.389 46.4618 338.136C45.0538 338.883 43.4751 339.256 41.7258 339.256ZM41.7258 334.52C42.7711 334.52 43.6564 334.136 44.3818 333.368C45.1284 332.6 45.5018 331.501 45.5018 330.072C45.5018 328.643 45.1391 327.544 44.4138 326.776C43.7098 326.008 42.8351 325.624 41.7898 325.624C40.7231 325.624 39.8378 326.008 39.1338 326.776C38.4298 327.523 38.0778 328.621 38.0778 330.072C38.0778 331.501 38.4191 332.6 39.1018 333.368C39.8058 334.136 40.6804 334.52 41.7258 334.52ZM73.5248 321.144V339H68.0528V336.568C67.4981 337.357 66.7408 337.997 65.7808 338.488C64.8421 338.957 63.7968 339.192 62.6448 339.192C61.2794 339.192 60.0741 338.893 59.0288 338.296C57.9834 337.677 57.1728 336.792 56.5968 335.64C56.0208 334.488 55.7328 333.133 55.7328 331.576V321.144H61.1728V330.84C61.1728 332.035 61.4821 332.963 62.1008 333.624C62.7194 334.285 63.5514 334.616 64.5968 334.616C65.6634 334.616 66.5061 334.285 67.1248 333.624C67.7434 332.963 68.0528 332.035 68.0528 330.84V321.144H73.5248ZM84.8473 324.12C85.4873 323.139 86.2873 322.371 87.2473 321.816C88.2073 321.24 89.2739 320.952 90.4473 320.952V326.744H88.9433C87.5779 326.744 86.5539 327.043 85.8713 327.64C85.1886 328.216 84.8473 329.24 84.8473 330.712V339H79.3753V321.144H84.8473V324.12ZM353.23 371.64C352.824 370.893 352.238 370.328 351.47 369.944C350.723 369.539 349.838 369.336 348.814 369.336C347.043 369.336 345.624 369.923 344.558 371.096C343.491 372.248 342.958 373.795 342.958 375.736C342.958 377.805 343.512 379.427 344.622 380.6C345.752 381.752 347.299 382.328 349.262 382.328C350.606 382.328 351.736 381.987 352.654 381.304C353.592 380.621 354.275 379.64 354.702 378.36H347.758V374.328H359.662V379.416C359.256 380.781 358.563 382.051 357.582 383.224C356.622 384.397 355.395 385.347 353.902 386.072C352.408 386.797 350.723 387.16 348.846 387.16C346.627 387.16 344.643 386.68 342.894 385.72C341.166 384.739 339.811 383.384 338.83 381.656C337.87 379.928 337.39 377.955 337.39 375.736C337.39 373.517 337.87 371.544 338.83 369.816C339.811 368.067 341.166 366.712 342.894 365.752C344.622 364.771 346.595 364.28 348.814 364.28C351.502 364.28 353.763 364.931 355.598 366.232C357.454 367.533 358.68 369.336 359.278 371.64H353.23ZM372.741 387.256C370.991 387.256 369.413 386.883 368.005 386.136C366.618 385.389 365.519 384.323 364.709 382.936C363.919 381.549 363.525 379.928 363.525 378.072C363.525 376.237 363.93 374.627 364.741 373.24C365.551 371.832 366.661 370.755 368.069 370.008C369.477 369.261 371.055 368.888 372.805 368.888C374.554 368.888 376.133 369.261 377.541 370.008C378.949 370.755 380.058 371.832 380.869 373.24C381.679 374.627 382.085 376.237 382.085 378.072C382.085 379.907 381.669 381.528 380.837 382.936C380.026 384.323 378.906 385.389 377.477 386.136C376.069 386.883 374.49 387.256 372.741 387.256ZM372.741 382.52C373.786 382.52 374.671 382.136 375.397 381.368C376.143 380.6 376.517 379.501 376.517 378.072C376.517 376.643 376.154 375.544 375.429 374.776C374.725 374.008 373.85 373.624 372.805 373.624C371.738 373.624 370.853 374.008 370.149 374.776C369.445 375.523 369.093 376.621 369.093 378.072C369.093 379.501 369.434 380.6 370.117 381.368C370.821 382.136 371.695 382.52 372.741 382.52ZM385.82 378.04C385.82 376.205 386.161 374.595 386.844 373.208C387.548 371.821 388.497 370.755 389.692 370.008C390.886 369.261 392.22 368.888 393.692 368.888C394.95 368.888 396.049 369.144 396.988 369.656C397.948 370.168 398.684 370.84 399.196 371.672V369.144H404.668V387H399.196V384.472C398.662 385.304 397.916 385.976 396.956 386.488C396.017 387 394.918 387.256 393.66 387.256C392.209 387.256 390.886 386.883 389.692 386.136C388.497 385.368 387.548 384.291 386.844 382.904C386.161 381.496 385.82 379.875 385.82 378.04ZM399.196 378.072C399.196 376.707 398.812 375.629 398.044 374.84C397.297 374.051 396.38 373.656 395.292 373.656C394.204 373.656 393.276 374.051 392.508 374.84C391.761 375.608 391.388 376.675 391.388 378.04C391.388 379.405 391.761 380.493 392.508 381.304C393.276 382.093 394.204 382.488 395.292 382.488C396.38 382.488 397.297 382.093 398.044 381.304C398.812 380.515 399.196 379.437 399.196 378.072ZM416.019 363.32V387H410.547V363.32H416.019Z" fill="white"/>
<path d="M109.156 320.92V325.464H116.484V329.688H109.156V334.616H117.444V339H103.684V316.536H117.444V320.92H109.156ZM133.797 320.952C135.887 320.952 137.551 321.635 138.789 323C140.047 324.344 140.677 326.2 140.677 328.568V339H135.237V329.304C135.237 328.109 134.927 327.181 134.309 326.52C133.69 325.859 132.858 325.528 131.813 325.528C130.767 325.528 129.935 325.859 129.317 326.52C128.698 327.181 128.389 328.109 128.389 329.304V339H122.917V321.144H128.389V323.512C128.943 322.723 129.69 322.104 130.629 321.656C131.567 321.187 132.623 320.952 133.797 320.952ZM156.351 334.36V339H153.567C151.583 339 150.036 338.52 148.927 337.56C147.818 336.579 147.263 334.989 147.263 332.792V325.688H145.087V321.144H147.263V316.792H152.735V321.144H156.319V325.688H152.735V332.856C152.735 333.389 152.863 333.773 153.119 334.008C153.375 334.243 153.802 334.36 154.399 334.36H156.351ZM166.791 324.12C167.431 323.139 168.231 322.371 169.191 321.816C170.151 321.24 171.218 320.952 172.391 320.952V326.744H170.887C169.522 326.744 168.498 327.043 167.815 327.64C167.132 328.216 166.791 329.24 166.791 330.712V339H161.319V321.144H166.791V324.12ZM193.759 329.784C193.759 330.296 193.727 330.829 193.663 331.384H181.279C181.364 332.493 181.716 333.347 182.335 333.944C182.975 334.52 183.753 334.808 184.671 334.808C186.036 334.808 186.985 334.232 187.519 333.08H193.343C193.044 334.253 192.5 335.309 191.711 336.248C190.943 337.187 189.972 337.923 188.799 338.456C187.625 338.989 186.313 339.256 184.863 339.256C183.113 339.256 181.556 338.883 180.191 338.136C178.825 337.389 177.759 336.323 176.991 334.936C176.223 333.549 175.839 331.928 175.839 330.072C175.839 328.216 176.212 326.595 176.959 325.208C177.727 323.821 178.793 322.755 180.159 322.008C181.524 321.261 183.092 320.888 184.863 320.888C186.591 320.888 188.127 321.251 189.471 321.976C190.815 322.701 191.86 323.736 192.607 325.08C193.375 326.424 193.759 327.992 193.759 329.784ZM188.159 328.344C188.159 327.405 187.839 326.659 187.199 326.104C186.559 325.549 185.759 325.272 184.799 325.272C183.881 325.272 183.103 325.539 182.463 326.072C181.844 326.605 181.46 327.363 181.311 328.344H188.159ZM204.037 323.672C204.571 322.84 205.307 322.168 206.245 321.656C207.184 321.144 208.283 320.888 209.541 320.888C211.013 320.888 212.347 321.261 213.541 322.008C214.736 322.755 215.675 323.821 216.357 325.208C217.061 326.595 217.413 328.205 217.413 330.04C217.413 331.875 217.061 333.496 216.357 334.904C215.675 336.291 214.736 337.368 213.541 338.136C212.347 338.883 211.013 339.256 209.541 339.256C208.304 339.256 207.205 339 206.245 338.488C205.307 337.976 204.571 337.315 204.037 336.504V347.512H198.565V321.144H204.037V323.672ZM211.845 330.04C211.845 328.675 211.461 327.608 210.693 326.84C209.947 326.051 209.019 325.656 207.909 325.656C206.821 325.656 205.893 326.051 205.125 326.84C204.379 327.629 204.005 328.707 204.005 330.072C204.005 331.437 204.379 332.515 205.125 333.304C205.893 334.093 206.821 334.488 207.909 334.488C208.997 334.488 209.925 334.093 210.693 333.304C211.461 332.493 211.845 331.405 211.845 330.04ZM227.676 324.12C228.316 323.139 229.116 322.371 230.076 321.816C231.036 321.24 232.103 320.952 233.276 320.952V326.744H231.772C230.407 326.744 229.383 327.043 228.7 327.64C228.017 328.216 227.676 329.24 227.676 330.712V339H222.204V321.144H227.676V324.12ZM254.643 329.784C254.643 330.296 254.611 330.829 254.548 331.384H242.163C242.249 332.493 242.601 333.347 243.219 333.944C243.859 334.52 244.638 334.808 245.556 334.808C246.921 334.808 247.87 334.232 248.403 333.08H254.228C253.929 334.253 253.385 335.309 252.596 336.248C251.828 337.187 250.857 337.923 249.684 338.456C248.51 338.989 247.198 339.256 245.747 339.256C243.998 339.256 242.441 338.883 241.075 338.136C239.71 337.389 238.643 336.323 237.875 334.936C237.107 333.549 236.723 331.928 236.723 330.072C236.723 328.216 237.097 326.595 237.843 325.208C238.611 323.821 239.678 322.755 241.043 322.008C242.409 321.261 243.977 320.888 245.747 320.888C247.476 320.888 249.012 321.251 250.356 321.976C251.7 322.701 252.745 323.736 253.492 325.08C254.259 326.424 254.643 327.992 254.643 329.784ZM249.043 328.344C249.043 327.405 248.723 326.659 248.083 326.104C247.443 325.549 246.644 325.272 245.684 325.272C244.766 325.272 243.987 325.539 243.347 326.072C242.729 326.605 242.345 327.363 242.195 328.344H249.043ZM270.33 320.952C272.421 320.952 274.085 321.635 275.322 323C276.581 324.344 277.21 326.2 277.21 328.568V339H271.77V329.304C271.77 328.109 271.461 327.181 270.842 326.52C270.224 325.859 269.392 325.528 268.346 325.528C267.301 325.528 266.469 325.859 265.85 326.52C265.232 327.181 264.922 328.109 264.922 329.304V339H259.45V321.144H264.922V323.512C265.477 322.723 266.224 322.104 267.162 321.656C268.101 321.187 269.157 320.952 270.33 320.952ZM300.565 321.144V339H295.093V336.568C294.538 337.357 293.781 337.997 292.821 338.488C291.882 338.957 290.837 339.192 289.685 339.192C288.319 339.192 287.114 338.893 286.069 338.296C285.023 337.677 284.213 336.792 283.637 335.64C283.061 334.488 282.773 333.133 282.773 331.576V321.144H288.213V330.84C288.213 332.035 288.522 332.963 289.141 333.624C289.759 334.285 290.591 334.616 291.637 334.616C292.703 334.616 293.546 334.285 294.165 333.624C294.783 332.963 295.093 332.035 295.093 330.84V321.144H300.565ZM323.247 329.784C323.247 330.296 323.215 330.829 323.151 331.384H310.767C310.853 332.493 311.205 333.347 311.823 333.944C312.463 334.52 313.242 334.808 314.159 334.808C315.525 334.808 316.474 334.232 317.007 333.08H322.831C322.533 334.253 321.989 335.309 321.199 336.248C320.431 337.187 319.461 337.923 318.287 338.456C317.114 338.989 315.802 339.256 314.351 339.256C312.602 339.256 311.045 338.883 309.679 338.136C308.314 337.389 307.247 336.323 306.479 334.936C305.711 333.549 305.327 331.928 305.327 330.072C305.327 328.216 305.701 326.595 306.447 325.208C307.215 323.821 308.282 322.755 309.647 322.008C311.013 321.261 312.581 320.888 314.351 320.888C316.079 320.888 317.615 321.251 318.959 321.976C320.303 322.701 321.349 323.736 322.095 325.08C322.863 326.424 323.247 327.992 323.247 329.784ZM317.647 328.344C317.647 327.405 317.327 326.659 316.687 326.104C316.047 325.549 315.247 325.272 314.287 325.272C313.37 325.272 312.591 325.539 311.951 326.072C311.333 326.605 310.949 327.363 310.799 328.344H317.647ZM333.526 324.12C334.166 323.139 334.966 322.371 335.926 321.816C336.886 321.24 337.953 320.952 339.126 320.952V326.744H337.622C336.257 326.744 335.233 327.043 334.55 327.64C333.867 328.216 333.526 329.24 333.526 330.712V339H328.054V321.144H333.526V324.12ZM350.925 339.256C349.368 339.256 347.981 338.989 346.765 338.456C345.549 337.923 344.589 337.197 343.885 336.28C343.181 335.341 342.787 334.296 342.701 333.144H348.109C348.173 333.763 348.461 334.264 348.973 334.648C349.485 335.032 350.115 335.224 350.861 335.224C351.544 335.224 352.067 335.096 352.429 334.84C352.813 334.563 353.005 334.211 353.005 333.784C353.005 333.272 352.739 332.899 352.205 332.664C351.672 332.408 350.808 332.131 349.613 331.832C348.333 331.533 347.267 331.224 346.413 330.904C345.56 330.563 344.824 330.04 344.205 329.336C343.587 328.611 343.277 327.64 343.277 326.424C343.277 325.4 343.555 324.472 344.109 323.64C344.685 322.787 345.517 322.115 346.605 321.624C347.715 321.133 349.027 320.888 350.541 320.888C352.781 320.888 354.541 321.443 355.821 322.552C357.123 323.661 357.869 325.133 358.061 326.968H353.005C352.92 326.349 352.643 325.859 352.173 325.496C351.725 325.133 351.128 324.952 350.381 324.952C349.741 324.952 349.251 325.08 348.909 325.336C348.568 325.571 348.397 325.901 348.397 326.328C348.397 326.84 348.664 327.224 349.197 327.48C349.752 327.736 350.605 327.992 351.757 328.248C353.08 328.589 354.157 328.931 354.989 329.272C355.821 329.592 356.547 330.125 357.165 330.872C357.805 331.597 358.136 332.579 358.157 333.816C358.157 334.861 357.859 335.8 357.261 336.632C356.685 337.443 355.843 338.083 354.733 338.552C353.645 339.021 352.376 339.256 350.925 339.256ZM374.401 320.952C376.449 320.952 378.092 321.635 379.329 323C380.567 324.344 381.185 326.2 381.185 328.568V339H375.745V329.304C375.745 328.109 375.436 327.181 374.817 326.52C374.199 325.859 373.367 325.528 372.321 325.528C371.276 325.528 370.444 325.859 369.825 326.52C369.207 327.181 368.897 328.109 368.897 329.304V339H363.425V315.32H368.897V323.544C369.452 322.755 370.209 322.125 371.169 321.656C372.129 321.187 373.207 320.952 374.401 320.952ZM389.66 319.288C388.7 319.288 387.91 319.011 387.292 318.456C386.694 317.88 386.396 317.176 386.396 316.344C386.396 315.491 386.694 314.787 387.292 314.232C387.91 313.656 388.7 313.368 389.66 313.368C390.598 313.368 391.366 313.656 391.964 314.232C392.582 314.787 392.892 315.491 392.892 316.344C392.892 317.176 392.582 317.88 391.964 318.456C391.366 319.011 390.598 319.288 389.66 319.288ZM392.38 321.144V339H386.908V321.144H392.38ZM403.737 323.672C404.271 322.84 405.007 322.168 405.945 321.656C406.884 321.144 407.983 320.888 409.241 320.888C410.713 320.888 412.047 321.261 413.241 322.008C414.436 322.755 415.375 323.821 416.057 325.208C416.761 326.595 417.113 328.205 417.113 330.04C417.113 331.875 416.761 333.496 416.057 334.904C415.375 336.291 414.436 337.368 413.241 338.136C412.047 338.883 410.713 339.256 409.241 339.256C408.004 339.256 406.905 339 405.945 338.488C405.007 337.976 404.271 337.315 403.737 336.504V347.512H398.265V321.144H403.737V323.672ZM411.545 330.04C411.545 328.675 411.161 327.608 410.393 326.84C409.647 326.051 408.719 325.656 407.609 325.656C406.521 325.656 405.593 326.051 404.825 326.84C404.079 327.629 403.705 328.707 403.705 330.072C403.705 331.437 404.079 332.515 404.825 333.304C405.593 334.093 406.521 334.488 407.609 334.488C408.697 334.488 409.625 334.093 410.393 333.304C411.161 332.493 411.545 331.405 411.545 330.04Z" fill="#26A8DA"/>
<defs>
<clipPath id="clip0_64_3208">
<rect width="373" height="677" fill="white" transform="translate(291)"/>
</clipPath>
</defs>
</svg>
